<svg width="807" height="678" viewBox="0 0 807 678" fill="none" xmlns="http://www.w3.org/2000/svg">
<g id="anyone-svg">
<path id="payer-leaf" d="M509.882 607.845L507.899 580.257C494.905 573.761 480.523 570.536 466 570.861C486.432 586.654 484.795 618.218 498.945 639.82C503.41 646.524 509.326 652.137 516.255 656.243C523.184 660.35 530.949 662.844 538.973 663.542L555.977 673.324C557.922 660.468 557.057 647.343 553.441 634.854C549.825 622.364 543.545 610.807 535.033 600.979C530.203 595.512 524.703 590.676 518.665 586.583C514.948 597.254 509.882 607.845 509.882 607.845Z" fill="#F2F2F2"/>
<path id="Vector" d="M805.712 677.766H395.241C394.998 677.765 394.765 677.668 394.593 677.495C394.421 677.323 394.325 677.09 394.325 676.846C394.325 676.603 394.421 676.37 394.593 676.197C394.765 676.025 394.998 675.928 395.241 675.927H805.712C805.956 675.927 806.19 676.024 806.363 676.196C806.535 676.369 806.632 676.603 806.632 676.846C806.632 677.09 806.535 677.324 806.363 677.496C806.19 677.669 805.956 677.766 805.712 677.766V677.766Z" fill="#CCCCCC"/>
<g id="person-1">
<path id="Vector_2" d="M267.886 160.656C311.974 160.656 347.714 124.915 347.714 80.8278C347.714 36.7401 311.974 1 267.886 1C223.798 1 188.058 36.7401 188.058 80.8278C188.058 124.915 223.798 160.656 267.886 160.656Z" fill="white"/>
<path id="Vector_3" d="M271.581 88.9705C285.957 88.9705 297.611 77.3163 297.611 62.9401C297.611 48.5639 285.957 36.9097 271.581 36.9097C257.204 36.9097 245.55 48.5639 245.55 62.9401C245.55 77.3163 257.204 88.9705 271.581 88.9705Z" fill="#FFB8B8"/>
<path id="bf427902-b9bf-4946-b5d7-5c1c7e04535e" d="M294.5 45.7441C294.5 45.7441 301.277 32.7877 286.366 31.6099C286.366 31.6099 273.655 20.079 260.699 29.5018C260.699 29.5018 253.632 29.5019 249.767 37.4991C249.767 37.4991 244.209 35.3911 242.987 41.0327C242.987 41.0327 238.92 52.8112 242.987 63.4119C247.055 74.0125 248.405 75.1904 248.405 75.1904C248.405 75.1904 245.552 62.0355 261.819 60.8577C278.087 59.6798 293.01 49.489 294.366 62.4453C295.722 75.4017 297.212 69.5488 297.212 69.5488C297.212 69.5488 310.088 51.0445 294.5 45.7441Z" fill="#2F2E41"/>
<path id="Vector_4" d="M327.92 133.908C314.09 149.644 294.626 159.311 273.731 160.821C252.836 162.331 232.185 155.564 216.236 141.979L223.083 122.874C224.63 119.48 227.072 116.572 230.146 114.461C233.221 112.35 236.812 111.115 240.534 110.89L244.89 110.622L255.277 101.664C255.277 101.664 283.263 100.665 282.848 100.187L299.8 110.383L299.786 110.313L306.45 110.721C310.173 110.945 313.764 112.18 316.839 114.291C319.914 116.402 322.355 119.311 323.902 122.705L327.92 133.908Z" fill="#F9A826"/>
<path id="Vector_5" d="M267.886 161.655C251.9 161.655 236.273 156.915 222.981 148.033C209.689 139.152 199.329 126.528 193.211 111.759C187.094 96.9898 185.493 80.738 188.612 65.059C191.73 49.38 199.429 34.9779 210.733 23.6739C222.036 12.37 236.439 4.67187 252.118 1.55312C267.797 -1.56563 284.048 0.0350161 298.818 6.15267C313.587 12.2703 326.211 22.6302 335.092 35.9222C343.973 49.2143 348.714 64.8415 348.714 80.8277C348.69 102.257 340.166 122.802 325.013 137.955C309.86 153.107 289.316 161.631 267.886 161.655V161.655ZM267.886 2.00003C252.296 2.00003 237.055 6.62319 224.092 15.2849C211.129 23.9466 201.025 36.2578 195.059 50.6616C189.093 65.0655 187.532 80.9151 190.573 96.2062C193.615 111.497 201.122 125.543 212.147 136.567C223.171 147.591 237.217 155.099 252.508 158.141C267.799 161.182 283.648 159.621 298.052 153.655C312.456 147.689 324.767 137.585 333.429 124.622C342.091 111.659 346.714 96.4183 346.714 80.8277C346.69 59.9286 338.378 39.8922 323.6 25.1143C308.822 10.3364 288.785 2.02374 267.886 2.00003V2.00003Z" fill="#3F3D56"/>
</g>
<g id="person-2">
<path id="Vector_6" d="M81.5628 286.656C125.65 286.656 161.391 250.915 161.391 206.828C161.391 162.74 125.65 127 81.5628 127C37.4752 127 1.73505 162.74 1.73505 206.828C1.73505 250.915 37.4752 286.656 81.5628 286.656Z" fill="white"/>
<path id="Vector_7" d="M44.5634 180.86C47.8642 170.34 55.3704 160.692 65.7514 157.136C76.1329 153.579 91.3341 158.997 99.1387 166.775C113.415 181.003 116.899 229.881 107.09 245.327C105.14 245.223 98.4078 245.147 96.4332 245.073L93.64 235.763V244.981C90.4943 244.884 87.324 244.817 84.129 244.78C73.417 244.647 63.1736 240.366 55.5524 232.837C47.9312 225.309 43.5258 215.118 43.2623 204.409C43.0067 194.163 43.2626 185.005 44.5634 180.86Z" fill="#2F2E41"/>
<path id="Vector_8" d="M80.3789 215.724C92.9436 215.724 103.129 205.539 103.129 192.974C103.129 180.409 92.9436 170.224 80.3789 170.224C67.8142 170.224 57.6285 180.409 57.6285 192.974C57.6285 205.539 67.8142 215.724 80.3789 215.724Z" fill="#9E616A"/>
<path id="Vector_9" d="M60.7446 172.994L86.9394 159.877C92.2948 162.291 96.9071 166.093 100.298 170.889C103.689 175.686 105.734 181.302 106.223 187.156L106.876 194.976L95.9069 192.184L94.7052 182.184L92.8424 191.404L87.7803 190.116L87.8284 174.591L82.7631 190.105L64.6832 185.951L60.7446 172.994Z" fill="#2F2E41"/>
<path id="Vector_10" d="M140.8 259.654C126.97 275.391 107.507 285.057 86.6116 286.567C65.7162 288.078 45.065 281.31 29.1161 267.726L35.9631 248.62C37.5104 245.227 39.9522 242.319 43.0266 240.208C46.1011 238.096 49.6922 236.862 53.4148 236.636L57.7708 236.369L68.1574 227.411C68.1574 227.411 96.1436 226.412 95.7284 225.933L112.681 236.13L112.666 236.059L119.33 236.467C123.053 236.692 126.645 237.926 129.72 240.037C132.794 242.149 135.236 245.058 136.782 248.452L140.8 259.654Z" fill="#F9A826"/>
<path id="Vector_11" d="M81.5631 287.655C65.5769 287.655 49.9497 282.915 36.6577 274.033C23.3656 265.152 13.0057 252.528 6.88808 237.759C0.770426 222.99 -0.83022 206.738 2.28853 191.059C5.40728 175.38 13.1054 160.978 24.4093 149.674C35.7133 138.37 50.1154 130.672 65.7944 127.553C81.4734 124.434 97.7252 126.035 112.494 132.153C127.264 138.27 139.887 148.63 148.769 161.922C157.65 175.214 162.391 190.841 162.391 206.828C162.366 228.257 153.843 248.802 138.69 263.955C123.537 279.107 102.992 287.631 81.5631 287.655ZM81.5631 128C65.9725 128 50.7319 132.623 37.7688 141.285C24.8057 149.947 14.7021 162.258 8.73584 176.662C2.76956 191.066 1.20851 206.915 4.25009 222.206C7.29168 237.497 14.7993 251.543 25.8235 262.567C36.8478 273.591 50.8935 281.099 66.1846 284.141C81.4756 287.182 97.3252 285.621 111.729 279.655C126.133 273.689 138.444 263.585 147.106 250.622C155.768 237.659 160.391 222.418 160.391 206.828C160.367 185.929 152.054 165.892 137.276 151.114C122.499 136.336 102.462 128.024 81.5631 128V128Z" fill="#3F3D56"/>
</g>
<path id="dot-2" d="M82.2505 299.847C91.9155 299.847 99.7505 292.012 99.7505 282.347C99.7505 272.682 91.9155 264.847 82.2505 264.847C72.5855 264.847 64.7505 272.682 64.7505 282.347C64.7505 292.012 72.5855 299.847 82.2505 299.847Z" fill="#3F3D56"/>
<g id="payer">
<path id="Vector_12" d="M651.321 240.523L662.545 219.091C652.48 206.936 619.457 192.195 619.457 192.195L574.762 151.514C574.286 149.699 573.34 148.041 572.02 146.708C570.699 145.374 569.051 144.412 567.241 143.919C565.431 143.425 563.522 143.416 561.708 143.895C559.893 144.373 558.237 145.32 556.905 146.642C555.574 147.964 554.613 149.613 554.122 151.424C553.63 153.235 553.624 155.143 554.104 156.957C554.585 158.771 555.534 160.427 556.858 161.757C558.181 163.087 559.832 164.045 561.643 164.534L609.929 222.446L651.321 240.523Z" fill="#9E616A"/>
<path id="Vector_13" d="M645.884 239.044L661.732 244.09C673.258 247.76 685.677 247.483 697.027 243.304V243.304C700.461 242.026 703.468 239.813 705.71 236.915C707.952 234.017 709.338 230.55 709.713 226.906V226.906C710.187 221.962 708.767 217.022 705.739 213.086C702.711 209.149 698.301 206.509 693.401 205.7C678.538 203.258 659.387 202.053 652.555 210.183L652.486 210.266L645.884 239.044Z" fill="#3F3D56"/>
<path id="Vector_14" d="M507.886 305.656C551.974 305.656 587.714 269.915 587.714 225.828C587.714 181.74 551.974 146 507.886 146C463.798 146 428.058 181.74 428.058 225.828C428.058 269.915 463.798 305.656 507.886 305.656Z" fill="white"/>
<path id="Vector_15" d="M475.307 194.603C474.211 200.49 472.415 206.224 469.956 211.683C455.874 241.473 495.976 231.763 510.307 231.763C525.976 231.763 540.968 240.002 538.678 203.392C537.7 187.753 525.976 175.021 510.307 175.021C496.923 175.02 478.106 180.969 475.307 194.603Z" fill="#2F2E41"/>
<path id="Vector_16" d="M507.96 231.756C520.692 231.756 531.014 221.434 531.014 208.701C531.014 195.968 520.692 185.646 507.96 185.646C495.227 185.646 484.905 195.968 484.905 208.701C484.905 221.434 495.227 231.756 507.96 231.756Z" fill="#FFB6B6"/>
<path id="Vector_17" d="M492.303 185.2C496.343 182.737 500.97 181.405 505.701 181.342C510.432 181.28 515.093 182.49 519.197 184.845C523.3 187.201 526.695 190.615 529.028 194.732C531.36 198.849 532.543 203.517 532.453 208.247C520.706 211.197 508.364 213.454 495.836 208.953L492.878 201.712L491.133 208.958C487.318 210.518 483.493 211.837 479.668 208.943C479.512 204.226 480.596 199.55 482.814 195.384C485.031 191.217 488.303 187.705 492.303 185.2V185.2Z" fill="#2F2E41"/>
<path id="Vector_18" d="M569.956 278.908C556.126 294.644 536.663 304.311 515.767 305.821C494.872 307.331 474.221 300.564 458.272 286.98L465.119 267.874C466.666 264.481 469.108 261.572 472.182 259.461C475.257 257.35 478.848 256.116 482.57 255.89L486.926 255.623L497.313 246.665C497.313 246.665 525.299 245.665 524.884 245.187L541.836 255.383L541.822 255.313L548.486 255.721C552.209 255.946 555.801 257.18 558.875 259.291C561.95 261.402 564.391 264.311 565.938 267.705L569.956 278.908Z" fill="#F9A826"/>
<path id="Vector_19" d="M599.268 662.997L586.004 662.996L579.694 611.837H599.27L599.268 662.997Z" fill="#9E616A"/>
<path id="Vector_20" d="M602.65 675.854L559.883 675.852V675.311C559.883 670.897 561.637 666.663 564.759 663.541C567.88 660.42 572.114 658.666 576.529 658.665H576.53L584.342 652.739L598.918 658.666L602.651 658.667L602.65 675.854Z" fill="#2F2E41"/>
<path id="Vector_21" d="M716.165 662.997L702.902 662.996L696.592 611.837H716.168L716.165 662.997Z" fill="#9E616A"/>
<path id="Vector_22" d="M719.548 675.854L676.78 675.852V675.311C676.781 670.897 678.535 666.663 681.656 663.541C684.778 660.419 689.012 658.666 693.427 658.665H693.428L701.24 652.739L715.815 658.666L719.549 658.666L719.548 675.854Z" fill="#2F2E41"/>
<path id="Vector_23" d="M695.992 389.186L707.148 495.166C707.148 495.166 721.999 601.283 719.21 615.925C716.421 630.567 719.907 632.659 719.907 632.659L694.459 630.847C694.459 630.847 695.156 621.783 690.973 617.599C686.789 613.416 688.881 600.865 688.881 600.865L639.516 428.231L609.534 518.873C609.534 518.873 604.653 618.578 603.956 619.973C603.259 621.367 601.167 640.193 601.167 640.193H575.369C575.369 640.193 578.855 629.037 573.975 625.551C569.094 622.064 564.911 624.853 569.094 618.578C573.278 612.303 574.672 604.633 573.278 601.147C571.883 597.661 571.883 583.716 571.883 583.716C571.883 583.716 573.975 395.461 585.828 389.186C597.681 382.911 695.992 389.186 695.992 389.186Z" fill="#2F2E41"/>
<path id="Vector_24" d="M643.16 174.602C658.314 174.602 670.599 162.317 670.599 147.163C670.599 132.009 658.314 119.725 643.16 119.725C628.006 119.725 615.722 132.009 615.722 147.163C615.722 162.317 628.006 174.602 643.16 174.602Z" fill="#9E616A"/>
<path id="Vector_25" d="M705.475 400.737C652.336 411.71 581.917 392.844 581.917 392.844L600.702 311.414L594.023 226.197C593.208 215.775 599.143 206.007 608.377 202.545L621.127 197.77L631.666 182.682L661.77 183.669L673.804 199.509L683.301 204.548L703.889 215.467L703.98 215.513V215.558L697.519 278.23L693.622 316.018C693.622 316.018 705.457 358.517 703.028 364.154C700.6 369.781 702.711 367.063 703.3 370.071C703.889 373.08 705.692 373.27 705.964 379.197C706.245 385.114 705.475 400.737 705.475 400.737Z" fill="#3F3D56"/>
<path id="Vector_26" d="M641.825 173.284C646.638 173.234 651.437 172.774 656.172 171.908C660.858 170.829 671.199 162.833 674.017 158.109C676.111 154.599 677.368 149.17 678.054 145.235C678.979 140.026 678.801 134.681 677.53 129.545C676.259 124.41 673.923 119.599 670.674 115.423C669.422 113.674 667.72 112.296 665.749 111.434C665.574 111.371 665.395 111.316 665.214 111.27C662.357 110.596 659.766 109.084 657.774 106.927C657.387 106.491 656.97 106.082 656.524 105.706C654.29 103.917 651.664 102.682 648.861 102.102C644.332 101.015 637.854 102.377 629.607 106.156C625.464 108.055 620.865 107.525 617.321 106.852C617.122 106.818 616.918 106.838 616.73 106.908C616.541 106.978 616.374 107.097 616.245 107.252C614.781 108.698 612.825 109.537 610.768 109.6C609.51 109.688 608.233 111.467 606.694 113.783C606.345 114.308 605.938 114.922 605.642 115.296L605.583 114.593L604.89 115.397C603.802 116.661 603.051 118.179 602.708 119.811C602.364 121.443 602.44 123.136 602.926 124.731C603.413 126.326 604.295 127.772 605.491 128.934C606.687 130.096 608.158 130.937 609.766 131.378C611.042 131.682 612.346 131.856 613.657 131.895C614.452 131.946 615.275 131.999 616.064 132.115C618.601 132.566 620.977 133.668 622.961 135.312C624.944 136.956 626.468 139.086 627.382 141.495C627.598 142.052 627.939 142.551 628.379 142.955C628.819 143.359 629.345 143.656 629.918 143.825C630.491 143.993 631.095 144.027 631.683 143.925C632.271 143.822 632.828 143.586 633.311 143.234C634.113 142.575 635.063 142.12 636.08 141.908C637.096 141.696 638.149 141.733 639.148 142.015C640.017 142.469 640.703 143.208 641.092 144.108C641.562 145.11 642.319 145.949 643.268 146.519C646.503 148.082 646.912 155.369 645.922 161.478C644.968 167.366 642.892 171.662 640.875 171.923C639.321 172.125 639.146 172.24 639.04 172.518L638.946 172.767L639.127 172.994C639.995 173.283 640.916 173.382 641.825 173.284V173.284Z" fill="#2F2E41"/>
<path id="Vector_27" d="M507.886 306.655C491.9 306.655 476.273 301.915 462.981 293.033C449.689 284.152 439.329 271.528 433.211 256.759C427.094 241.99 425.493 225.738 428.612 210.059C431.73 194.38 439.429 179.978 450.732 168.674C462.036 157.37 476.438 149.672 492.118 146.553C507.797 143.434 524.048 145.035 538.818 151.153C553.587 157.27 566.21 167.63 575.092 180.922C583.973 194.214 588.714 209.841 588.714 225.828C588.69 247.257 580.166 267.802 565.013 282.955C549.86 298.107 529.316 306.631 507.886 306.655V306.655ZM507.886 147C492.296 147 477.055 151.623 464.092 160.285C451.129 168.947 441.025 181.258 435.059 195.662C429.093 210.066 427.532 225.915 430.573 241.206C433.615 256.497 441.122 270.543 452.147 281.567C463.171 292.591 477.217 300.099 492.508 303.141C507.799 306.182 523.648 304.621 538.052 298.655C552.456 292.689 564.767 282.585 573.429 269.622C582.091 256.659 586.714 241.418 586.714 225.828C586.69 204.929 578.378 184.892 563.6 170.114C548.822 155.336 528.785 147.024 507.886 147Z" fill="#3F3D56"/>
<path id="Vector_28" d="M600.613 266.241L588.527 245.283C572.872 247.271 542.735 267.261 542.735 267.261L484.441 283.211C482.653 282.64 480.747 282.551 478.914 282.952C477.08 283.352 475.385 284.229 473.999 285.493C472.612 286.757 471.583 288.364 471.014 290.152C470.446 291.941 470.359 293.847 470.762 295.68C471.165 297.512 472.043 299.206 473.309 300.592C474.575 301.977 476.183 303.004 477.972 303.57C479.761 304.136 481.667 304.221 483.5 303.816C485.332 303.411 487.025 302.531 488.409 301.263L563.176 291.511L600.613 266.241Z" fill="#9E616A"/>
<path id="Vector_29" d="M601.452 270.04L628.509 247.377L632.445 229.135C633.205 225.551 632.947 221.826 631.701 218.381C630.455 214.935 628.27 211.907 625.393 209.639V209.639C621.472 206.59 616.541 205.143 611.594 205.592C606.648 206.04 602.057 208.35 598.748 212.054C588.724 223.296 577.449 238.823 580.655 248.947L580.687 249.05L601.452 270.04Z" fill="#3F3D56"/>
<path id="Vector_30" d="M494.506 165.012C506.384 165.012 516.012 155.384 516.012 143.506C516.012 131.629 506.384 122 494.506 122C482.629 122 473 131.629 473 143.506C473 155.384 482.629 165.012 494.506 165.012Z" fill="#3F3D56"/>
</g>
<path id="dot-1" d="M350.257 98.859C362.134 98.859 371.763 89.2304 371.763 77.3529C371.763 65.4753 362.134 55.8467 350.257 55.8467C338.379 55.8467 328.75 65.4753 328.75 77.3529C328.75 89.2304 338.379 98.859 350.257 98.859Z" fill="#F9A826"/>
<g id="person-3">
<path id="Vector_31" d="M286.5 368C320.466 368 348 341.137 348 308C348 274.863 320.466 248 286.5 248C252.534 248 225 274.863 225 308C225 341.137 252.534 368 286.5 368Z" fill="#F2F2F2"/>
<path id="ab6171fa-7d69-4734-b81c-8dff60f9761b" d="M285.5 314C295.717 314 304 305.717 304 295.5C304 285.283 295.717 277 285.5 277C275.283 277 267 285.283 267 295.5C267 305.717 275.283 314 285.5 314Z" fill="#9E616A"/>
<path id="Vector_32" d="M332 347.495C321.351 359.393 306.363 366.701 290.273 367.843C274.183 368.985 258.281 363.868 246 353.598L251.272 339.153C252.464 336.587 254.344 334.388 256.712 332.792C259.079 331.196 261.844 330.263 264.711 330.092L268.065 329.89L276.063 323.117C276.063 323.117 297.613 322.362 297.293 322L310.347 329.709L310.336 329.656L315.468 329.965C318.334 330.134 321.1 331.067 323.468 332.664C325.835 334.26 327.715 336.459 328.906 339.025L332 347.495Z" fill="#F9A826"/>
<path id="Vector_33" d="M289.454 332.572C289.399 332.422 289.349 332.27 289.295 332.12C289.188 332.213 289.085 332.309 288.968 332.396L289.454 332.572Z" fill="#2F2E41"/>
<path id="Vector_34" d="M307.99 289.432C307.894 287.588 307.397 285.785 306.531 284.141C305.664 282.497 304.449 281.05 302.965 279.896C301.784 279.179 300.743 278.265 299.889 277.197C299.477 276.38 299.128 275.534 298.845 274.667C297.408 271.347 293.312 269.582 289.638 270.085C287.811 270.422 286.073 271.113 284.528 272.117C282.982 273.121 281.661 274.417 280.643 275.928C279.588 275.437 278.41 275.25 277.249 275.389C276.088 275.528 274.992 275.987 274.091 276.712C273.19 277.437 272.522 278.397 272.166 279.479C271.81 280.561 271.781 281.719 272.082 282.817C270.179 281.329 267.102 282.519 265.914 284.592C264.726 286.665 264.915 289.201 265.268 291.548C265.908 295.789 266.973 299.96 268.449 304C270.302 302.416 270.188 299.532 269.962 297.094C269.726 294.562 269.867 291.469 272.149 290.219C274.353 289.012 277.028 290.338 279.458 291.023C281.38 291.552 283.397 291.669 285.369 291.368C287.342 291.067 289.224 290.354 290.886 289.278C292.082 288.355 293.337 287.506 294.644 286.737C295.304 286.359 296.053 286.153 296.819 286.14C297.586 286.126 298.342 286.306 299.016 286.661C300.082 287.553 300.798 288.775 301.043 290.12C301.979 293.2 302.914 296.281 303.85 299.361C305.224 298.084 306.303 296.539 307.017 294.828C307.73 293.116 308.062 291.277 307.99 289.432V289.432Z" fill="#2F2E41"/>
</g>
<path id="dot-3" d="M228.5 289C238.165 289 246 281.165 246 271.5C246 261.835 238.165 254 228.5 254C218.835 254 211 261.835 211 271.5C211 281.165 218.835 289 228.5 289Z" fill="#F9A826"/>
</g>
</svg>
