<svg width="522" height="290" viewBox="0 0 522 290" fill="none" xmlns="http://www.w3.org/2000/svg">
<path d="M267.118 210.792C267.118 233.74 261.327 255.335 251.128 274.194C251.128 274.194 186.36 274.194 135.64 274.194C84.5367 274.194 15.9849 274.194 15.9849 274.194C6.10094 255.56 0.377808 233.357 0.377808 210.792C0.377808 137.102 60.0896 77.3651 133.748 77.3651C207.406 77.3651 267.118 137.102 267.118 210.792Z" fill="#CBEDE1"/>
<path d="M355.428 1H199.243C188.614 1 179.997 9.64667 179.997 20.3129V234.445C179.997 245.111 188.614 253.758 199.243 253.758H355.428C366.058 253.758 374.674 245.111 374.674 234.445V20.3129C374.674 9.64667 366.058 1 355.428 1Z" fill="#0B5243"/>
<path d="M351.126 1H194.941C184.312 1 175.695 9.64667 175.695 20.3129V234.445C175.695 245.111 184.312 253.758 194.941 253.758H351.126C361.755 253.758 370.372 245.111 370.372 234.445V20.3129C370.372 9.64667 361.755 1 351.126 1Z" fill="white" stroke="#0B5243" stroke-width="0.75" stroke-miterlimit="10"/>
<path d="M199.232 1H355.428C366.045 1 374.674 9.74942 374.674 20.5385V31.1158H179.997V20.5385C179.997 9.74942 188.616 1 199.232 1Z" fill="#0B5243"/>
<path d="M194.941 1H351.126C361.743 1 370.372 9.74942 370.372 20.5385V31.1158H175.695V20.5385C175.695 9.74942 184.313 1 194.941 1Z" fill="#CBEDE1" stroke="#0B5243" stroke-width="0.75" stroke-miterlimit="10"/>
<path d="M198.82 22.5113C202.087 22.5113 204.735 19.8628 204.735 16.5957C204.735 13.3286 202.087 10.6801 198.82 10.6801C195.552 10.6801 192.904 13.3286 192.904 16.5957C192.904 19.8628 195.552 22.5113 198.82 22.5113Z" fill="#FBF9ED" stroke="#0B5243" stroke-width="0.75" stroke-miterlimit="10"/>
<path d="M217.104 22.5113C220.371 22.5113 223.02 19.8628 223.02 16.5957C223.02 13.3286 220.371 10.6801 217.104 10.6801C213.837 10.6801 211.189 13.3286 211.189 16.5957C211.189 19.8628 213.837 22.5113 217.104 22.5113Z" fill="#FBF9ED" stroke="#0B5243" stroke-width="0.75" stroke-miterlimit="10"/>
<path d="M235.389 22.5113C238.656 22.5113 241.304 19.8628 241.304 16.5957C241.304 13.3286 238.656 10.6801 235.389 10.6801C232.122 10.6801 229.473 13.3286 229.473 16.5957C229.473 19.8628 232.122 22.5113 235.389 22.5113Z" fill="#FBF9ED" stroke="#0B5243" stroke-width="0.75" stroke-miterlimit="10"/>
<path d="M220.232 202.131H193.54C191.407 202.131 189.677 203.816 189.677 205.895C189.677 207.974 191.407 209.66 193.54 209.66H220.232C222.366 209.66 224.095 207.974 224.095 205.895C224.095 203.816 222.366 202.131 220.232 202.131Z" fill="#0B5243"/>
<path d="M304.126 202.131H277.434C275.301 202.131 273.571 203.816 273.571 205.895C273.571 207.974 275.301 209.66 277.434 209.66H304.126C306.26 209.66 307.989 207.974 307.989 205.895C307.989 203.816 306.26 202.131 304.126 202.131Z" fill="#0B5243"/>
<path d="M369.297 202.131H362.366C360.254 202.131 358.541 203.816 358.541 205.895C358.541 207.974 360.254 209.66 362.366 209.66H369.297V205.895V202.131Z" fill="#0B5243"/>
<path d="M243.858 92.423H196.803C192.868 92.423 189.677 95.553 189.677 99.4141C189.677 103.275 192.868 106.405 196.803 106.405H243.858C247.794 106.405 250.984 103.275 250.984 99.4141C250.984 95.553 247.794 92.423 243.858 92.423Z" fill="#0B5243"/>
<path d="M259.353 217.189H192.065C190.746 217.189 189.677 218.152 189.677 219.34C189.677 220.528 190.746 221.491 192.065 221.491H259.353C260.671 221.491 261.74 220.528 261.74 219.34C261.74 218.152 260.671 217.189 259.353 217.189Z" fill="#83BAA0"/>
<path d="M343.247 217.189H275.959C274.64 217.189 273.571 218.152 273.571 219.34C273.571 220.528 274.64 221.491 275.959 221.491H343.247C344.565 221.491 345.634 220.528 345.634 219.34C345.634 218.152 344.565 217.189 343.247 217.189Z" fill="#83BAA0"/>
<path d="M369.297 217.189H360.898C359.596 217.189 358.541 218.152 358.541 219.34C358.541 220.528 359.596 221.491 360.898 221.491H369.297V219.34V217.189Z" fill="#83BAA0"/>
<path d="M336.79 56H201.21C193.362 56 187 61.6533 187 68.6269V69.3731C187 76.3467 193.362 82 201.21 82H336.79C344.638 82 351 76.3467 351 69.3731V68.6269C351 61.6533 344.638 56 336.79 56Z" fill="#CBEDE1"/>
<path d="M340.173 37.538H214.08C202.605 37.538 193.265 46.8331 193.265 58.2651C193.265 69.697 202.605 78.9922 214.092 78.9922H340.173C351.66 78.9922 361 69.697 361 58.2651C361 46.8331 351.648 37.538 340.173 37.538Z" fill="#0B5243"/>
<path d="M336.845 37.9891H210.752C199.5 37.9891 190.378 47.067 190.378 58.2651V58.277C190.378 69.4751 199.5 78.553 210.752 78.553H336.845C348.097 78.553 357.219 69.4751 357.219 58.277V58.2651C357.219 47.067 348.097 37.9891 336.845 37.9891Z" fill="white" stroke="#0B5243" stroke-width="0.75" stroke-linecap="round" stroke-linejoin="round"/>
<path d="M336.297 43.0939H324.393C316.198 43.0939 309.554 49.7056 309.554 57.8616V58.657C309.554 66.813 316.198 73.4248 324.393 73.4248H336.297C344.492 73.4248 351.136 66.813 351.136 58.657V57.8616C351.136 49.7056 344.492 43.0939 336.297 43.0939Z" fill="#0B5243"/>
<path d="M210.251 68.3081C209.917 68.3081 209.655 68.0469 209.655 67.7145V49.884C209.655 49.5516 209.917 49.2904 210.251 49.2904C210.585 49.2904 210.848 49.5516 210.848 49.884V67.7145C210.848 68.0469 210.585 68.3081 210.251 68.3081Z" fill="#031001"/>
<path d="M339.398 66.3258L334.556 61.5061C335.784 60.2003 336.536 58.4434 336.536 56.5202C336.536 52.4722 333.232 49.1838 329.164 49.1838C325.096 49.1838 321.792 52.4722 321.792 56.5202C321.792 60.5683 325.096 63.8566 329.164 63.8566C330.858 63.8566 332.42 63.2749 333.661 62.3134L338.552 67.1806C338.671 67.2993 338.826 67.3586 338.969 67.3586C339.112 67.3586 339.279 67.2993 339.386 67.1806C339.625 66.9431 339.625 66.5751 339.386 66.3377L339.398 66.3258ZM322.997 56.5084C322.997 53.1251 325.764 50.3591 329.176 50.3591C332.587 50.3591 335.355 53.1132 335.355 56.5084C335.355 59.9035 332.587 62.6576 329.176 62.6576C325.764 62.6576 322.997 59.9035 322.997 56.5084Z" fill="white"/>
<path d="M258.878 119.312H193.615C191.44 119.312 189.677 120.974 189.677 123.025V188.738C189.677 190.788 191.44 192.451 193.615 192.451H258.878C261.053 192.451 262.816 190.788 262.816 188.738V123.025C262.816 120.974 261.053 119.312 258.878 119.312Z" fill="#CBEDE1"/>
<path d="M342.772 119.312H277.509C275.334 119.312 273.571 120.974 273.571 123.025V188.738C273.571 190.788 275.334 192.451 277.509 192.451H342.772C344.947 192.451 346.71 190.788 346.71 188.738V123.025C346.71 120.974 344.947 119.312 342.772 119.312Z" fill="#CBEDE1"/>
<path d="M370.372 119.312H362.629C360.371 119.312 358.541 120.974 358.541 123.025V188.738C358.541 190.788 360.371 192.451 362.629 192.451H366.284H370.372V123.025V119.312Z" fill="#CBEDE1"/>
<path d="M253.136 173.083C252.165 164.716 246.425 149.428 236.676 149.428C227.718 149.428 220.953 164.064 220.953 164.064C220.953 164.064 217.884 157.132 212.165 157.132C204.664 157.132 200.433 168.445 200.433 173.09H253.128C253.132 173.09 253.136 173.087 253.136 173.083V173.083Z" fill="#0CC79F"/>
<path d="M337.03 173.083C336.059 164.716 330.319 149.428 320.57 149.428C311.612 149.428 304.847 164.064 304.847 164.064C304.847 164.064 301.778 157.132 296.059 157.132C288.558 157.132 284.327 168.445 284.327 173.09H337.023C337.026 173.09 337.03 173.087 337.03 173.083V173.083Z" fill="#0CC79F"/>
<path d="M216.029 147.277C219.296 147.277 221.944 144.628 221.944 141.361C221.944 138.094 219.296 135.446 216.029 135.446C212.761 135.446 210.113 138.094 210.113 141.361C210.113 144.628 212.761 147.277 216.029 147.277Z" fill="#FBF9ED"/>
<path d="M300.46 147.277C303.431 147.277 305.838 144.628 305.838 141.361C305.838 138.094 303.431 135.446 300.46 135.446C297.49 135.446 295.083 138.094 295.083 141.361C295.083 144.628 297.49 147.277 300.46 147.277Z" fill="#FBF9ED"/>
<path d="M202.434 274.114H251.104" stroke="black" stroke-width="0.75" stroke-linecap="round" stroke-linejoin="round"/>
<path d="M16.7357 274.114H42.2516" stroke="black" stroke-width="0.75" stroke-linecap="round" stroke-linejoin="round"/>
<path d="M16.7357 279.784H251.104" stroke="black" stroke-width="0.75" stroke-linecap="round" stroke-linejoin="round"/>
<path d="M162.998 139.062C173.762 143.711 183.307 145.119 187.087 148.38C181.719 152.254 169.765 171.703 165.833 186.748C161.902 201.793 167.251 217.925 167.251 217.925C167.251 217.925 170.266 227.715 175.737 231.647C175.737 231.647 187.03 268.89 161.571 274.154H66.2932C64.9796 272.85 63.8077 270.261 62.7398 266.679L70.1961 175.549C70.1961 175.549 69.2228 171.798 67.1248 163.774C65.0363 155.751 60.434 147.501 60.434 147.501C60.434 147.501 72.5304 141.103 77.5863 140.536C82.6422 139.96 89.1062 164.512 120.217 163.368C151.327 162.234 162.989 139.052 162.989 139.052L162.998 139.062Z" fill="#81B89E"/>
<path d="M51.1348 156.224L32.7729 216.611C32.7729 216.611 29.7866 226.08 28.1611 239.547C26.5357 253.014 27.9249 266.027 29.5503 273.455C31.1758 280.883 36.9783 287.621 43.9526 289.019C50.9175 290.409 61.7948 276.091 63.0895 269.741C64.3842 263.39 64.3842 256.038 64.3842 256.038C66.1419 241.106 70.6403 216.526 69.7709 199.128C68.4667 173.092 59.9709 156.214 51.1254 156.214L51.1348 156.224Z" fill="#088D73"/>
<path d="M153.699 53.6687C153.699 53.6687 154.663 50.2099 150.316 39.7484C145.969 29.2869 132.738 18.0221 130.196 17.2945C127.654 16.5668 98.859 16.0848 84.1638 40.6368C80.1379 47.4788 80.875 51.7787 80.875 51.7787C80.875 51.7787 84.2488 46.203 107.629 46.203C131.009 46.203 153.709 53.6687 153.709 53.6687H153.699Z" fill="#0B5243"/>
<path d="M138.739 113.338C137.586 108.566 138.739 100.174 138.739 100.174C138.739 100.174 126.832 122.401 111.626 120.757C96.4113 119.112 99.7945 118.016 99.7945 118.016C99.7945 118.016 93.2927 125.274 112.411 126.068C131.529 126.862 138.749 113.338 138.749 113.338" fill="#FFC5A9"/>
<path d="M84.2865 61.6353C84.2865 61.6353 83.0769 68.1844 83.0769 70.3013C83.0769 72.4181 85.2505 78.0883 84.9859 79.5248C84.7213 80.9612 84.0503 84.2027 84.0503 88.7105C84.0503 93.2183 86.7909 100.816 90.675 108.273C94.5685 115.729 102.535 122.098 109.339 122.098C116.144 122.098 129.743 117.591 135.98 106.137C135.98 106.137 140.856 97.1874 142.094 74.1287C143.332 51.0699 114.858 47.9891 103.471 47.9891C92.0831 47.9891 84.2865 61.6353 84.2865 61.6353Z" fill="#FFDDC5"/>
<path d="M113.299 71.0669C112.666 71.0669 112.401 70.3676 112.401 69.6116C112.401 68.8556 113.403 68.194 115.662 67.438C117.92 66.682 123.921 66.6442 125.981 67.0789C128.042 67.5136 133.835 71.3977 132.559 71.7946C131.292 72.201 128.353 68.9406 125.981 68.5248C123.609 68.109 117.92 68.6004 116.644 69.2714C115.369 69.9423 113.932 71.0575 113.299 71.0575V71.0669Z" fill="#031001"/>
<path d="M85.827 68.402C85.827 67.6081 88.9739 66.493 88.9739 66.493C88.9739 66.493 91.5633 65.4913 93.1509 66.2095C94.7386 66.9277 98.9818 68.1941 100.428 69.1485C101.883 70.103 102.261 71.2465 101.411 71.2465C100.56 71.2465 95.0599 68.6382 92.8391 67.8727C90.6183 67.1073 89.0306 67.6176 89.0306 67.6176C89.0306 67.6176 85.8175 69.1863 85.8175 68.3925L85.827 68.402Z" fill="#031001"/>
<path d="M103.745 97.9719C102.053 97.9719 99.7379 97.9719 99.7379 94.5604C99.7379 92.5474 100.844 88.1625 101.826 84.2879C102.365 82.1426 102.885 80.1108 103.149 78.7027C103.877 74.9131 102.45 72.6356 102.431 72.6073C102.327 72.4466 102.374 72.2198 102.535 72.1159C102.696 72.0119 102.923 72.0592 103.027 72.2198C103.093 72.3238 104.624 74.7714 103.839 78.835C103.565 80.262 103.055 82.3033 102.507 84.458C101.543 88.2948 100.447 92.6325 100.447 94.5604C100.447 97.2631 102.053 97.2632 103.745 97.2632C104.416 97.2632 104.983 97.0836 105.644 96.8851C106.542 96.6111 107.667 96.2614 109.453 96.2614C110.379 96.2614 110.993 95.9968 111.192 95.5148C111.456 94.8817 111.05 93.9083 110.171 93.0389C108.716 91.5835 108.158 91.6119 108.139 91.6119C107.95 91.6686 107.771 91.5552 107.723 91.3662C107.667 91.1771 107.799 90.9787 107.979 90.922C108.177 90.8653 108.942 90.8086 110.672 92.538C111.768 93.6342 112.222 94.8817 111.844 95.7889C111.664 96.2331 111.107 96.9702 109.453 96.9702C107.799 96.9702 106.75 97.2821 105.852 97.5656C105.172 97.7735 104.529 97.9719 103.745 97.9719Z" fill="black"/>
<path d="M112.94 79.3923C112.94 79.3923 112.902 79.3923 112.883 79.3923C112.694 79.3545 112.562 79.175 112.59 78.986C112.619 78.8442 113.242 75.4138 115.822 74.5538C118.412 73.6938 122.39 73.6087 124.592 74.034C124.781 74.0718 124.913 74.2514 124.876 74.4498C124.838 74.6388 124.649 74.7711 124.46 74.7333C122.343 74.3364 118.525 74.412 116.049 75.2342C113.866 75.9619 113.29 79.0805 113.29 79.1088C113.261 79.2789 113.11 79.4018 112.94 79.4018V79.3923Z" fill="black"/>
<path d="M86.876 77.1528C86.876 77.1528 86.8193 77.1528 86.8004 77.1528C86.6113 77.1055 86.4885 76.9165 86.5357 76.7275C86.772 75.7069 87.7359 73.779 89.6922 73.779C92.2815 73.779 94.852 74.4311 98.0273 75.8864C98.2069 75.9715 98.2825 76.1794 98.1974 76.3589C98.1124 76.5385 97.9045 76.6141 97.7249 76.529C94.6441 75.1209 92.1681 74.4878 89.6827 74.4878C87.8021 74.4878 87.2445 76.7842 87.2162 76.8881C87.1784 77.0488 87.0366 77.1622 86.876 77.1622V77.1528Z" fill="black"/>
<path d="M76.6129 69.3184C76.6129 69.3184 80.6482 57.8551 98.8684 56.6266C117.079 55.4075 144.287 64.8767 151.79 68.6001C159.294 72.3236 159.294 75.8674 159.294 75.8674C159.294 75.8674 158.774 62.911 157.026 58.8947C155.277 54.8877 153.709 53.6592 153.709 53.6592C153.709 53.6592 132.549 42.4984 106.854 42.4984C81.1585 42.4984 78.1911 56.7967 78.1911 56.7967C78.1911 56.7967 76.6224 61.0682 76.6224 69.3089L76.6129 69.3184Z" fill="#81B89E"/>
<path d="M87.5753 59.188C87.5753 59.188 84.5323 65.3118 85.827 79.0337C87.1217 92.765 89.6827 99.1723 89.6827 99.1723C89.6827 99.1723 87.632 101.639 85.5057 101.639C83.3794 101.639 81.4988 101.147 81.4988 101.147C81.4988 98.1139 81.1397 94.0975 80.8183 91.9711C80.7238 95.8836 80.4498 99.2857 79.8166 101.639L75.7719 100.458C76.7642 97.9059 76.8776 95.1843 76.613 92.3681C75.8853 95.3355 74.8174 97.802 73.2108 99.4747L70.8388 98.0949C73.7873 95.0614 76.1688 87.0381 76.613 80.9615C77.0477 74.8944 76.613 69.3187 76.613 69.3187C78.8432 64.5841 82.9163 61.1726 87.5659 59.188H87.5753Z" fill="#F9A600"/>
<path d="M132.738 61.7109C132.738 61.7109 135.98 69.7059 135.98 78.4096C135.98 87.1134 131.557 99.4082 131.557 99.4082L140.724 101.639C141.574 99.361 142.113 96.989 142.312 94.5035C142.519 97.0173 142.548 99.4082 142.312 101.639H150.392C150.514 99.843 150.543 98.1797 150.392 96.8094C151.129 98.3403 151.544 99.9564 151.686 101.639L157.886 100.703C157.413 98.2269 157.026 93.6435 157.886 90.4588C158.642 94.3901 160.343 97.2725 163.225 98.8223L165.531 96.8C165.531 96.8 159.275 90.6194 159.275 83.2387C159.275 75.858 158.85 74.4783 158.85 74.4783C155.258 68.0332 143.077 65.2548 132.738 61.692V61.7109Z" fill="#F9A600"/>
<path d="M138.229 107.186C138.229 107.186 142.576 107.044 144.674 109.142C146.772 111.24 146.697 113.338 145.685 118.47C144.674 123.601 143.512 129.007 151.185 133.004C158.85 137.011 163.48 135.896 163.48 137.777C162.176 154.268 144.428 163.964 123.118 166.421C101.808 168.878 77.6997 151.083 76.9721 140.527C76.9532 137.125 89.4087 136.766 92.4517 131.417C95.1639 128.071 94.0393 126.068 94.0393 126.068C94.0393 126.068 89.6827 118.819 89.6827 115.654C89.6827 112.488 92.5273 111.306 92.5273 111.306C93.1038 112.885 98.7267 117.941 100.343 118.99C100.343 118.99 100.777 120.048 100.777 122.675C102.8 124.253 110.568 126.077 112.411 126.077C129.78 126.077 138.749 113.348 138.749 113.348C138.371 111.911 138.238 109.775 138.238 107.196L138.229 107.186Z" fill="#0B5243"/>
<path d="M58.0336 167.876C55.3497 161.733 49.9725 155.147 50.1332 151.792C53.1573 149.051 56.446 147.17 60.434 147.511C60.434 147.511 66.3594 153.209 69.6197 169.142C72.8801 185.076 69.7709 211.612 69.7709 211.612C69.7709 211.612 60.7081 174.028 58.0242 167.886L58.0336 167.876Z" fill="#0B5243"/>
<path d="M64.8473 256.048L67.7391 235.162C67.7391 235.162 63.7889 237.723 57.7407 237.723C51.6925 237.723 48.262 232.658 48.262 232.658L41.1932 248.686C41.1932 248.686 44.6331 257.125 51.8437 258.363C59.0637 259.601 64.8473 256.038 64.8473 256.038V256.048Z" fill="#C9EBDF"/>
<path d="M178.128 246.115C177.599 237.676 174.433 231.779 174.32 223.831C170.833 213.313 171.853 199.156 174.32 192.447C178.771 181.872 183.978 167.762 192.965 156.233C198.437 161.705 204.041 177.619 204.315 195.924C204.589 214.23 208.511 241.191 205.865 256.057C203.219 270.922 201.915 284.36 193.05 287.29C184.186 290.21 154.72 270.279 152.461 267.369C150.193 264.458 149.503 260.376 149.503 260.376C158.963 257.21 164.709 250.84 165.455 240.152C165.455 240.152 172.798 243.412 174.424 244.357L178.138 246.115H178.128Z" fill="#088D73"/>
<path d="M197.511 152.254C198.068 155.723 197.908 159.73 197.738 163.623C196.443 160.807 194.931 158.255 192.984 156.223C194.298 154.74 195.98 153.18 197.511 152.245V152.254Z" fill="#031001"/>
<path d="M186.851 148.512C186.851 148.512 197.341 150.506 197.341 152.349C197.341 154.192 191.264 150.771 174.093 192.929C169.528 208.494 174.093 223.227 174.093 223.227L175.501 231.779C170.029 227.838 167.015 218.057 167.015 218.057C167.015 218.057 161.666 201.926 165.597 186.881C169.528 171.836 181.483 152.387 186.851 148.512Z" fill="#0B5243"/>
<path d="M198.947 255.169C198.853 255.169 198.768 255.131 198.692 255.065C193.268 249.64 184.214 249.121 184.12 249.111C184.082 249.111 184.054 249.111 184.016 249.092C183.987 249.083 180.859 247.977 178.015 246.787C177.835 246.711 177.75 246.503 177.826 246.323C177.901 246.144 178.109 246.059 178.289 246.134C180.926 247.24 183.808 248.27 184.205 248.412C185.036 248.459 193.721 249.102 199.184 254.564C199.325 254.706 199.325 254.923 199.184 255.065C199.117 255.131 199.023 255.169 198.928 255.169H198.947Z" fill="#0B5243"/>
<path d="M149.607 260.29L138.21 244.848C137.747 244.225 137.936 243.327 138.616 242.949C143.606 240.151 146.876 236.267 148.001 231.013C148.19 230.115 149.201 229.671 149.976 230.162L165.559 240.066C165.162 249.725 159.984 256.548 149.607 260.29Z" fill="#C9EBDF"/>
<path d="M138.645 242.808L136.093 239.396C136.093 239.396 129.544 239.037 128.259 236.74C126.974 234.444 128.259 231.77 128.259 230.673C128.259 229.577 127.503 228.273 127.503 228.273C127.503 228.273 122.371 227.375 120.169 228.273C117.977 229.171 115.407 232.762 112.458 231.77C109.51 230.777 113.932 227.99 114.736 226.884C115.539 225.778 118.204 224.02 119.914 223.349C121.634 222.669 128.259 222.461 128.259 222.461C128.259 222.461 123.487 220.694 121.814 220.694C120.141 220.694 116.928 220.694 113.592 222.206C110.247 223.718 105.701 220.694 108.168 219.428C110.625 218.161 116.323 215.855 119.158 215.364C122.003 214.872 129.818 215.884 129.818 215.884C129.818 215.884 121.937 210.45 120.746 210.45C119.555 210.45 115.218 211.763 112.212 212.472C109.207 213.181 106.901 211.47 106.901 210.45C106.901 209.637 110.209 208.201 112.571 207.426C112.571 207.426 110.634 206.603 111.305 205.29C111.976 203.976 122.475 201.084 124.961 201.623C127.446 202.162 134.94 207.18 136.235 209.259C137.53 211.329 143.162 224.88 143.833 226.714C144.504 228.547 148.142 230.409 148.142 230.409C148.142 230.409 147.613 234.085 144.929 237.695C142.378 241.125 138.654 242.798 138.654 242.798L138.645 242.808Z" fill="#FFDDC5"/>
<path d="M133.192 211.527C133.126 211.527 133.05 211.508 132.984 211.461C132.918 211.413 126.293 206.754 124.384 205.724C122.919 204.93 118.336 206.131 115.879 206.773C115.274 206.934 114.764 207.066 114.386 207.151C113.989 207.236 113.46 207.387 112.874 207.586C112.685 207.643 112.486 207.548 112.43 207.359C112.373 207.17 112.467 206.972 112.656 206.915C113.261 206.716 113.809 206.556 114.235 206.461C114.603 206.376 115.104 206.244 115.699 206.093C119.394 205.119 123.137 204.25 124.715 205.11C126.652 206.159 133.107 210.705 133.381 210.894C133.542 211.007 133.579 211.224 133.466 211.385C133.4 211.479 133.286 211.536 133.173 211.536L133.192 211.527Z" fill="#EDB095"/>
<path d="M61.5587 274.362H162.034" stroke="black" stroke-width="0.75" stroke-linecap="round" stroke-linejoin="round"/>
<path d="M100.154 105.778C100.154 105.778 101.893 103.462 103.471 103.67C104.34 103.784 105.257 104.719 105.257 104.719C105.257 104.719 105.985 103.821 107.723 103.661C109.462 103.5 115.577 105.778 115.577 105.778C115.577 105.778 110.681 110.682 105.323 109.898C102.091 109.416 100.163 105.778 100.163 105.778H100.154Z" fill="#C42C2C"/>
<path d="M105.871 107.308C104.879 107.308 104.094 106.826 103.471 106.439C103.017 106.165 102.63 105.919 102.299 105.919C101.373 105.919 99.8985 106.288 99.8796 106.288C99.6906 106.335 99.5016 106.222 99.4544 106.033C99.4071 105.844 99.5205 105.655 99.7095 105.598C99.7757 105.579 101.278 105.21 102.299 105.21C102.828 105.21 103.32 105.513 103.839 105.834C104.454 106.212 105.077 106.6 105.871 106.6C106.57 106.6 107.09 106.25 107.648 105.881C108.243 105.485 108.857 105.078 109.699 105.078C110.54 105.078 111.693 105.239 112.836 105.399C113.809 105.532 114.736 105.664 115.274 105.664C116.352 105.664 117.977 104.776 117.996 104.766C118.166 104.672 118.383 104.738 118.478 104.908C118.572 105.078 118.506 105.295 118.336 105.39C118.261 105.428 116.541 106.373 115.274 106.373C114.688 106.373 113.743 106.241 112.742 106.108C111.626 105.957 110.473 105.796 109.699 105.796C109.065 105.796 108.564 106.127 108.035 106.477C107.449 106.874 106.778 107.308 105.862 107.308H105.871Z" fill="black"/>
<path d="M113.261 80.8855C113.261 80.8855 116.399 76.9353 119.98 76.803C123.562 76.6707 130.924 78.3717 130.924 78.3717C130.924 78.3717 126.841 82.1519 120.793 82.4259C114.745 82.7 113.252 80.8855 113.252 80.8855H113.261Z" fill="white"/>
<path d="M113.29 80.5074C113.29 80.5074 113.611 78.2488 117.646 76.6328C121.681 75.0168 131.151 77.6629 131.548 78.4189C131.945 79.1749 123.127 76.3871 118.213 78.2488C115.548 78.9765 112.968 82.1234 113.29 80.5074Z" fill="#031001"/>
<path d="M117.145 78.0699C117.145 78.0699 117.004 80.8199 118.487 81.6704C119.971 82.521 122.787 82.5682 123.921 80.9617C125.046 79.3646 124.271 76.8035 124.271 76.8035H120.321L117.145 78.0699Z" fill="#031001"/>
<path d="M86.9422 78.7407C86.9422 78.7407 89.2102 76.1796 91.9886 76.1796C94.767 76.1796 100.56 79.714 100.56 79.714C100.56 79.714 96.9879 81.349 92.7447 80.8008C88.5015 80.2527 86.9422 78.7501 86.9422 78.7501V78.7407Z" fill="white"/>
<path d="M86.9421 78.9104C86.583 78.5512 87.5469 76.6423 90.9112 75.8768C95.3812 74.8562 101.902 79.8837 100.56 79.8837C99.218 79.8837 94.8142 76.595 91.1947 77.3321C88.1801 77.9464 87.5469 79.5152 86.9421 78.9198V78.9104Z" fill="#031001"/>
<path d="M90.1175 76.803C90.1175 76.803 90.1836 79.5341 91.7618 80.2429C93.34 80.9611 94.5875 80.9611 95.7499 79.7987C96.9122 78.6363 95.7499 77.077 95.7499 77.077L90.1175 76.7935V76.803Z" fill="#031001"/>
<path d="M22.9634 142.549L89.711 142.804L109.991 226.638H44.8031L22.9634 142.549Z" fill="#088D73"/>
<path d="M66.4822 230.343C66.416 230.664 66.3593 230.928 66.3026 231.127C66.0096 232.166 65.3954 233.272 64.6393 234.066" stroke="#EDB095" stroke-width="0.75" stroke-linecap="round" stroke-linejoin="round"/>
<path d="M47.3358 226.638H44.8031C45.7198 230.55 48.2619 232.658 48.2619 232.658C48.2619 232.658 52.4106 237.723 57.7406 237.723C63.0706 237.723 67.739 235.162 67.739 235.162L70.3662 232.611L68.5612 232.355L47.3263 226.647L47.3358 226.638Z" fill="#FFC5A9"/>
<path d="M46.9484 228.849C46.9484 228.849 50.0008 232.658 52.2311 231.665C54.4614 230.673 57.3343 220.174 58.5723 216.044C59.8103 211.914 56.4554 211.234 55.2836 213.105C54.1117 214.986 51.2388 220.826 50.5868 222.149C49.9347 223.462 48.2336 225.315 48.2336 225.315C48.2336 225.315 46.4192 227.328 46.9389 228.84L46.9484 228.849Z" fill="#FFDDC5"/>
<path d="M57.1452 221.119C57.1452 221.119 59.8197 215.401 60.7742 213.36C61.7286 211.319 64.7622 210.308 64.4881 214.655C64.3842 216.28 63.7983 218.643 62.9005 221.563C61.3884 226.43 59.7535 232.043 59.4889 232.676C59.0636 233.678 57.561 234.973 55.3686 234.491C53.1855 234.009 53.1855 230.9 53.1855 230.9" fill="#FFDDC5"/>
<path d="M64.3464 216.602C65.3198 214.324 67.9659 215.317 67.9659 217.49C67.9659 219.664 66.898 229.057 66.3027 231.136C65.7073 233.215 63.8267 235.597 62.154 235.096C60.4813 234.595 59.6213 232.677 59.6213 232.677" fill="#FFDDC5"/>
<path d="M66.2553 230.361C66.2553 230.361 69.5535 226.213 72.0673 225.23C74.5811 224.247 76.3294 225.277 74.1275 227.923C71.9161 230.56 70.6308 234.037 67.739 235.172C64.8472 236.306 64.4125 234.075 64.4125 234.075" fill="#FFDDC5"/>
<path d="M59.4795 233.017C59.4795 233.017 59.385 233.017 59.3378 232.989C59.1582 232.913 59.0732 232.705 59.1488 232.525C59.2905 232.185 59.9142 230.135 60.623 227.763C61.2089 225.835 61.8894 223.567 62.5509 221.45C63.1746 219.456 63.5999 217.849 63.855 216.554C63.8928 216.365 64.0818 216.243 64.2708 216.28C64.4599 216.318 64.5922 216.507 64.5449 216.696C64.2803 218.019 63.8456 219.645 63.2219 221.667C62.5603 223.784 61.8799 226.043 61.3034 227.97C60.5191 230.56 59.952 232.44 59.8008 232.809C59.7441 232.941 59.6118 233.026 59.4701 233.026L59.4795 233.017Z" fill="#EDB095"/>
<path d="M53.1194 231.202C53.0438 231.202 52.9682 231.183 52.9115 231.136C52.7508 231.023 52.7225 230.796 52.8359 230.635C53.7998 229.34 54.9338 226.619 56.3041 222.328C56.3608 222.139 56.5593 222.045 56.7483 222.102C56.9373 222.158 57.0413 222.357 56.9751 222.546C55.5765 226.912 54.4046 229.7 53.4029 231.06C53.3367 231.155 53.2233 231.202 53.1194 231.202Z" fill="#EDB095"/>
<path d="M22.9634 142.549L25.5528 140.007L92.376 139.062L111.787 223.68L109.991 226.638L89.711 142.804L22.9634 142.549Z" fill="#D1B000"/>
<path d="M65.6596 190.391C68.9391 189.271 70.5322 185.244 69.2179 181.396C67.9036 177.549 64.1796 175.338 60.9001 176.458C57.6206 177.578 56.0274 181.605 57.3417 185.453C58.656 189.301 62.3801 191.511 65.6596 190.391Z" fill="#F9F7EB"/>
<path d="M33.958 155.302C35.564 154.637 36.1783 152.437 35.3301 150.387C34.482 148.338 32.4925 147.215 30.8866 147.879C29.2806 148.544 28.6663 150.744 29.5145 152.794C30.3626 154.844 32.3521 155.966 33.958 155.302Z" fill="#D1B000"/>
<path d="M453.392 138.984C453.392 138.984 478.502 148.669 481.758 151.935C485.013 155.201 489.368 164.673 491.942 180.179C494.516 195.684 493.509 237.957 491.942 249.8C490.375 261.632 485.512 269.446 482.388 272.58C479.265 275.713 474.697 273.76 474.697 273.76C474.839 276.181 475.104 279.416 475.531 281.095H389.418C391.829 274.991 393.06 266.333 390.272 253.941C388.614 260.401 385.419 270.046 381.604 272.936C378.328 275.418 371.013 275.001 371.674 271.003C377.626 266.567 371.623 250.756 362.619 253.055C370.402 245.272 366.648 216.744 366.648 198.644C366.648 180.545 373.648 165.792 375.784 161.977C377.921 158.162 391.513 152.149 391.513 152.149L453.392 138.994V138.984Z" fill="#088D73"/>
<path d="M260.105 194.605L261.916 191.899C262.181 191.502 262.618 191.268 263.096 191.258L311.647 190.546C312.634 190.536 313.58 190.943 314.241 191.665L371.053 253.493C371.409 253.879 371.471 254.459 371.206 254.917L369.599 257.624L313.071 195.531C312.369 194.768 311.372 194.331 310.334 194.331L260.095 194.605H260.105Z" fill="#0B5243"/>
<path d="M260.186 195.399L320.234 254.337C320.732 254.826 321.394 255.121 322.096 255.161L368.937 258.01C369.497 258.041 369.812 257.379 369.436 256.972L313.132 195.602C312.39 194.799 311.352 194.341 310.253 194.341H260.624C260.064 194.341 259.79 195.012 260.186 195.409V195.399Z" fill="#088D73"/>
<path d="M311.682 226.155C313.128 225.023 312.731 222.099 310.795 219.626C308.859 217.153 306.116 216.067 304.669 217.199C303.223 218.332 303.62 221.255 305.556 223.728C307.492 226.201 310.235 227.288 311.682 226.155Z" fill="#FBD300"/>
<path d="M274.795 202.988C275.724 202.131 275.287 200.147 273.819 198.558C272.352 196.968 270.409 196.375 269.48 197.233C268.551 198.091 268.988 200.074 270.456 201.664C271.923 203.253 273.866 203.846 274.795 202.988Z" fill="#0B5243"/>
<path d="M441.214 130.102C441.214 130.102 432.729 127.345 419.065 130.763C405.401 134.182 399.225 141.609 399.225 141.609C401.026 151.966 406.693 161.682 415.789 170.839L441.214 130.092V130.102Z" fill="#088D73"/>
<path d="M400.049 130.692C400.049 130.692 406.805 140.723 405.93 147.591C405.055 154.458 401.179 158.508 401.179 158.508C401.179 158.508 398.014 173.82 415.087 175.051C432.159 176.282 446.25 140.51 446.25 140.51C446.25 140.51 440.115 139.859 430.042 130.692C419.97 121.525 418.953 98.9893 418.953 98.9893L413.479 100.403L400.049 130.692Z" fill="#703D22"/>
<path d="M362.507 79.2618C362.507 79.2618 363.474 89.2222 364.623 93.5258C365.773 97.8295 369.639 102.703 369.639 102.703C369.639 102.703 369.497 108.299 371.501 113.742C373.505 119.185 381.39 127.365 383.69 129.654C385.989 131.943 389.713 136.532 395.878 134.385C402.044 132.238 411.078 123.916 413.947 117.465C416.816 111.015 416.816 108.004 416.816 100.119C416.816 92.2337 409.359 68.8639 402.766 65.9948C396.173 63.1257 383.415 62.0879 373.373 67.1444C363.341 72.201 362.517 79.2618 362.517 79.2618H362.507Z" fill="#915131"/>
<path d="M399.205 85.9157C398.676 85.7122 395.369 84.2776 392.022 84.8067C388.675 85.3357 381.502 91.2367 380.302 91.9896C379.101 92.7425 380.322 94.1668 381.929 93.3529C383.537 92.539 389.845 86.6279 392.704 86.17C395.563 85.7122 399.51 86.5973 400.06 86.5973C400.609 86.5973 399.734 86.1192 399.205 85.9157Z" fill="black"/>
<path d="M373.658 93.5969C374.818 94.3396 375.326 94.9907 374.279 94.9907C373.047 94.9907 368.754 93.4137 366.811 93.9937C365.58 94.3599 365.254 95.3468 365.254 95.3468C364.827 95.5605 364.186 94.3294 364.633 93.5257C364.633 93.5257 365.244 92.7219 366.109 92.4777C367.686 92.0301 372.651 92.9254 373.668 93.6071L373.658 93.5969Z" fill="black"/>
<path d="M376.181 96.507C376.181 96.507 377.249 97.5752 377.809 99.6609C378.368 101.747 378.653 108.197 378.653 111.453C378.653 114.708 380.444 116.438 382.224 116.438C384.005 116.438 384.931 114.271 386.497 113.426C388.064 112.582 389.061 112.44 389.061 110.568C389.061 107.963 385.124 107.882 385.124 107.882" stroke="#241E20" stroke-width="0.75" stroke-linecap="round" stroke-linejoin="round"/>
<path d="M362.507 82.0901C362.507 82.0901 360.208 79.516 360.208 72.1907C360.208 68.0295 363.402 62.6779 367.899 57.9368C367.899 55.9732 370.891 53.1855 373.119 53.1855C374.757 50.5504 377.412 49.2888 379.589 48.9938C373.556 45.8195 376.171 41.1394 376.171 41.1394C373.393 41.1394 373.556 33.9565 376.954 33.9565C374.126 31.1281 376.7 23.4975 381.421 25.0338C378.684 18.8785 386.101 14.697 388.39 16.976C386.884 10.9529 396.682 6.67978 400.049 13.4252C401.219 8.9079 408.708 9.48783 409.522 14.3816C412.798 8.52129 422.951 14.1984 419.889 19.2956C423.959 16.0908 429.402 22.938 425.698 26.6515C431.67 25.4611 433.176 35.6454 428.832 36.3474C433.746 37.843 431.386 45.8398 428.384 44.8122C431.314 47.7424 428.893 55.5357 422.056 52.5038C422.056 52.5038 424.406 53.1652 424.793 56.3395C426.767 57.1331 428.476 60.0937 427.713 62.6779C429.615 62.6779 432.464 67.5818 430.846 70.746C433.787 72.5468 432.922 78.051 431.894 79.4753C434.458 80.7064 434.855 85.1932 433.237 86.8109C435.211 88.2149 433.319 95.2045 431.03 95.3673C431.03 98.3686 429.066 101.584 425.658 101.746C420.571 106.437 416.806 100.108 416.806 100.108L413.988 86.2411C413.988 86.2411 413.377 89.6494 412.187 93.8513C410.997 98.0532 408.84 97.3512 408.84 97.3512C408.84 97.3512 407.955 82.2834 405.33 77.2269C402.705 72.1703 397.893 66.9816 390.252 67.765C382.611 68.5484 372.101 67.3784 372.101 67.3784C372.101 67.3784 370.29 69.7184 367.228 70.6137C364.165 71.509 362.497 82.0799 362.497 82.0799L362.507 82.0901Z" fill="#031001"/>
<path d="M441.214 130.102C447.003 135.341 450.92 138.129 453.382 138.984C453.382 138.984 424.701 170.564 419.96 197.861C415.219 225.158 425.067 281.085 425.067 281.085H413.469C413.469 281.085 403.163 218.26 408.321 191.94C413.479 165.619 441.214 130.102 441.214 130.102Z" fill="#C9EBDF"/>
<path d="M399.225 141.619C395.827 147.357 393.294 150.776 391.503 152.149C393.752 166.077 402.033 175.865 409.806 185.988L415.789 170.859C409.532 163.564 402.746 158.081 399.225 141.629V141.619Z" fill="#C9EBDF"/>
<path d="M456.597 245.201C456.597 245.201 412.553 248.243 403.651 246.198C394.749 244.153 387.678 239.514 382.458 235.566C377.239 231.619 369.079 228.383 366.617 229.492C365.224 230.123 362.751 233.267 360.482 235.597C358.763 237.367 356.881 238.405 357.257 239.117C358.122 240.765 360.432 239.962 360.432 239.962C360.615 240.948 361.429 241.376 362.212 241.447C363.484 241.559 365.02 241.142 365.02 241.142C365.02 241.142 366.017 242.586 368.723 242.586C371.43 242.586 374.716 241.071 376.212 242.098C377.707 243.126 378.531 244.397 381.024 247.846C383.517 251.295 388.726 257.766 393.192 258.407C397.658 259.048 403.081 256.271 403.081 256.271L456.587 266.567C461.084 264.43 462.437 249.851 456.587 245.201H456.597Z" fill="#915131"/>
<path d="M385.816 243.868C380.373 239.961 377.097 237.163 374.197 237.163C372.508 237.163 370.046 238.74 365.315 239.605C364.501 239.605 364.288 240.419 365.02 241.141" stroke="#743A26" stroke-width="0.5" stroke-miterlimit="10" stroke-linecap="round"/>
<path d="M384.259 238.934C376.588 235.312 373.048 232.046 370.84 232.473C368.581 232.717 367.452 234.447 365.234 236.003C363.545 237.194 361.185 238.293 360.91 238.578C360.269 239.218 360.442 239.961 360.442 239.961" stroke="#743A26" stroke-width="0.5" stroke-miterlimit="10" stroke-linecap="round"/>
<path d="M364.013 231.771C364.013 231.771 359.597 234.091 356.423 234.61C353.249 235.128 354.154 236.919 356.169 237.214C358.183 237.509 359.882 236.207 359.882 236.207C360.889 235.22 362.324 233.674 364.023 231.771H364.013Z" fill="#703D22"/>
<path d="M377.626 175.071C377.626 175.071 381.36 186.466 381.36 191.767C381.36 197.067 377.626 201.778 377.626 212.786C377.626 223.795 386.03 229.797 387.251 234.518C387.688 236.207 388.329 239.219 388.329 239.219" stroke="#0B5243" stroke-width="0.75" stroke-linecap="round" stroke-linejoin="round"/>
<path d="M477.912 157.561C469.203 163.798 460.494 176.729 460.494 193.384C460.494 210.039 463.424 239.971 463.424 239.971" stroke="#0B5243" stroke-width="0.75" stroke-linecap="round" stroke-linejoin="round"/>
<path d="M452.71 245.455C452.71 245.455 453.239 242.139 455.203 241.223C457.167 240.307 458.347 239.961 464.767 239.961C471.186 239.961 478.135 248.396 478.827 257.481" stroke="#0B5243" stroke-width="0.75" stroke-linecap="round" stroke-linejoin="round"/>
<path d="M453.392 266.566C453.392 266.566 453.484 268.154 455.488 270.158C457.492 272.162 465.774 271.613 474.697 273.749" stroke="#0B5243" stroke-width="0.75" stroke-linecap="round" stroke-linejoin="round"/>
<path d="M374.604 271.318C374.604 271.318 371.206 271.592 364.013 269.161L327.396 256.83C327.396 256.83 325.188 257.339 321.139 256.362C317.09 255.385 312.807 251.946 311.352 251.946C309.897 251.946 305.481 252.486 303.935 252.486C302.388 252.486 301.371 248.446 301.89 247.928C300.883 247.409 300.74 245.984 300.74 245.984C299.59 244.835 298.878 242.535 298.878 241.131C297.464 238.649 296.701 235.708 297.118 234.528C297.118 234.528 298.074 232.025 299.336 229.289C300.598 226.552 300.994 222.909 302.012 222.645C303.029 222.38 303.925 224.547 303.925 226.603C303.925 228.658 301.88 234.538 301.88 234.538C301.88 234.538 307.597 233.155 309.917 232.463C312.237 231.771 313.112 231.039 313.875 231.791C314.638 232.544 313.875 234.528 313.875 234.528C313.875 234.528 316.591 233.043 317.324 234.528C318.056 236.014 316.663 237.631 314.923 238.608C313.183 239.585 307.15 242.393 306.733 243.186C306.315 243.98 306.733 245.74 306.733 245.74C306.733 245.74 312.267 243.186 313.753 243.186C315.238 243.186 316.083 244.692 315.289 245.486C314.495 246.279 312.725 247.022 312.725 247.022L320.142 254.164L369.608 257.166L371.409 254.551C376.934 258.081 379.66 268.174 374.604 271.338V271.318Z" fill="#915131"/>
<path d="M396.702 116.743C392.419 118.636 388.909 118.849 387.841 119.46C386.772 120.07 386.253 121.851 386.253 121.851C386.253 121.851 382.703 121.016 381.94 120.986C381.177 120.955 381.115 122.349 381.115 122.349C381.115 122.349 385.836 126.103 389.824 124.903C393.518 123.794 396.193 117.608 396.193 117.608L396.702 116.733V116.743Z" fill="#5B1A0B"/>
<path d="M413.479 88.1333C413.479 88.1333 414.863 81.0318 418.831 80.3298C422.799 79.6278 426.472 83.3312 426.472 89.2321C426.472 95.1331 423.501 101.034 420.723 102.631C417.946 104.229 415.768 101.227 415.768 101.227C415.636 96.649 414.934 92.264 413.489 88.1232L413.479 88.1333Z" fill="#915131"/>
<path d="M397.76 94.1157C397.76 94.1157 389.814 95.591 388.37 95.9674C386.925 96.3438 386.243 96.5575 385.592 97.6156C384.941 98.6737 385.46 100.525 385.46 100.525C385.46 100.525 387.851 101.482 389.804 100.973C391.758 100.464 391.788 100.057 393.528 98.8365C395.268 97.6156 397.76 94.1259 397.76 94.1259V94.1157Z" fill="white"/>
<path d="M399.887 93.5969C399.887 93.5969 396.163 94.2074 393.212 94.5431C390.262 94.8789 387.22 95.4181 385.674 96.5169C384.127 97.6157 384.626 100.291 384.626 100.291C384.91 100.892 385.643 101.461 385.643 100.882C385.643 100.882 385.083 98.9688 386.447 97.7174C388.044 96.2422 394.159 95.6724 397.557 94.8076C400.955 93.9428 399.877 93.6071 399.877 93.6071L399.887 93.5969Z" fill="black"/>
<path d="M385.857 100.861C385.857 100.861 388.41 101.187 390.791 100.271C393.172 99.3554 396.987 95.1433 397.13 95.2044C397.272 95.2654 397.109 95.5096 396.916 95.764C396.723 96.0183 394.22 99.5792 391.208 100.882C388.197 102.184 386.182 101.156 385.979 101.044C385.775 100.932 385.846 100.871 385.846 100.871L385.857 100.861Z" fill="black"/>
<path d="M390.079 95.9373C390.079 95.9373 390.954 96.1814 391.524 97.0869C392.093 97.9924 391.676 99.6813 390.14 100.058C388.38 100.495 387.22 99.5694 386.752 98.847C386.172 97.9619 386.457 96.8427 386.457 96.8427L390.089 95.9373H390.079Z" fill="black"/>
<path d="M383.893 99.264C383.893 99.264 383.415 96.6899 384.9 95.2045C386.386 93.7191 394.291 92.3456 394.291 92.3456" stroke="#241E20" stroke-width="0.75" stroke-linecap="round" stroke-linejoin="round"/>
<path d="M376.313 101.736C376.313 101.736 373.749 99.6709 371.562 99.6709C369.375 99.6709 367.899 100.373 367.899 100.373C369.161 102.275 370.494 103.985 372.101 104.829C372.101 104.829 373.983 104.331 374.736 103.578C375.489 102.825 376.303 101.736 376.303 101.736H376.313Z" fill="white"/>
<path d="M376.954 101.533C375.225 99.803 373.363 98.8263 370.657 99.0094C369.019 99.1112 367.808 99.6708 367.014 99.8946C366.221 100.118 367.452 100.77 368.123 100.627C368.795 100.485 369.731 100.047 371.379 100.047C374.065 100.047 375.825 101.461 375.825 101.461C375.825 101.461 376.954 102.224 376.954 101.533Z" fill="black"/>
<path d="M376.008 101.818C374.665 103.649 372.905 104.402 371.857 104.514C370.809 104.626 370.209 104.514 370.209 104.514C369.934 104.453 370.067 104.677 370.453 104.799C370.84 104.921 371.053 104.972 371.979 104.972C373.566 104.972 375.856 103.14 376.171 101.981C376.212 101.828 376.171 101.655 376.008 101.828V101.818Z" fill="black"/>
<path d="M369.67 99.6606C369.67 99.6606 369.436 100.861 370.229 102.102C371.023 103.344 371.979 103.863 373.119 103.669C374.258 103.476 374.36 102.204 374.258 101.746C374.156 101.288 373.861 100.302 372.824 99.8946C371.42 99.2639 371.226 99.6606 371.226 99.6606H369.67Z" fill="black"/>
<path d="M313.6 234.63C309.246 236.441 304.739 236.99 303.487 238.242C302.236 239.493 301.849 242.515 300.832 245.689" stroke="#743A26" stroke-width="0.5" stroke-miterlimit="10" stroke-linecap="round"/>
<path d="M306.733 245.72L301.89 247.917" stroke="#743A26" stroke-width="0.5" stroke-miterlimit="10" stroke-linecap="round"/>
<path d="M312.725 247.002C312.725 247.002 309.764 248.65 308.228 249.25" stroke="#743A26" stroke-width="0.5" stroke-miterlimit="10" stroke-linecap="round"/>
<path d="M415.422 170.971C413.367 175.641 411.76 179.507 409.817 185.428" stroke="#81B89E" stroke-width="0.75" stroke-linecap="round" stroke-linejoin="round"/>
<path d="M297.016 281.095H521.07" stroke="black" stroke-width="0.75" stroke-linecap="round" stroke-linejoin="round"/>
<path d="M367.899 57.937C364.837 56.36 357.247 62.1389 358.692 67.175C356.057 66.5137 352.791 69.9933 353.707 73.951C349.942 73.951 348.121 84.0538 353.025 85.4477C352.15 87.5232 354.877 91.3792 358.081 91.3792C356.779 95.3979 362.507 97.6159 365.244 95.3369C364.257 84.3794 364.247 74.6835 368.082 71.906C366.75 74.8565 367.208 77.7561 369.659 79.0889C368.072 81.1135 369.659 84.6948 372.111 84.6948C371.521 86.7907 374.848 90.0362 378.114 88.3778C379.274 91.1248 384.839 91.6742 385.846 89.1511C389.051 91.6844 391.768 89.5885 391.768 86.4651C393.63 85.8038 393.528 82.7414 391.513 81.7647C392.653 78.7328 390.028 77.8985 389.072 76.9422C388.309 76.1791 388.512 73.4931 389.407 72.608C389.875 75.7416 391.585 77.634 395.675 77.1762C395.675 80.9914 399.47 83.0059 403.6 81.1339C401.993 83.7486 402.054 87.6656 406.174 89.1511C403.57 91.7251 405.055 97.3615 408.84 97.3615L411.119 71.438L395.38 61.1621L367.899 57.937Z" fill="#031001"/>
<path d="M422.432 83.6467C422.432 83.6467 421.486 82.6191 419.35 82.6191C417.213 82.6191 416.297 86.9737 416.297 88.0623C416.297 89.1509 416.145 91.8063 416.806 92.4778C417.467 93.1493 417.467 92.9967 418.526 92.9967C419.706 92.9967 419.858 93.9531 419.858 94.9705C419.858 95.9879 418.627 97.5852 418.627 97.5852C418.627 97.5852 419.268 98.5721 420.489 98.216C421.71 97.8599 422.443 96.9849 422.697 95.8149C422.951 94.6449 423.145 93.1798 421.649 91.6843C420.774 90.8093 419.177 91.3587 418.363 89.1509C417.549 86.9431 418.688 84.42 419.96 83.9621C421.232 83.5043 422.799 84.7048 423.134 84.7048C423.47 84.7048 422.422 83.6569 422.422 83.6569L422.432 83.6467Z" fill="#743A26"/>
<path d="M368.499 98.0635C368.499 98.0635 370.707 97.5039 372.671 98.0635C374.634 98.6231 376.181 100.18 376.181 100.18" stroke="#241E20" stroke-width="0.75" stroke-linecap="round" stroke-linejoin="round"/>
<path d="M385.378 124.933C385.378 124.933 386.67 122.44 388.075 122.237C389.479 122.033 390.404 122.237 390.404 122.237C390.404 122.237 391.839 119.866 393.711 119.866H395.766C395.766 119.866 394.25 123.834 391.005 125.055C387.759 126.276 385.378 124.923 385.378 124.923V124.933Z" fill="#4F1107"/>
<path d="M396.875 116.601C392.592 118.493 389.082 118.707 388.013 119.317C386.945 119.928 386.426 121.708 386.426 121.708C386.426 121.708 382.875 120.874 382.112 120.843C381.349 120.813 381.288 122.207 381.288 122.207C381.288 122.207 383.425 123.377 387.413 122.176C391.106 121.067 395.776 117.496 395.776 117.496L396.875 116.59V116.601Z" fill="#E5E1DF"/>
<path d="M396.489 117.913C396.489 117.913 392.032 123.041 388.034 123.997C384.89 124.75 382.642 123.733 382.642 123.733C382.642 123.733 385.999 126.459 389.418 125.788C392.836 125.116 395.532 118.625 396.193 117.618C396.855 116.611 396.489 117.913 396.489 117.913Z" fill="#E5E1DF"/>
<path d="M399.134 115.41C398.645 115.899 397.109 117.384 394.698 118.524C392.287 119.663 390.496 119.551 389.529 120.111C388.563 120.67 388.512 121.525 387.24 122.074C385.969 122.624 384.33 122.105 383.272 122.105C382.214 122.105 382.53 122.939 381.563 123.275C380.597 123.611 378.979 123.519 379.823 122.959C380.668 122.4 381.319 120.314 382.804 120.314C384.29 120.314 385.032 120.935 385.836 120.935C386.64 120.935 386.64 118.91 387.851 118.371C389.061 117.832 392.032 117.547 393.833 117.109C395.634 116.672 397.465 115.278 397.801 114.952C398.137 114.627 399.612 114.932 399.124 115.42L399.134 115.41Z" fill="#7F2813"/>
<path d="M396.163 117.302C396.163 117.302 393.752 123.651 389.417 124.902C385.083 126.154 382.255 122.501 382.255 122.501L380.953 122.898C383.598 124.068 384.534 128.819 390.272 127.141C396.01 125.462 395.939 120.67 398.706 115.573C397.516 115.786 396.173 117.313 396.173 117.313L396.163 117.302Z" fill="#7F2813"/>
</svg>
