<svg width="472" height="398" viewBox="0 0 472 398" fill="none" xmlns="http://www.w3.org/2000/svg">
<g clip-path="url(#clip0_12_1229)">
<path d="M453.487 0.399658H37.1948C26.9704 0.399658 18.6819 8.65479 18.6819 18.838V307.172C18.6819 317.356 26.9704 325.611 37.1948 325.611H453.487C463.712 325.611 472 317.356 472 307.172V18.838C472 8.65479 463.712 0.399658 453.487 0.399658Z" fill="#0B3052"/>
<path d="M449.168 0.399658H32.8752C22.6508 0.399658 14.3623 8.65479 14.3623 18.838V307.172C14.3623 317.356 22.6508 325.611 32.8752 325.611H449.168C459.392 325.611 467.68 317.356 467.68 307.172V18.838C467.68 8.65479 459.392 0.399658 449.168 0.399658Z" fill="white" stroke="#0B3052" stroke-width="0.75" stroke-miterlimit="10"/>
<path d="M443.866 46.1538H339.548C333.389 46.1538 328.396 51.1267 328.396 57.261V207.618C328.396 213.752 333.389 218.725 339.548 218.725H443.866C450.025 218.725 455.018 213.752 455.018 207.618V57.261C455.018 51.1267 450.025 46.1538 443.866 46.1538Z" fill="#CBEDE1"/>
<path d="M430.972 38.7595H320.602C314.454 38.7595 309.471 43.723 309.471 49.8457V191.683C309.471 197.806 314.454 202.769 320.602 202.769H430.972C437.119 202.769 442.103 197.806 442.103 191.683V49.8457C442.103 43.723 437.119 38.7595 430.972 38.7595Z" fill="white" stroke="#0B3052" stroke-width="0.75" stroke-miterlimit="10"/>
<path d="M137.543 51.4128H33.2244C27.0652 51.4128 22.0723 56.3857 22.0723 62.52V302.176C22.0723 308.311 27.0652 313.284 33.2244 313.284H137.543C143.702 313.284 148.695 308.311 148.695 302.176V62.52C148.695 56.3857 143.702 51.4128 137.543 51.4128Z" fill="#CBEDE1"/>
<path d="M287.42 46.1538H183.101C176.942 46.1538 171.949 51.1267 171.949 57.261V151.577C171.949 157.712 176.942 162.685 183.101 162.685H287.42C293.579 162.685 298.572 157.712 298.572 151.577V57.261C298.572 51.1267 293.579 46.1538 287.42 46.1538Z" fill="#CBEDE1"/>
<path d="M37.1842 0.399658H453.487C463.699 0.399658 472 8.65642 472 18.838V28.8197H18.6819V18.838C18.6819 8.65642 26.972 0.399658 37.1842 0.399658Z" fill="#0B3052"/>
<path d="M32.8752 0.399658H449.178C459.39 0.399658 467.691 8.65642 467.691 18.838V28.8197H14.3623V18.838C14.3623 8.65642 22.663 0.399658 32.8752 0.399658Z" fill="#CBEDE1" stroke="#0B3052" stroke-width="0.75" stroke-miterlimit="10"/>
<path d="M36.7407 21.089C39.9836 21.089 42.6124 18.4707 42.6124 15.2409C42.6124 12.0111 39.9836 9.39282 36.7407 9.39282C33.4978 9.39282 30.8689 12.0111 30.8689 15.2409C30.8689 18.4707 33.4978 21.089 36.7407 21.089Z" fill="#DDE4D7" stroke="#0B3052" stroke-width="0.75" stroke-miterlimit="10"/>
<path d="M54.3559 21.089C57.5988 21.089 60.2277 18.4707 60.2277 15.2409C60.2277 12.0111 57.5988 9.39282 54.3559 9.39282C51.1131 9.39282 48.4842 12.0111 48.4842 15.2409C48.4842 18.4707 51.1131 21.089 54.3559 21.089Z" fill="#DDE4D7" stroke="#0B3052" stroke-width="0.75" stroke-miterlimit="10"/>
<path d="M71.9712 21.089C75.2141 21.089 77.8429 18.4707 77.8429 15.2409C77.8429 12.0111 75.2141 9.39282 71.9712 9.39282C68.7283 9.39282 66.0994 12.0111 66.0994 15.2409C66.0994 18.4707 68.7283 21.089 71.9712 21.089Z" fill="#DDE4D7" stroke="#0B3052" stroke-width="0.75" stroke-miterlimit="10"/>
<path d="M276.205 39.6641H165.877C159.718 39.6641 154.725 44.6369 154.725 50.7712V138.051C154.725 144.185 159.718 149.158 165.877 149.158H276.205C282.364 149.158 287.357 144.185 287.357 138.051V50.7712C287.357 44.6369 282.364 39.6641 276.205 39.6641Z" fill="white" stroke="#0B3052" stroke-width="0.75" stroke-miterlimit="10"/>
<path d="M272.255 70.9556H170.397C167.003 70.9556 164.251 73.6963 164.251 77.0771V124.777C164.251 128.158 167.003 130.899 170.397 130.899H272.255C275.65 130.899 278.402 128.158 278.402 124.777V77.0771C278.402 73.6963 275.65 70.9556 272.255 70.9556Z" fill="#CBEDE1"/>
<path d="M121.881 40.2109H11.5534C5.39427 40.2109 0.401306 45.1838 0.401306 51.3181V290.975C0.401306 297.109 5.39427 302.082 11.5534 302.082H121.881C128.04 302.082 133.033 297.109 133.033 290.975V51.3181C133.033 45.1838 128.04 40.2109 121.881 40.2109Z" fill="white" stroke="#0B3052" stroke-width="0.75" stroke-miterlimit="10"/>
<path d="M117.034 71.5024H15.1757C11.7812 71.5024 9.02942 74.2432 9.02942 77.624V125.324C9.02942 128.705 11.7812 131.445 15.1757 131.445H117.034C120.428 131.445 123.18 128.705 123.18 125.324V77.624C123.18 74.2432 120.428 71.5024 117.034 71.5024Z" fill="#CBEDE1"/>
<path d="M117.034 258.61H15.1757C11.7812 258.61 9.02942 261.351 9.02942 264.732V285.642C9.02942 289.023 11.7812 291.763 15.1757 291.763H117.034C120.428 291.763 123.18 289.023 123.18 285.642V264.732C123.18 261.351 120.428 258.61 117.034 258.61Z" fill="#CBEDE1"/>
<path d="M117.034 140.859H15.1757C11.7812 140.859 9.02942 143.6 9.02942 146.981V241.876C9.02942 245.257 11.7812 247.997 15.1757 247.997H117.034C120.428 247.997 123.18 245.257 123.18 241.876V146.981C123.18 143.6 120.428 140.859 117.034 140.859Z" fill="#CBEDE1"/>
<path d="M15.1652 140.859H117.034C120.424 140.859 123.18 143.605 123.18 146.981V211.226H9.02942V146.981C9.02942 143.605 11.7858 140.859 15.1757 140.859H15.1652Z" fill="#CBEDE1"/>
<path d="M53.0887 51.6863H13.3487C10.9632 51.6863 9.02942 53.6123 9.02942 55.9882C9.02942 58.3641 10.9632 60.2901 13.3487 60.2901H53.0887C55.4742 60.2901 57.408 58.3641 57.408 55.9882C57.408 53.6123 55.4742 51.6863 53.0887 51.6863Z" fill="#0CC79F"/>
<path d="M40.627 79.4963H23.0223C20.6368 79.4963 18.703 81.4224 18.703 83.7983C18.703 86.1742 20.6368 88.1002 23.0223 88.1002H40.627C43.0125 88.1002 44.9463 86.1742 44.9463 83.7983C44.9463 81.4224 43.0125 79.4963 40.627 79.4963Z" fill="#0CC79F"/>
<path d="M196.302 78.9492H178.697C176.312 78.9492 174.378 80.8753 174.378 83.2512C174.378 85.627 176.312 87.5531 178.697 87.5531H196.302C198.687 87.5531 200.621 85.627 200.621 83.2512C200.621 80.8753 198.687 78.9492 196.302 78.9492Z" fill="#0CC79F"/>
<path d="M40.627 218.715H23.0223C20.6368 218.715 18.703 220.641 18.703 223.017C18.703 225.393 20.6368 227.319 23.0223 227.319H40.627C43.0125 227.319 44.9463 225.393 44.9463 223.017C44.9463 220.641 43.0125 218.715 40.627 218.715Z" fill="#0CC79F"/>
<path d="M112.091 95.2314H20.9419C19.7054 95.2314 18.703 96.2274 18.703 97.456C18.703 98.6846 19.7054 99.6806 20.9419 99.6806H112.091C113.328 99.6806 114.33 98.6846 114.33 97.456C114.33 96.2274 113.328 95.2314 112.091 95.2314Z" fill="#B0DAC8"/>
<path d="M112.091 105.718H20.9419C19.7054 105.718 18.703 106.714 18.703 107.943C18.703 109.171 19.7054 110.167 20.9419 110.167H112.091C113.328 110.167 114.33 109.171 114.33 107.943C114.33 106.714 113.328 105.718 112.091 105.718Z" fill="#B0DAC8"/>
<path d="M112.092 267.098H29.5914C28.3549 267.098 27.3525 268.094 27.3525 269.323C27.3525 270.551 28.3549 271.547 29.5914 271.547H112.092C113.328 271.547 114.33 270.551 114.33 269.323C114.33 268.094 113.328 267.098 112.092 267.098Z" fill="#B0DAC8"/>
<path d="M81.9197 277.595H29.5914C28.3549 277.595 27.3525 278.591 27.3525 279.82C27.3525 281.049 28.3549 282.045 29.5914 282.045H81.9197C83.1562 282.045 84.1586 281.049 84.1586 279.82C84.1586 278.591 83.1562 277.595 81.9197 277.595Z" fill="#B0DAC8"/>
<path d="M96.6621 233.387H20.9419C19.7054 233.387 18.703 234.383 18.703 235.612C18.703 236.841 19.7054 237.837 20.9419 237.837H96.6621C97.8986 237.837 98.901 236.841 98.901 235.612C98.901 234.383 97.8986 233.387 96.6621 233.387Z" fill="#B0DAC8"/>
<path d="M59.7205 116.31H20.9732C19.7368 116.31 18.7344 117.306 18.7344 118.534C18.7344 119.763 19.7368 120.759 20.9732 120.759H59.7205C60.957 120.759 61.9593 119.763 61.9593 118.534C61.9593 117.306 60.957 116.31 59.7205 116.31Z" fill="#B0DAC8"/>
<path d="M208.31 51.1392H168.57C166.185 51.1392 164.251 53.0652 164.251 55.4411C164.251 57.817 166.185 59.743 168.57 59.743H208.31C210.696 59.743 212.63 57.817 212.63 55.4411C212.63 53.0652 210.696 51.1392 208.31 51.1392Z" fill="#0CC79F"/>
<path d="M362.443 50.2349H322.703C320.318 50.2349 318.384 52.1609 318.384 54.5368C318.384 56.9127 320.318 58.8387 322.703 58.8387H362.443C364.829 58.8387 366.762 56.9127 366.762 54.5368C366.762 52.1609 364.829 50.2349 362.443 50.2349Z" fill="#0CC79F"/>
<path d="M102.618 197.331C102.618 186.981 93.4728 162.516 80.1874 162.516C67.9792 162.516 58.7598 184.057 58.7598 184.057C58.7598 184.057 54.5777 173.855 46.7839 173.855C36.5612 173.855 30.795 190.505 30.795 197.342H102.618V197.331Z" fill="#0CC79F"/>
<path d="M49.6564 166.061C54.0133 166.061 57.5453 162.543 57.5453 158.204C57.5453 153.864 54.0133 150.347 49.6564 150.347C45.2995 150.347 41.7676 153.864 41.7676 158.204C41.7676 162.543 45.2995 166.061 49.6564 166.061Z" fill="#0CC79F"/>
<path d="M426.715 68.6941H324.857C321.463 68.6941 318.711 71.4348 318.711 74.8157V183.174C318.711 186.555 321.463 189.295 324.857 189.295H426.715C430.11 189.295 432.862 186.555 432.862 183.174V74.8157C432.862 71.4348 430.11 68.6941 426.715 68.6941Z" fill="#CBEDE1"/>
<path d="M350.32 146.56H332.715C330.329 146.56 328.396 148.486 328.396 150.862C328.396 153.238 330.329 155.164 332.715 155.164H350.32C352.705 155.164 354.639 153.238 354.639 150.862C354.639 148.486 352.705 146.56 350.32 146.56Z" fill="#0CC79F"/>
<path d="M406.355 162.285H330.634C329.398 162.285 328.396 163.281 328.396 164.509C328.396 165.738 329.398 166.734 330.634 166.734H406.355C407.591 166.734 408.594 165.738 408.594 164.509C408.594 163.281 407.591 162.285 406.355 162.285Z" fill="#B0DAC8"/>
<path d="M406.355 173.35H330.634C329.398 173.35 328.396 174.346 328.396 175.574C328.396 176.803 329.398 177.799 330.634 177.799H406.355C407.591 177.799 408.594 176.803 408.594 175.574C408.594 174.346 407.591 173.35 406.355 173.35Z" fill="#B0DAC8"/>
<path d="M412.311 125.177C412.311 114.827 403.165 90.3616 389.88 90.3616C377.672 90.3616 368.452 111.903 368.452 111.903C368.452 111.903 364.27 101.7 356.476 101.7C346.253 101.7 340.487 118.35 340.487 125.187H412.311V125.177Z" fill="#0CC79F"/>
<path d="M359.338 93.906C363.695 93.906 367.227 90.3883 367.227 86.049C367.227 81.7096 363.695 78.1919 359.338 78.1919C354.981 78.1919 351.449 81.7096 351.449 86.049C351.449 90.3883 354.981 93.906 359.338 93.906Z" fill="#0CC79F"/>
<path d="M20.9419 271.558C22.1784 271.558 23.1807 270.56 23.1807 269.328C23.1807 268.096 22.1784 267.098 20.9419 267.098C19.7054 267.098 18.703 268.096 18.703 269.328C18.703 270.56 19.7054 271.558 20.9419 271.558Z" fill="#B0DAC8"/>
<path d="M20.9419 282.055C22.1784 282.055 23.1807 281.057 23.1807 279.825C23.1807 278.594 22.1784 277.595 20.9419 277.595C19.7054 277.595 18.703 278.594 18.703 279.825C18.703 281.057 19.7054 282.055 20.9419 282.055Z" fill="#B0DAC8"/>
<path d="M267.281 93.4539H184.781C183.544 93.4539 182.542 94.4498 182.542 95.6784C182.542 96.9071 183.544 97.903 184.781 97.903H267.281C268.518 97.903 269.52 96.9071 269.52 95.6784C269.52 94.4498 268.518 93.4539 267.281 93.4539Z" fill="#B0DAC8"/>
<path d="M237.109 103.951H184.781C183.544 103.951 182.542 104.947 182.542 106.176C182.542 107.404 183.544 108.4 184.781 108.4H237.109C238.346 108.4 239.348 107.404 239.348 106.176C239.348 104.947 238.346 103.951 237.109 103.951Z" fill="#B0DAC8"/>
<path d="M176.131 97.9136C177.368 97.9136 178.37 96.9152 178.37 95.6837C178.37 94.4522 177.368 93.4539 176.131 93.4539C174.895 93.4539 173.893 94.4522 173.893 95.6837C173.893 96.9152 174.895 97.9136 176.131 97.9136Z" fill="#B0DAC8"/>
<path d="M176.131 108.4C177.368 108.4 178.37 107.402 178.37 106.17C178.37 104.939 177.368 103.94 176.131 103.94C174.895 103.94 173.893 104.939 173.893 106.17C173.893 107.402 174.895 108.4 176.131 108.4Z" fill="#B0DAC8"/>
<path d="M237.109 113.943H184.781C183.544 113.943 182.542 114.939 182.542 116.168C182.542 117.397 183.544 118.393 184.781 118.393H237.109C238.346 118.393 239.348 117.397 239.348 116.168C239.348 114.939 238.346 113.943 237.109 113.943Z" fill="#B0DAC8"/>
<path d="M176.131 118.403C177.368 118.403 178.37 117.405 178.37 116.173C178.37 114.942 177.368 113.943 176.131 113.943C174.895 113.943 173.893 114.942 173.893 116.173C173.893 117.405 174.895 118.403 176.131 118.403Z" fill="#B0DAC8"/>
</g>
<path d="M270.823 343.588L248.063 349.308C248.063 349.308 253.103 354.768 254.133 362.578C255.153 370.388 253.193 375.258 253.193 375.258L276.563 370.748L277.653 368.038L199.293 369.128L203.483 337.238C202.243 330.328 201.293 322.928 200.573 315.098C200.573 315.098 188.893 333.378 182.033 344.638C175.173 355.898 156.933 336.018 154.453 333.538C148.383 327.468 162.113 302.798 165.383 294.738C172.793 276.468 184.293 253.968 188.643 247.708C192.993 241.448 219.963 230.878 219.963 230.878C227.803 246.538 244.213 246.668 271.583 223.668C271.583 223.668 305.673 235.238 311.443 239.318C317.223 243.388 321.643 249.068 324.663 256.108C327.693 263.148 346.153 326.598 348.463 335.548C350.783 344.488 348.073 356.288 344.213 360.158C340.353 364.018 304.533 372.868 285.273 372.868C276.923 372.868 276.553 370.738 276.553 370.738" fill="#83BAA0"/>
<path d="M227.813 222.938C227.813 222.938 228.383 226.058 228.383 228.728C228.383 228.728 227.773 237.608 236.023 238.838C251.403 241.868 260.353 220.708 259.413 218.138C256.573 208.898 257.283 193.338 257.283 193.338L254.803 191.668C251.263 205.988 242.903 217.398 227.803 222.928L227.813 222.938Z" fill="#FFC5A9"/>
<path d="M204.443 159.558C206.103 152.978 229.243 135.528 248.243 153.528C255.613 160.068 255.973 177.528 255.973 177.528C255.973 177.528 256.023 193.638 255.613 198.898C255.203 204.158 255.593 204.108 253.223 209.258C250.853 214.408 236.053 220.928 228.963 223.078C221.873 225.228 216.013 223.988 214.923 222.328C213.833 220.668 208.303 211.088 208.303 211.088C208.303 211.088 202.583 198.408 202.583 192.608C202.583 188.318 203.843 186.168 203.843 184.608C203.843 183.048 201.063 179.908 200.563 176.028C200.063 168.868 204.433 159.568 204.433 159.568" fill="#FFDDC5"/>
<path d="M222.943 181.418C222.943 181.418 223.483 179.568 225.673 178.788C227.863 178.008 230.183 178.868 231.543 178.788C232.903 178.708 234.473 178.568 234.473 178.568C234.473 178.568 231.953 182.838 228.713 182.838C225.473 182.838 222.953 181.408 222.953 181.408L222.943 181.418Z" fill="white"/>
<path d="M204.623 182.218C204.623 182.218 205.133 185.238 207.033 185.208C208.933 185.178 209.593 184.898 210.193 184.168C210.793 183.438 211.583 181.438 211.583 181.438C211.583 181.438 209.513 180.598 207.663 180.918C205.813 181.238 204.623 182.218 204.623 182.218Z" fill="white"/>
<path d="M209.263 173.848C209.263 173.848 207.173 172.688 205.473 172.688C203.773 172.688 201.383 173.778 201.193 174.678C201.003 175.578 201.313 176.748 201.913 176.348C202.513 175.948 203.583 174.998 205.083 174.758C207.313 174.408 210.043 175.698 210.813 175.698C211.583 175.698 209.253 173.848 209.253 173.848H209.263Z" fill="#D38426"/>
<path d="M216.523 172.058C217.523 171.058 225.253 168.888 228.933 168.888C232.613 168.888 238.473 170.778 238.473 172.058C238.473 173.338 233.183 171.428 228.933 171.428C224.683 171.428 219.023 174.328 217.923 174.668C216.823 175.008 215.523 173.068 216.523 172.068V172.058Z" fill="#D38426"/>
<path d="M212.153 181.218C212.153 181.218 209.653 179.948 206.683 180.608C204.993 180.978 204.533 181.728 204.383 181.998C204.103 182.488 204.593 183.068 204.753 182.838C204.913 182.608 205.603 181.828 207.113 181.408C208.883 180.928 212.163 181.978 212.163 181.978V181.228L212.153 181.218Z" fill="#031001"/>
<path d="M204.463 179.968C204.283 179.788 205.183 179.178 207.453 178.848C209.723 178.518 212.023 179.618 212.543 180.518V180.918C211.293 179.668 209.383 179.148 207.513 179.348C205.643 179.548 204.633 180.148 204.453 179.968H204.463Z" fill="#031001"/>
<path d="M211.583 181.828C211.583 181.828 211.123 184.408 209.373 185.028C207.633 185.638 206.573 185.558 206.873 185.258C207.173 184.958 207.923 185.078 209.223 184.478C210.523 183.878 211.323 181.698 211.323 181.698L211.573 181.828H211.583Z" fill="#031001"/>
<path d="M207.343 180.918C207.343 180.918 206.903 181.648 207.063 182.618C207.223 183.588 208.473 184.738 209.203 184.738C209.933 184.738 210.803 183.428 210.803 183.428L211.583 181.438L207.343 180.918Z" fill="#031001"/>
<path d="M206.063 186.088C206.063 185.818 207.553 186.688 208.873 186.298C210.193 185.908 211.443 184.108 211.443 184.608C211.443 185.108 210.723 186.508 208.873 186.858C207.033 187.208 206.063 186.358 206.063 186.088Z" fill="#031001"/>
<path d="M221.883 182.138C221.713 181.768 223.013 181.168 223.063 180.738C223.113 180.308 223.613 178.968 224.913 178.448C227.523 177.398 230.063 178.298 232.263 178.298C234.463 178.298 236.913 177.518 237.093 178.008C237.273 178.498 234.363 178.958 232.263 179.168C230.163 179.378 226.793 178.838 225.393 179.388C223.993 179.948 223.783 180.998 223.533 181.258C223.283 181.518 222.063 182.498 221.893 182.128L221.883 182.138Z" fill="#031001"/>
<path d="M223.523 181.268C223.523 181.268 226.533 182.578 228.633 182.528C230.733 182.488 232.903 180.208 233.103 180.408C233.323 180.628 231.243 182.878 228.593 183.078C225.943 183.278 222.943 181.738 222.943 181.738L223.523 181.258V181.268Z" fill="black"/>
<path d="M222.133 180.148C222.373 180.148 222.173 178.478 224.643 177.478C227.113 176.478 232.763 177.178 233.123 176.808C233.483 176.438 227.113 175.868 224.213 177.008C221.313 178.148 221.893 180.148 222.133 180.148Z" fill="#031001"/>
<path d="M224.963 179.548C225.223 180.748 225.893 181.728 227.043 182.448L229.543 182.788L230.783 181.958C231.103 180.788 230.953 179.968 230.783 179.158L227.083 178.578L225.323 178.848L224.963 179.548Z" fill="#031001"/>
<path d="M223.223 183.128C222.993 182.928 223.293 182.628 223.643 182.878C223.993 183.128 225.683 184.498 227.843 184.588C230.003 184.678 232.483 183.218 232.683 183.468C232.883 183.718 230.483 185.298 227.883 185.208C225.293 185.118 223.443 183.328 223.213 183.128H223.223Z" fill="#031001"/>
<path d="M206.383 156.318C206.383 156.318 211.413 158.268 214.633 155.318C218.493 156.798 228.623 158.038 240.213 153.188C241.353 159.468 247.513 165.488 250.343 166.108C245.163 182.658 255.473 186.738 257.043 181.408C257.043 181.408 256.303 176.878 257.963 174.148C259.623 171.418 259.783 171.608 259.783 171.608L258.203 192.828L258.273 201.868C262.353 206.748 277.483 173.698 270.343 161.678C274.723 147.398 260.993 135.568 256.973 135.568C257.723 131.178 247.723 124.028 238.903 127.118C234.503 125.398 224.523 124.558 214.633 133.108C207.063 134.628 203.093 139.728 202.133 146.878C195.703 153.308 197.513 167.708 201.633 170.778C201.943 167.918 203.033 162.118 206.383 156.328V156.318Z" fill="#D38426"/>
<path d="M255.663 192.778C255.663 192.778 259.153 195.598 261.183 193.568C263.213 191.538 264.043 188.648 264.763 186.448C265.483 184.238 267.033 180.428 267.013 177.008C266.983 173.588 265.893 169.768 261.393 169.768C254.713 169.768 255.873 180.408 255.873 180.408L255.663 192.778Z" fill="#FFC5A9"/>
<path d="M264.813 173.188C264.813 173.188 263.643 171.568 261.593 171.788C259.543 172.008 258.633 173.968 258.233 175.668C257.833 177.368 258.413 181.308 258.413 181.308C258.413 181.308 259.593 181.498 259.773 183.108C259.953 184.708 258.023 187.098 258.023 187.098" stroke="#031001" stroke-width="0.75" stroke-miterlimit="10" stroke-linecap="round"/>
<path d="M258.253 180.018C258.253 180.018 260.383 179.418 261.423 180.978C262.453 182.538 261.423 184.458 261.423 184.458" stroke="#031001" stroke-width="0.75" stroke-miterlimit="10" stroke-linecap="round"/>
<path d="M228.933 207.388C228.933 207.388 226.783 208.698 224.963 208.698C223.143 208.698 220.803 208.308 219.483 208.698C218.163 209.088 217.713 209.768 217.373 209.768C217.033 209.768 215.183 208.698 214.163 208.698C213.143 208.698 212.163 209.448 212.163 209.448C211.863 207.578 212.273 206.788 213.083 206.598C213.083 206.598 215.203 206.208 216.783 207.398C217.583 206.498 217.943 206.218 218.853 206.028C219.763 205.838 221.493 206.388 221.493 206.388C223.863 207.268 226.353 207.558 228.943 207.398L228.933 207.388Z" fill="#C98659"/>
<path d="M212.153 209.438C212.153 209.438 213.133 208.688 214.153 208.688C215.173 208.688 217.033 209.758 217.363 209.758C217.693 209.758 218.153 209.078 219.473 208.688C220.793 208.298 223.133 208.688 224.953 208.688C226.773 208.688 228.923 207.378 228.923 207.378C228.923 207.378 223.523 212.788 217.813 212.788C213.693 212.788 212.143 209.438 212.143 209.438H212.153Z" fill="#C98659"/>
<path d="M211.873 209.438C211.873 209.438 212.853 208.688 213.873 208.688C214.893 208.688 216.753 209.758 217.083 209.758C217.413 209.758 217.873 209.078 219.193 208.688C220.513 208.298 222.853 208.688 224.673 208.688C226.493 208.688 228.643 207.378 228.643 207.378" stroke="#031001" stroke-width="0.75" stroke-miterlimit="10" stroke-linecap="round"/>
<path d="M233.413 243.429C233.413 243.429 237.853 235.199 239.153 234.239C242.653 235.179 246.203 239.739 246.573 240.049C242.123 242.309 237.723 243.579 233.413 243.419V243.429Z" fill="#0B5243"/>
<path d="M236.033 238.838C228.503 235.048 226.743 226.698 226.743 226.698C226.413 225.298 226.143 223.938 226.053 222.698C222.263 224.348 219.023 227.258 217.273 230.508C220.123 229.358 224.343 241.678 233.403 243.398L236.023 238.838H236.033Z" fill="#CBEDE1"/>
<path d="M239.143 234.218C242.963 235.398 247.483 240.898 252.043 246.548C260.323 242.058 269.713 229.588 271.853 222.938C268.063 219.778 263.693 213.808 262.573 212.678C262.243 212.348 261.713 212.098 261.143 211.908C261.143 213.268 259.843 220.628 253.933 226.548C250.833 229.648 247.373 231.758 244.613 232.608C242.603 233.228 240.553 233.108 240.153 233.348C239.813 233.558 239.163 234.218 239.163 234.218H239.143Z" fill="#CBEDE1"/>
<path d="M313.753 246.548C313.753 246.548 289.393 261.538 294.183 288.118C296.863 302.998 303.723 330.108 303.723 330.108" stroke="#FED8DC" stroke-width="0.75" stroke-linecap="round" stroke-linejoin="round"/>
<path d="M221.073 240.998C221.073 240.998 224.373 247.278 231.753 248.568C239.143 249.858 249.803 243.798 249.803 243.798" stroke="#0B3052" stroke-width="0.75" stroke-linecap="round" stroke-linejoin="round"/>
<path d="M190.703 259.308C192.123 276.658 194.323 292.718 199.683 303.608C200.803 320.898 202.333 331.238 204.493 342.878" stroke="#FED8DC" stroke-width="0.75" stroke-linecap="round" stroke-linejoin="round"/>
<path d="M276.563 370.748L253.193 375.258C253.193 375.258 255.163 370.388 254.133 362.578C253.113 354.768 248.063 349.308 248.063 349.308L270.823 343.588C270.823 343.588 278.173 348.658 278.933 356.038C279.693 363.408 276.563 370.748 276.563 370.748Z" fill="#CBEDE1"/>
<path d="M259.453 218.259C260.413 216.299 261.193 212.779 261.133 211.909C260.033 211.529 258.043 211.549 258.043 211.549C258.363 213.819 258.863 216.299 259.453 218.259Z" fill="#0B5243"/>
<path d="M227.813 222.128C227.813 222.128 228.193 225.788 228.293 226.718C228.393 227.648 228.383 229.428 228.383 229.428L228.593 231.408C227.313 229.378 226.463 226.478 226.053 222.708C226.633 222.418 227.213 222.168 227.813 222.128Z" fill="#D1B000"/>
<path d="M217.283 230.508C216.753 230.688 217.283 244.598 217.853 244.698C218.423 244.798 222.003 239.538 225.223 238.418C225.223 238.418 223.183 236.268 220.793 233.058C218.663 230.238 217.813 230.338 217.283 230.518V230.508Z" fill="#0B5243"/>
<path d="M276.563 370.748C276.563 370.748 281.083 361.608 278.343 353.818C275.603 346.028 270.823 343.588 270.823 343.588C270.823 343.588 269.713 343.068 272.953 340.828C276.193 338.578 307.463 328.968 307.463 328.968C320.083 325.268 331.893 327.688 337.853 333.648" stroke="#FED8DC" stroke-width="0.75" stroke-linecap="round" stroke-linejoin="round"/>
<path d="M213.073 177.628C213.073 180.198 211.573 183.788 210.703 187.128C209.833 190.468 208.533 195.378 208.953 197.468C209.373 199.558 210.783 200.578 212.413 200.578C214.043 200.578 215.733 199.688 217.353 199.168C218.973 198.648 221.203 200.138 222.643 199.428C223.573 198.968 224.143 196.158 222.323 194.338C220.503 192.518 217.773 192.528 217.773 192.528" stroke="#031001" stroke-width="0.75" stroke-miterlimit="10" stroke-linecap="round"/>
<path d="M195.473 367.919L177.993 363.739L113.833 367.589C111.803 367.709 111.443 370.549 113.383 371.179L195.523 397.639L258.963 385.869C260.453 385.589 260.503 383.479 259.033 383.129" fill="#CBEDE1"/>
<path d="M180.183 326.789L195.353 396.849C195.433 397.199 195.093 397.498 194.753 397.388L107.343 369.229C105.293 368.569 103.703 366.939 103.103 364.869L85.103 303.499C84.563 301.659 86.233 299.919 88.093 300.389L175.993 322.469C178.093 322.999 179.713 324.669 180.173 326.789H180.183Z" fill="#0B5243"/>
<path d="M135.737 352.353C138.367 351.033 138.855 346.685 136.825 342.643C134.796 338.6 131.018 336.394 128.387 337.715C125.756 339.036 125.269 343.383 127.298 347.426C129.328 351.468 133.106 353.674 135.737 352.353Z" fill="#FDD7DE"/>
<path d="M253.673 372.298C253.673 372.298 246.133 372.978 242.623 374.138C239.113 375.298 230.273 378.258 227.923 378.758C225.563 379.258 216.483 379.688 214.463 379.698C212.433 379.718 206.483 379.838 204.673 379.248C202.863 378.658 202.863 375.848 202.863 375.848C202.863 375.848 200.033 376.548 199.293 374.728C198.723 373.138 199.793 372.028 199.793 372.028C199.793 372.028 198.023 372.848 196.683 372.908C195.743 372.948 195.193 372.398 194.883 371.888C194.143 370.638 194.763 369.628 194.763 369.628L195.753 368.408C195.753 368.408 193.793 367.898 194.073 365.798C194.403 363.358 199.993 358.298 202.683 356.018C206.673 352.618 215.423 347.718 218.713 347.148C222.003 346.578 233.213 352.898 235.223 352.898C237.233 352.898 248.643 350.808 248.643 350.808C248.643 350.808 251.903 353.128 253.763 360.628C255.633 368.128 253.653 372.318 253.653 372.318L253.673 372.298Z" fill="#FFDDC5"/>
<path d="M222.263 354.268C222.263 354.268 209.793 358.408 206.453 360.558C203.763 362.288 198.423 365.948 196.023 368.048" stroke="#EDB095" stroke-width="0.75" stroke-linecap="round" stroke-linejoin="round"/>
<path d="M203.323 375.668C203.323 375.668 210.133 374.648 213.703 373.688C217.273 372.738 225.093 371.148 225.093 371.148" stroke="#EDB095" stroke-width="0.75" stroke-linecap="round" stroke-linejoin="round"/>
<path d="M224.053 362.568C224.053 362.568 211.933 365.848 209.133 367.278C206.483 368.648 199.953 371.898 199.953 371.898" stroke="#EDB095" stroke-width="0.75" stroke-linecap="round" stroke-linejoin="round"/>
<defs>
<clipPath id="clip0_12_1229">
<rect width="472" height="326" fill="white"/>
</clipPath>
</defs>
</svg>
