<svg width="362" height="268" viewBox="0 0 362 268" fill="none" xmlns="http://www.w3.org/2000/svg">
<path d="M329.654 5.65625H52.5463C44.9465 5.65625 38.7856 11.7891 38.7856 19.3543V233.561C38.7856 241.126 44.9465 247.259 52.5463 247.259H329.654C337.254 247.259 343.415 241.126 343.415 233.561V19.3543C343.415 11.7891 337.254 5.65625 329.654 5.65625Z" fill="#0B5243"/>
<path d="M325.647 5.65625H57.3615C49.78 5.65625 43.6339 11.7891 43.6339 19.3543V233.561C43.6339 241.126 49.78 247.259 57.3615 247.259H325.647C333.229 247.259 339.375 241.126 339.375 233.561V19.3543C339.375 11.7891 333.229 5.65625 325.647 5.65625Z" fill="white" stroke="#0B5243" stroke-width="0.75" stroke-miterlimit="10"/>
<path d="M57.3612 5.65625H325.648C333.22 5.65625 339.375 11.9946 339.375 19.8106V27.4732H43.6339V19.8106C43.6339 11.9946 49.7889 5.65625 57.3612 5.65625Z" fill="#CBEDE1" stroke="#0B5243" stroke-width="0.75" stroke-miterlimit="10"/>
<path d="M61.4107 21.0088C63.642 21.0088 65.4508 19.2 65.4508 16.9686C65.4508 14.7373 63.642 12.9285 61.4107 12.9285C59.1793 12.9285 57.3705 14.7373 57.3705 16.9686C57.3705 19.2 59.1793 21.0088 61.4107 21.0088Z" fill="#FBF9ED" stroke="#0B5243" stroke-width="0.75" stroke-miterlimit="10"/>
<path d="M73.5311 21.0088C75.7625 21.0088 77.5713 19.2 77.5713 16.9686C77.5713 14.7373 75.7625 12.9285 73.5311 12.9285C71.2998 12.9285 69.491 14.7373 69.491 16.9686C69.491 19.2 71.2998 21.0088 73.5311 21.0088Z" fill="#FBF9ED" stroke="#0B5243" stroke-width="0.75" stroke-miterlimit="10"/>
<path d="M86.4597 21.0088C88.6911 21.0088 90.4999 19.2 90.4999 16.9686C90.4999 14.7373 88.6911 12.9285 86.4597 12.9285C84.2284 12.9285 82.4196 14.7373 82.4196 16.9686C82.4196 19.2 84.2284 21.0088 86.4597 21.0088Z" fill="#FBF9ED" stroke="#0B5243" stroke-width="0.75" stroke-miterlimit="10"/>
<path d="M312.072 38.7856H150.124C144.417 38.7856 139.79 43.7284 139.79 49.8255V155.491C139.79 161.588 144.417 166.531 150.124 166.531H312.072C317.779 166.531 322.406 161.588 322.406 155.491V49.8255C322.406 43.7284 317.779 38.7856 312.072 38.7856Z" fill="#CBEDE1"/>
<path d="M211.843 135.667H150.043C148.642 135.667 147.506 136.703 147.506 137.98V138.497C147.506 139.775 148.642 140.811 150.043 140.811H211.843C213.244 140.811 214.38 139.775 214.38 138.497V137.98C214.38 136.703 213.244 135.667 211.843 135.667Z" fill="#83BAA0"/>
<path d="M200.666 146.812H150.075C148.656 146.812 147.506 147.848 147.506 149.126V149.642C147.506 150.92 148.656 151.956 150.075 151.956H200.666C202.084 151.956 203.234 150.92 203.234 149.642V149.126C203.234 147.848 202.084 146.812 200.666 146.812Z" fill="#83BAA0"/>
<path d="M308.232 145.955H283.425C281.752 145.955 280.396 147.214 280.396 148.767V152.573C280.396 154.126 281.752 155.385 283.425 155.385H308.232C309.904 155.385 311.261 154.126 311.261 152.573V148.767C311.261 147.214 309.904 145.955 308.232 145.955Z" fill="#0B5243"/>
<path d="M152.291 109.631C152.291 109.631 169.486 83.8628 181.14 83.8628C193.54 83.8628 201.368 95.8461 212.46 95.8461C225.354 95.8461 231.999 73.8557 246.879 73.8557C261.759 73.8557 269.131 86.4687 282.519 86.4687C295.907 86.4687 305.865 63.3062 305.865 63.3062" stroke="#0B5243" stroke-width="0.75" stroke-linecap="round" stroke-linejoin="round"/>
<path d="M153.532 112.499C155.608 112.499 157.29 110.816 157.29 108.74C157.29 106.664 155.608 104.981 153.532 104.981C151.456 104.981 149.773 106.664 149.773 108.74C149.773 110.816 151.456 112.499 153.532 112.499Z" fill="#FBF9ED"/>
<path d="M181.46 87.7181C183.536 87.7181 185.219 86.0353 185.219 83.9594C185.219 81.8835 183.536 80.2007 181.46 80.2007C179.385 80.2007 177.702 81.8835 177.702 83.9594C177.702 86.0353 179.385 87.7181 181.46 87.7181Z" fill="#FBF9ED"/>
<path d="M212.566 99.0523C214.642 99.0523 216.325 97.3695 216.325 95.2936C216.325 93.2177 214.642 91.5349 212.566 91.5349C210.49 91.5349 208.807 93.2177 208.807 95.2936C208.807 97.3695 210.49 99.0523 212.566 99.0523Z" fill="#FBF9ED"/>
<path d="M246.444 77.6624C248.52 77.6624 250.202 75.9796 250.202 73.9037C250.202 71.8278 248.52 70.145 246.444 70.145C244.368 70.145 242.685 71.8278 242.685 73.9037C242.685 75.9796 244.368 77.6624 246.444 77.6624Z" fill="#FBF9ED"/>
<path d="M281.211 90.2276C283.287 90.2276 284.97 88.5448 284.97 86.4689C284.97 84.393 283.287 82.7102 281.211 82.7102C279.135 82.7102 277.453 84.393 277.453 86.4689C277.453 88.5448 279.135 90.2276 281.211 90.2276Z" fill="#FBF9ED"/>
<path d="M305.866 67.0648C307.942 67.0648 309.624 65.3819 309.624 63.3061C309.624 61.2302 307.942 59.5474 305.866 59.5474C303.79 59.5474 302.107 61.2302 302.107 63.3061C302.107 65.3819 303.79 67.0648 305.866 67.0648Z" fill="#FBF9ED"/>
<rect x="263.837" y="178.576" width="88.4663" height="88.4663" rx="8" fill="#0B5243"/>
<rect x="262.179" y="178.951" width="87.7163" height="87.7163" rx="7.625" fill="white" stroke="#0B5243" stroke-width="0.75"/>
<path d="M269.804 178.951H342.27C346.481 178.951 349.895 182.365 349.895 186.576V193.454H262.179V186.576C262.179 182.365 265.592 178.951 269.804 178.951Z" fill="#CBEDE1" stroke="#0B5243" stroke-width="0.75"/>
<path d="M270.864 189.579C272.499 189.579 273.824 188.254 273.824 186.62C273.824 184.985 272.499 183.66 270.864 183.66C269.23 183.66 267.905 184.985 267.905 186.62C267.905 188.254 269.23 189.579 270.864 189.579Z" fill="#FBF9ED" stroke="#0B5243" stroke-width="0.75" stroke-miterlimit="10"/>
<path d="M279.75 189.579C281.385 189.579 282.71 188.254 282.71 186.62C282.71 184.985 281.385 183.66 279.75 183.66C278.115 183.66 276.79 184.985 276.79 186.62C276.79 188.254 278.115 189.579 279.75 189.579Z" fill="#FBF9ED" stroke="#0B5243" stroke-width="0.75" stroke-miterlimit="10"/>
<path d="M288.643 189.579C290.277 189.579 291.602 188.254 291.602 186.62C291.602 184.985 290.277 183.66 288.643 183.66C287.008 183.66 285.683 184.985 285.683 186.62C285.683 188.254 287.008 189.579 288.643 189.579Z" fill="#FBF9ED" stroke="#0B5243" stroke-width="0.75" stroke-miterlimit="10"/>
<path d="M315.567 241.162C315.567 241.16 315.565 241.16 315.564 241.161C312.897 244.271 308.945 246.254 304.522 246.254C300.567 246.254 296.968 244.661 294.345 242.089C293.819 241.573 292.993 241.475 292.403 241.915L282.139 249.576C281.52 250.038 281.391 250.916 281.881 251.512C287.291 258.077 295.482 262.262 304.65 262.262C313.81 262.262 321.756 258.209 327.149 251.824C327.647 251.234 327.53 250.354 326.918 249.884L315.567 241.163C315.567 241.163 315.567 241.162 315.567 241.162V241.162Z" fill="#088F73"/>
<path d="M289.894 231.708C289.894 228.861 290.72 226.212 292.137 223.97C292.541 223.331 292.448 222.478 291.862 222L283.172 214.911C282.574 214.424 281.691 214.511 281.235 215.133C277.971 219.582 276.039 225.072 276.039 231.01C276.039 236.539 277.708 241.676 280.57 245.946C281 246.587 281.877 246.711 282.495 246.25L290.963 239.929C291.538 239.5 291.687 238.708 291.371 238.064C290.43 236.143 289.894 233.99 289.894 231.708Z" fill="#0B5243"/>
<path d="M304.384 217.161V217.161C304.46 217.161 304.522 217.104 304.522 217.028V206.524C304.522 205.752 303.896 205.123 303.126 205.166C296.596 205.537 290.757 208.488 286.609 213.012C286.087 213.581 286.179 214.465 286.777 214.953L293.434 220.384C293.978 220.828 294.763 220.793 295.311 220.354C297.8 218.361 300.949 217.161 304.384 217.161Z" fill="#FDD500"/>
<path d="M307.648 198.942C306.877 198.909 306.25 199.538 306.25 200.31V216.05C306.25 216.755 306.778 217.342 307.467 217.488C314.047 218.881 318.986 224.713 318.986 231.707C318.986 234.029 318.435 236.213 317.465 238.158C317.147 238.796 317.287 239.584 317.853 240.019L330.657 249.859C331.269 250.329 332.148 250.216 332.591 249.585C336.27 244.354 338.435 237.98 338.435 231.102C338.44 213.794 324.776 199.674 307.648 198.942Z" fill="#0CC79F"/>
<rect x="272.744" width="89.2562" height="89.2562" rx="8" fill="#0B5243"/>
<rect x="271.067" y="0.375" width="88.5062" height="88.5062" rx="7.625" fill="white" stroke="#0B5243" stroke-width="0.75"/>
<path d="M278.692 0.375H351.948C356.159 0.375 359.573 3.78883 359.573 8V15.014H271.067V7.99999C271.067 3.78882 274.481 0.375 278.692 0.375Z" fill="#CBEDE1" stroke="#0B5243" stroke-width="0.75"/>
<path d="M279.834 11.1021C281.483 11.1021 282.82 9.7651 282.82 8.11586C282.82 6.46661 281.483 5.12964 279.834 5.12964C278.185 5.12964 276.848 6.46661 276.848 8.11586C276.848 9.7651 278.185 11.1021 279.834 11.1021Z" fill="#FBF9ED" stroke="#0B5243" stroke-width="0.75" stroke-miterlimit="10"/>
<path d="M288.799 11.1021C290.448 11.1021 291.785 9.7651 291.785 8.11586C291.785 6.46661 290.448 5.12964 288.799 5.12964C287.149 5.12964 285.812 6.46661 285.812 8.11586C285.812 9.7651 287.149 11.1021 288.799 11.1021Z" fill="#FBF9ED" stroke="#0B5243" stroke-width="0.75" stroke-miterlimit="10"/>
<path d="M297.771 11.1021C299.42 11.1021 300.757 9.7651 300.757 8.11586C300.757 6.46661 299.42 5.12964 297.771 5.12964C296.121 5.12964 294.784 6.46661 294.784 8.11586C294.784 9.7651 296.121 11.1021 297.771 11.1021Z" fill="#FBF9ED" stroke="#0B5243" stroke-width="0.75" stroke-miterlimit="10"/>
<path d="M288.646 40.7402H284.881C283.277 40.7402 281.977 42.0401 281.977 43.6436V73.8881C281.977 75.4916 283.277 76.7915 284.881 76.7915H288.646C290.249 76.7915 291.549 75.4916 291.549 73.8881V43.6436C291.549 42.0401 290.249 40.7402 288.646 40.7402Z" fill="#0CC79F"/>
<path d="M345.759 34.7485H341.994C340.391 34.7485 339.091 36.0484 339.091 37.6519V73.8879C339.091 75.4914 340.391 76.7913 341.994 76.7913H345.759C347.363 76.7913 348.663 75.4914 348.663 73.8879V37.6519C348.663 36.0484 347.363 34.7485 345.759 34.7485Z" fill="#0CC79F"/>
<path d="M308.385 48.0344H304.62C303.016 48.0344 301.716 49.3343 301.716 50.9378V73.8879C301.716 75.4914 303.016 76.7913 304.62 76.7913H308.385C309.988 76.7913 311.288 75.4914 311.288 73.8879V50.9378C311.288 49.3343 309.988 48.0344 308.385 48.0344Z" fill="#0CC79F"/>
<path d="M327.508 22.5708H323.743C322.139 22.5708 320.839 23.8707 320.839 25.4742V73.888C320.839 75.4915 322.139 76.7914 323.743 76.7914H327.508C329.112 76.7914 330.411 75.4915 330.411 73.888V25.4742C330.411 23.8707 329.112 22.5708 327.508 22.5708Z" fill="#0CC79F"/>
<path d="M1 239.889H22.2772" stroke="#031001" stroke-width="0.75" stroke-linecap="round" stroke-linejoin="round"/>
<path d="M1 244.704L25.1141 244.704" stroke="#031001" stroke-width="0.75" stroke-linecap="round" stroke-linejoin="round"/>
<path d="M152.508 244.752L262 244.752" stroke="#031001" stroke-width="0.75" stroke-linecap="round" stroke-linejoin="round"/>
<path d="M90.5767 152.264C90.5767 152.264 108.52 159.834 111.386 163.968C114.251 168.101 131.032 209.691 131.032 209.691L116.776 213.176C115.407 213.514 114.35 214.577 114.045 215.916L113.187 219.787L104.428 203.667C104.251 205.509 103.946 207.221 103.428 208.739V210.464C103.428 210.464 102.91 224.942 103.769 240.006H73.25C73.25 240.006 73.1436 239.254 72.4343 238.564C71.7251 237.874 62.2638 235.224 61.6043 235.224C60.9447 235.224 55.9729 236.832 53.2565 242.117C50.6607 247.169 51.8097 252.165 51.8097 252.165C47.0507 252.165 21.0571 245.147 19.2556 242.097C17.4541 239.047 15.1704 230.504 15.6881 223.831C16.213 217.151 24.043 171.303 29.341 166.148C34.639 160.993 58.3134 150.456 58.3134 150.456C58.3134 150.456 76.399 154.562 81.0161 154.044C85.6333 153.527 90.5909 152.264 90.5909 152.264H90.5767Z" fill="#83BAA0"/>
<path d="M80.1085 159.4C80.1085 159.4 82.1369 186.616 82.1369 201.307C82.1369 215.999 80.5412 240.041 80.5412 240.041" stroke="#0B5243" stroke-width="0.75" stroke-linecap="round" stroke-linejoin="round"/>
<path d="M64.0156 143.162C65.3632 134.412 65.1504 130.562 64.7603 124.731L66.7675 123.537C66.7675 123.537 67.0015 129.692 68.2923 133.984C69.5832 138.277 80.5409 144.232 82.2005 144.867C84.4701 145.729 86.0517 145.515 86.0517 145.515C86.0517 145.515 86.2432 146.599 86.2432 147.903C86.2432 151.374 81.0019 154.045 81.0019 154.045C81.0019 154.045 76.5479 152.278 71.0371 148.986C65.5263 145.695 64.0156 143.162 64.0156 143.162Z" fill="#FFC7AB"/>
<path d="M103.159 244.491L115.556 241.607L161.061 244.264C162.501 244.346 162.756 246.306 161.38 246.741L103.123 265L58.1291 256.878C57.0723 256.685 57.0368 255.229 58.0794 254.987" fill="#0B5243"/>
<path d="M65.5337 115.56C65.5337 115.56 66.2075 132.287 67.172 134.985C68.1366 137.69 79.7114 145.06 82.1724 145.964C84.6335 146.868 88.8322 146.502 90.8464 145.964C92.8607 145.426 96.5416 138.283 97.8041 134.274C99.0594 130.265 100.4 127.229 100.698 124.696C100.989 122.163 100.272 119.576 100.272 118.92C100.272 118.265 101.329 115.739 101.329 113.972C101.329 111.033 100.067 101.931 100.067 101.931C100.067 101.931 100.024 100.923 99.797 100.061C96.7402 100.061 96.2012 102.455 94.5983 102.6C92.9954 102.745 77.6404 93.8984 73.3637 97.5764C71.5055 99.3844 73.3637 108.059 73.3637 108.059L65.5408 108.693V115.553L65.5337 115.56Z" fill="#FFDFC7"/>
<path d="M88.8181 113.372C88.4422 113.006 87.9173 112.385 85.8109 111.764C83.7044 111.143 81.3994 110.812 79.6263 111.143C77.8532 111.474 74.6191 113.117 75.229 113.414C75.7964 113.69 76.7752 112.585 79.6476 112.171C81.9243 111.84 83.1867 112.296 85.208 113.082C87.3641 113.91 88.1443 115.608 88.8535 115.353C89.5628 115.097 89.194 113.745 88.8181 113.379V113.372Z" fill="#031001"/>
<path d="M94.3501 114.028C95.0097 112.689 98.6835 112.296 99.9672 112.296C101.251 112.296 101.315 113.427 101.315 113.427L101.329 113.979C101.329 113.979 101.081 113.22 99.7757 113.22C95.4778 113.455 95.1231 115.684 94.3572 115.58C94.116 115.546 93.8536 114.842 94.3572 114.035L94.3501 114.028Z" fill="#031001"/>
<path d="M86.8392 117.347C86.5129 117.423 86.5271 115.842 84.5696 115.014C82.6121 114.186 79.1226 114.987 79.0021 114.773C78.9524 114.676 82.7043 113.717 85.0519 114.932C86.9172 115.898 87.0165 117.298 86.8392 117.34V117.347Z" fill="black"/>
<path d="M94.2581 118.106C94.4993 118.175 94.4922 116.746 95.939 116.001C97.3859 115.256 99.9675 115.98 100.053 115.78C100.088 115.697 97.3149 114.821 95.5844 115.925C94.2085 116.801 94.1305 118.064 94.2652 118.106H94.2581Z" fill="black"/>
<path d="M63.8104 142.72C63.8104 144.611 71.7681 150.201 81.0024 154.044C81.0024 154.044 79.8605 153.982 78.2009 155.597C76.5413 157.212 75.6193 162.367 74.2646 162.367C72.91 162.367 59.6118 153.403 58.172 150.214C59.7962 148.255 62.8246 141.113 63.8104 142.72Z" fill="#0B5243"/>
<path d="M85.9453 145.943C87.2149 149.78 84.3637 152.016 81.009 154.044C81.009 154.044 82.9665 153.81 84.1226 154.935C85.2787 156.059 87.4064 161.09 88.2575 161.09C89.1085 161.09 89.6972 155.335 90.6902 151.864C90.2504 150.09 86.2716 145.584 85.9453 145.943Z" fill="#0B5243"/>
<path d="M34.9301 169.771C42.3274 171.71 47.9233 178.88 52.0369 190.383C52.9447 196.587 43.0296 214.743 43.0296 224.555" stroke="#0B5243" stroke-width="0.75" stroke-linecap="round" stroke-linejoin="round"/>
<path d="M27.9581 229.51C29.2277 226.736 37.5967 222.168 42.3202 224.376C47.0437 226.584 55.4908 230.366 57.2284 231.442C58.9661 232.519 60.7037 235.224 60.7037 235.224" stroke="#0B5243" stroke-width="0.75" stroke-linecap="round" stroke-linejoin="round"/>
<path d="M108.946 253.704C108.946 253.704 110.506 253.862 110.223 253.117C109.939 252.372 108.301 248.011 106.818 246.851C105.329 245.699 99.7329 242.138 97.1158 242.138C94.4987 242.138 83.1296 243.988 83.1296 243.988L73.0088 240.006C73.0088 240.006 68.6966 240.799 65.8313 244.974C62.966 249.149 64.3135 252.648 64.3135 252.648C64.3135 252.648 76.2571 253.386 77.6685 254.408C79.0799 255.429 80.6757 257.506 82.8814 258.003C85.0871 258.5 94.2221 256.664 95.4137 257.05C96.6052 257.437 101.385 260.784 102.74 260.784C104.095 260.784 104.464 260.094 103.811 259.466C103.159 258.838 100.846 257.064 100.158 256.333C99.4705 255.601 97.0875 253.786 95.8392 253.386C94.5909 252.986 92.4774 252.882 92.4774 252.882C93.7115 252.938 94.8605 253.069 95.8392 253.386C95.8392 253.386 98.7542 254.684 99.8819 255.429C101.017 256.174 104.584 258.375 105.386 258.976C106.187 259.576 108.762 259.169 107.662 257.727C106.393 256.071 105.23 254.842 104.62 254.152C103.868 253.297 102.414 252.034 101.549 251.199C100.683 250.357 94.5058 248.404 94.5058 248.404C96.8321 249.156 98.8251 249.867 100.378 250.536C100.378 250.536 107.159 256.519 108.62 257.43C110.081 258.348 110.676 256.899 109.953 255.56C109.293 254.339 108.152 252.151 106.967 250.35C105.783 248.549 104.123 247.976 103.102 247.265C102.081 246.555 96.7258 244.671 96.7258 244.671C98.8535 245.444 101.336 246.382 103.102 247.265C104.315 247.873 106.286 249.101 106.967 250.35C107.747 251.792 108.18 251.633 108.953 253.704H108.946Z" fill="#FFDFC7"/>
<path d="M110.259 171.4C108.705 183.848 105.01 191.908 105.01 191.908" stroke="#0B5243" stroke-width="0.75" stroke-linecap="round" stroke-linejoin="round"/>
<path d="M85.0523 185.622C85.0523 184.704 105.195 183.883 105.195 185.194C105.195 186.505 104.741 203.225 104.117 206.31C103.492 209.395 101.365 212.935 100.372 213.28C99.3789 213.625 90.7191 214.059 89.7191 213.28C88.719 212.5 84.2154 209.395 84.6338 205.903C85.4636 196.504 85.0523 186.54 85.0523 185.615V185.622Z" fill="#0B5243"/>
<path d="M81.5696 159.855C82.78 159.855 83.7612 158.9 83.7612 157.723C83.7612 156.545 82.78 155.59 81.5696 155.59C80.3592 155.59 79.3781 156.545 79.3781 157.723C79.3781 158.9 80.3592 159.855 81.5696 159.855Z" fill="#0B5243" stroke="#0B5243" stroke-width="0.75" stroke-linecap="round" stroke-linejoin="round"/>
<path d="M85.13 189.21L97.1729 191.908L105.01 189.21" stroke="#83BAA0" stroke-linecap="round" stroke-linejoin="round"/>
<path d="M73.2433 240.006H108.684" stroke="#031001" stroke-width="0.75" stroke-linecap="round" stroke-linejoin="round"/>
<path d="M169.388 240.006H261.652" stroke="#031001" stroke-width="0.75" stroke-linecap="round" stroke-linejoin="round"/>
<path d="M77.9663 116.098C77.9663 116.098 81.4629 115.201 83.4913 115.718C85.5197 116.236 86.314 118.106 86.314 118.106C86.314 118.106 84.7821 119.162 82.7182 118.817C80.6543 118.472 79.5976 117.533 79.0018 116.947C78.406 116.36 77.9663 116.091 77.9663 116.091V116.098Z" fill="white"/>
<path d="M86.7116 118.589C86.9385 118.272 85.9456 116.291 84.7044 115.691C83.5838 115.146 81.2859 115.235 80.0873 115.359C78.8886 115.484 76.4418 115.987 76.4418 116.201C76.4418 116.415 78.4844 116.05 80.2149 115.953C81.9455 115.856 83.4136 115.953 84.5129 116.498C85.6122 117.043 86.4421 118.962 86.7116 118.589Z" fill="black"/>
<path d="M84.7969 116.843C84.7969 117.264 84.7969 117.837 84.421 118.299C84.1373 118.644 83.5912 118.886 82.9245 118.858C82.2082 118.83 81.5344 118.416 81.3358 117.975C81.0592 117.347 81.2578 116.091 82.0309 115.739C82.8039 115.387 84.7969 115.849 84.7969 116.843Z" fill="black"/>
<path d="M86.3853 118.106C86.2506 117.802 85.2009 118.803 82.8462 118.637C80.4915 118.472 78.1369 115.974 77.9099 116.098C77.8106 116.146 80.0589 118.865 82.8746 119.024C85.6903 119.182 86.4775 118.306 86.3924 118.106H86.3853Z" fill="black"/>
<path d="M96.6974 116.415C95.6123 116.733 94.7754 118.479 94.7754 118.479C94.7754 118.479 96.3783 119.686 98.1372 119.01C99.8961 118.334 100.485 116.477 100.485 116.477C100.485 116.477 98.4563 115.905 96.6974 116.415Z" fill="white"/>
<path d="M94.35 118.968C94.1798 118.679 95.0521 116.76 96.0451 116.346C97.4068 115.773 98.3572 115.932 99.2437 116.049C100.13 116.167 101.038 116.339 100.896 116.477C100.698 116.67 100.428 116.677 99.1445 116.588C97.8607 116.498 97.1657 116.429 96.3359 116.898C95.3004 117.478 94.5415 119.306 94.3429 118.975L94.35 118.968Z" fill="black"/>
<path d="M95.7688 117.388C95.7688 117.768 95.7688 118.285 96.0454 118.706C96.2511 119.017 96.6554 119.237 97.1518 119.21C97.6767 119.182 98.1802 118.816 98.3221 118.409C98.5278 117.843 98.3788 116.705 97.8114 116.387C97.244 116.07 95.7617 116.484 95.7617 117.388H95.7688Z" fill="black"/>
<path d="M94.5987 118.534C94.698 118.258 95.471 119.127 97.2158 119.017C99.457 118.865 100.258 116.374 100.429 116.484C100.5 116.533 100.053 119.217 97.1945 119.369C95.1093 119.472 94.5348 118.72 94.5987 118.541V118.534Z" fill="black"/>
<path d="M83.8246 133.598C83.8246 133.598 86.4133 136.703 90.7468 136.496C94.8462 136.303 94.9809 134.233 94.9809 134.233C93.3142 133.991 92.378 134.792 91.3638 134.792C90.3496 134.792 88.9879 133.991 83.8175 133.605L83.8246 133.598Z" fill="#EAA583"/>
<path d="M84.4494 133.55C84.4494 133.55 88.2792 132.894 89.5842 132.984C90.2367 133.08 91.1375 133.736 91.3644 133.736C91.5914 133.736 92.1233 133.073 92.9886 132.984C93.8539 132.894 94.9816 134.088 94.9816 134.088L91.4708 134.778L84.4423 133.543L84.4494 133.55Z" fill="#EAA583"/>
<path d="M91.3716 135.047C90.9531 135.047 90.6482 134.964 90.2368 134.847C89.8467 134.736 89.3644 134.605 88.5559 134.467C86.8537 134.177 82.9529 133.57 82.5061 133.501C82.0593 133.432 82.2437 133.129 82.6621 133.177C83.0806 133.225 86.9459 133.667 88.6481 133.957C89.485 134.102 90.0028 134.24 90.3857 134.343C90.79 134.453 91.0311 134.522 91.3787 134.522C91.7617 134.522 92.0099 134.44 92.3574 134.322C92.6269 134.233 92.9319 134.129 93.3787 134.039C94.4071 133.832 95.3362 133.825 95.3717 133.825C95.5206 133.825 95.6412 133.943 95.6412 134.088C95.6412 134.233 95.5206 134.35 95.3717 134.35C95.3646 134.35 94.4568 134.35 93.4851 134.55C93.0738 134.633 92.783 134.729 92.5277 134.819C92.1659 134.943 91.8468 135.047 91.3787 135.047H91.3716Z" fill="black"/>
<path d="M90.5627 136.779C87.5484 136.779 84.3781 134.598 84.2434 134.509C84.1228 134.426 84.0944 134.267 84.1796 134.15C84.2647 134.033 84.4278 134.005 84.5484 134.088C84.5767 134.108 87.7187 136.261 90.5556 136.261C93.3926 136.261 94.1656 135.012 94.1727 134.999C94.2507 134.881 94.4139 134.84 94.5415 134.916C94.6621 134.992 94.7047 135.15 94.6266 135.268C94.5841 135.33 93.6337 136.772 90.5556 136.772L90.5627 136.779Z" fill="black"/>
<path d="M91.1865 133.991C91.151 133.991 91.1156 133.984 91.0801 133.97L89.2999 133.218C89.1652 133.163 89.1013 133.011 89.1652 132.88C89.2219 132.749 89.385 132.687 89.5127 132.749L91.1865 133.46L92.6972 132.756C92.8319 132.694 92.988 132.756 93.0518 132.88C93.1156 133.011 93.0589 133.163 92.9241 133.225L91.3 133.977C91.2645 133.991 91.222 134.005 91.1865 134.005V133.991Z" fill="black"/>
<path d="M90.0376 79.9799C79.5125 76.2259 69.2782 78.2616 64.0014 82.3261C58.9162 86.2457 60.0084 92.6909 60.0084 92.6909C60.0084 92.6909 57.6395 92.7737 56.0508 96.5069C53.3345 102.89 57.3417 114 57.3417 114L65.044 130.01L64.583 121.218L65.5334 123.302C65.5334 123.302 66.349 132.556 66.7604 134.578C67.2994 137.276 79.6756 145.557 82.1792 146.15C84.6828 146.751 89.7894 146.806 91.449 145.778C93.6902 144.391 96.3853 139.022 97.4137 136.393C99.1159 132.052 99.7896 128.388 99.7896 128.388C99.1371 129.858 98.4421 131.197 97.6194 132.08C97.6194 132.08 97.6335 130.755 96.3144 130.086C95.6689 129.754 95.1299 129.596 94.6618 129.533C94.6618 129.533 94.0803 130.279 92.6901 130.148C91.3 130.017 90.4844 129.147 90.0872 129.126C84.3708 128.802 81.2643 129.099 80.0586 130.272C79.0798 131.224 78.7607 132.37 78.7607 132.37C78.7607 132.37 70.2285 133.232 69.4058 127.256C68.5831 121.28 68.3987 112.268 69.1292 109.88C69.8597 107.486 73.2499 109.494 73.8102 108.342C74.3705 107.189 71.796 99.2327 74.2145 97.7629C78.9735 95.5684 92.1298 102.897 94.0944 103.083C96.0519 103.27 96.5768 100.937 99.6478 100.937L101.322 111.895L103.471 101.938C104.272 102.228 105.13 102.718 105.733 102.883C106.811 103.187 107.499 101.979 107.336 99.3707C107.13 96.086 102.577 84.4515 90.0376 79.9799ZM81.7111 131.845C82.7324 131.238 86.5481 130.12 90.7539 130.41C94.2221 130.644 95.9526 131.907 96.1654 132.742C96.3782 133.577 96.1654 134.916 95.9952 135.661C95.825 136.407 94.5129 139.891 92.8036 140.471C91.0944 141.051 86.3566 141.175 84.3495 140.471C82.3424 139.767 80.9381 136.821 80.9381 135.661C80.9381 134.502 81.009 132.266 81.7111 131.852V131.845Z" fill="#031001"/>
<path d="M65.1014 111.978C65.1014 111.978 63.4772 108.887 61.1083 108.887C58.7395 108.887 57.3423 111.764 57.3423 114.559C57.3423 116.774 58.2998 118.313 59.5551 120.652C60.8105 122.992 61.1509 124.234 62.4204 124.951C63.69 125.669 65.612 124.22 65.612 124.22L65.1014 111.978Z" fill="#FFC7AB"/>
<path d="M64.2855 120.328C64.2359 120.307 63.094 119.769 63.094 118.644C63.094 117.519 64.2359 117.002 64.2855 116.974C64.3777 116.933 64.4416 116.843 64.4416 116.74C64.4416 116.636 64.4345 114.242 63.555 112.53C62.6968 110.84 61.7465 109.949 60.8103 109.949C59.8741 109.949 58.6471 111.185 58.6471 113.193C58.6471 113.338 58.7677 113.455 58.9166 113.455C59.0655 113.455 59.1861 113.338 59.1861 113.193C59.1861 111.426 60.2642 110.467 60.8174 110.467C61.5124 110.467 62.3422 111.302 63.0798 112.758C63.4628 113.503 63.6614 114.407 63.7749 115.173C61.8599 115.601 61.3138 117.333 61.2926 117.409C61.25 117.547 61.3351 117.692 61.4699 117.733C61.4982 117.74 61.5195 117.747 61.5479 117.747C61.6614 117.747 61.7677 117.671 61.8032 117.561C61.8032 117.547 62.2784 116.098 63.8458 115.712C63.8884 116.098 63.9026 116.422 63.9096 116.595C63.5196 116.809 62.5692 117.464 62.5692 118.651C62.5692 120.107 64.0089 120.777 64.0657 120.804C64.1011 120.818 64.1366 120.832 64.1792 120.832C64.2785 120.832 64.3777 120.777 64.4203 120.68C64.4841 120.549 64.4203 120.397 64.2926 120.335L64.2855 120.328Z" fill="black"/>
<path d="M92.9315 130.375C91.9741 130.375 91.3641 130.064 90.8464 129.802C90.4776 129.616 90.1584 129.457 89.7825 129.43C89.3073 129.395 89.0591 129.443 88.8605 129.478C88.5343 129.54 88.3286 129.561 87.8676 129.285C87.2293 128.898 87.0874 127.739 87.5555 126.759C88.0165 125.8 88.8818 125.165 89.5343 124.882C89.669 124.827 89.8251 124.882 89.8818 125.013C89.9386 125.144 89.8818 125.296 89.7471 125.351C89.1797 125.593 88.435 126.145 88.0378 126.973C87.6548 127.773 87.7754 128.622 88.1442 128.843C88.4491 129.029 88.513 129.016 88.747 128.967C88.9598 128.926 89.2577 128.871 89.8109 128.905C90.3003 128.94 90.6762 129.133 91.0804 129.34C91.7471 129.678 92.4422 130.03 93.8323 129.761C95.7401 129.388 94.6621 123.605 94.2082 121.135C94.1372 120.735 94.0734 120.39 94.0238 120.121C93.6904 118.057 93.6053 115.352 94.2082 114.269C94.2791 114.145 94.4422 114.096 94.5699 114.165C94.6975 114.234 94.7472 114.393 94.6763 114.517C94.2153 115.338 94.1656 117.657 94.5486 120.038C94.5912 120.3 94.655 120.645 94.7259 121.038C95.2933 124.095 96.3501 129.788 93.9316 130.265C93.5557 130.341 93.2152 130.368 92.9174 130.368L92.9315 130.375Z" fill="black"/>
<path d="M96.5699 244.655C96.5699 244.655 101.925 246.532 102.946 247.25C103.967 247.968 106.201 249.589 106.811 250.335C107.421 251.08 109.138 254.323 109.797 255.545C110.521 256.883 109.925 258.325 108.464 257.415" stroke="#EFB297" stroke-width="0.75" stroke-linecap="round" stroke-linejoin="round"/>
<path d="M94.3433 248.389C94.3433 248.389 100.521 250.342 101.386 251.183C102.251 252.025 103.705 253.281 104.457 254.137C105.067 254.834 106.237 256.055 107.5 257.711" stroke="#EFB297" stroke-width="0.75" stroke-linecap="round" stroke-linejoin="round"/>
<path d="M92.4635 252.715C92.4635 252.715 94.6125 252.832 95.8253 253.219C95.8253 253.219 96.5984 253.502 97.6693 254.033" stroke="#EFB297" stroke-width="0.75" stroke-linecap="round" stroke-linejoin="round"/>
<path d="M114.003 216.109L103.244 264.455C103.187 264.697 103.428 264.904 103.67 264.828L165.664 245.395C167.118 244.94 168.246 243.815 168.671 242.387L181.438 200.037C181.821 198.768 180.636 197.567 179.317 197.891L116.975 213.128C115.486 213.494 114.337 214.646 114.01 216.109H114.003Z" fill="#0B5243"/>
<path d="M61.5974 235.224C60.7037 235.224 55.2497 237.404 52.9659 242.387C50.3347 248.135 51.3489 251.461 51.9659 252.593C52.5829 253.731 64.2996 256.264 65.7464 256.022C67.1933 255.781 68.555 252.993 68.555 252.993C68.555 252.993 66.0585 254.911 65.0939 253.973C64.1294 253.034 63.0939 250.115 65.4556 245.623C67.8245 241.138 73.2431 239.951 73.2431 239.951C73.2431 239.951 73.2785 239.344 72.5906 238.674C71.6544 237.763 62.4981 235.224 61.5974 235.224Z" fill="#CBEDE1"/>
<path d="M73.2429 239.951C73.2429 239.951 67.5264 240.993 65.1717 246.196C62.8171 251.392 64.2781 253.849 65.5335 254.208C66.7888 254.567 68.5548 253 68.5548 253L64.5405 252.6C64.5405 252.6 63.8455 250.502 65.6186 246.251C67.3846 242 73.2429 240.11 73.2429 240.11V239.958V239.951Z" fill="#0B5243"/>
<path d="M51.966 252.593C51.966 252.593 50.2355 245.989 53.4909 241.379C56.7463 236.77 60.4414 235.003 61.5975 235.224C62.7535 235.445 71.3992 237.287 72.4276 238.288C73.456 239.288 73.2432 239.951 73.2432 239.951" stroke="#0B5243" stroke-width="0.75" stroke-linecap="round" stroke-linejoin="round"/>
<path d="M151.515 230.357C152.955 227.568 152.609 224.567 150.743 223.656C148.878 222.744 146.198 224.267 144.759 227.056C143.319 229.846 143.665 232.846 145.531 233.757C147.397 234.669 150.076 233.147 151.515 230.357Z" fill="#FDD500"/>
</svg>
