<svg width="733" height="639" viewBox="0 0 733 639" fill="none" xmlns="http://www.w3.org/2000/svg">
<g id="friends-svg" clip-path="url(#clip0_2_304)">
<path id="Vector" d="M121.519 222.42C119.804 222.593 118.08 222.633 116.359 222.541C116.066 222.509 115.772 222.593 115.54 222.776C115.309 222.958 115.158 223.225 115.121 223.517L111.83 248.203C111.577 249.995 110.843 251.684 109.707 253.093C108.77 254.214 108.074 255.515 107.661 256.917C107.248 258.318 107.128 259.789 107.307 261.239V303.171C107.307 303.171 107.095 308.762 111.391 308.762C116.532 309.408 121.735 309.408 126.876 308.762C126.876 308.762 130.315 308.111 130.315 302.952V261.663C130.578 260.223 130.524 258.743 130.157 257.325C129.791 255.907 129.12 254.587 128.192 253.454C127.094 252.04 126.384 250.364 126.133 248.592L122.715 223.39C122.676 223.107 122.531 222.849 122.308 222.669C122.086 222.489 121.804 222.4 121.519 222.42V222.42Z" fill="white"/>
<path id="Vector_2" d="M119.118 309.953C116.52 309.953 113.924 309.792 111.345 309.469C110.769 309.483 110.197 309.377 109.663 309.159C109.13 308.941 108.647 308.614 108.246 308.201C106.498 306.385 106.595 303.275 106.6 303.144L106.6 261.282C106.417 259.742 106.551 258.182 106.991 256.696C107.432 255.21 108.171 253.83 109.164 252.639C110.215 251.332 110.895 249.765 111.129 248.103L114.419 223.423C114.483 222.949 114.73 222.518 115.106 222.222C115.483 221.925 115.96 221.787 116.436 221.837C118.107 221.925 119.783 221.885 121.448 221.716L121.467 221.714C121.932 221.681 122.392 221.825 122.754 222.118C123.116 222.412 123.352 222.832 123.416 223.294L126.834 248.497C127.069 250.145 127.73 251.704 128.751 253.019C129.735 254.221 130.447 255.621 130.839 257.124C131.231 258.627 131.294 260.197 131.023 261.726V302.951C131.023 308.631 127.048 309.45 127.008 309.457C124.391 309.787 121.756 309.953 119.118 309.953V309.953ZM116.263 223.244C116.158 223.239 116.054 223.273 115.973 223.34C115.892 223.407 115.838 223.502 115.823 223.606L112.531 248.296C112.261 250.216 111.475 252.027 110.257 253.537C109.382 254.585 108.731 255.802 108.345 257.111C107.958 258.421 107.844 259.796 108.01 261.151L108.015 261.238V303.171C108.014 303.223 107.939 305.845 109.269 307.223C109.544 307.503 109.876 307.722 110.241 307.865C110.607 308.008 110.999 308.073 111.391 308.054L111.479 308.06C116.562 308.698 121.705 308.698 126.788 308.06C126.855 308.043 129.608 307.415 129.608 302.951L129.619 261.536C129.864 260.197 129.815 258.82 129.474 257.502C129.133 256.183 128.509 254.955 127.645 253.902C126.466 252.387 125.703 250.591 125.432 248.691L122.013 223.485C121.998 223.381 121.945 223.287 121.865 223.221C121.784 223.154 121.681 223.12 121.577 223.126C119.831 223.3 118.074 223.341 116.321 223.247C116.302 223.245 116.282 223.244 116.263 223.244H116.263Z" fill="#3F3D56"/>
<path id="Vector_3" d="M116.324 261.989H121.54C123.614 261.989 125.603 262.813 127.069 264.279C128.536 265.746 129.36 267.735 129.36 269.809V289.434C129.36 291.508 128.536 293.497 127.069 294.964C125.603 296.431 123.614 297.254 121.54 297.254H116.324C114.25 297.254 112.261 296.431 110.794 294.964C109.327 293.497 108.503 291.508 108.503 289.434V269.809C108.503 268.782 108.706 267.765 109.099 266.816C109.492 265.868 110.068 265.005 110.794 264.279C111.52 263.553 112.382 262.977 113.331 262.584C114.28 262.191 115.297 261.989 116.324 261.989V261.989Z" fill="#F9A826"/>
<path id="Vector_4" d="M20.4322 622.437H37.4372L45.5272 556.846L20.4292 556.847L20.4322 622.437Z" fill="#9F616A"/>
<path id="Vector_5" d="M16.0947 616.885L49.5837 616.884H49.5851C55.2451 616.884 60.6733 619.133 64.6756 623.135C68.6779 627.137 70.9265 632.565 70.9269 638.225V638.919L16.0957 638.921L16.0947 616.885Z" fill="#2F2E41"/>
<path id="Vector_6" d="M9.74133 388.163C9.74133 388.163 2.37148 396.493 14.5748 428.968L12.4253 607.031L51.9725 606.259L60.6654 519.401L76.4925 392.651L9.74133 388.163Z" fill="#2F2E41"/>
<path id="Vector_7" d="M90.0562 412.781L89.6233 412.715C39.0315 404.999 0.853988 397.602 0.474258 397.528L0 397.436L13.2623 365.179C13.1575 361.809 10.2867 267.156 15.7823 239.961C21.1025 213.635 46.1799 209.321 49.0375 208.915L51.907 199.408L88.1584 218.271L94.4809 240.031L95.7652 299.67L90.0562 412.781Z" fill="#3F3D56"/>
<path id="Vector_8" d="M111.89 290.031C110.258 290.031 108.643 290.368 107.147 291.023C105.651 291.677 104.307 292.633 103.199 293.832H42.2666L19.9473 298.583L23.6118 326.847L103.008 309.772C104.322 311.256 105.988 312.388 107.852 313.063C109.717 313.739 111.72 313.936 113.681 313.638C115.641 313.34 117.495 312.555 119.074 311.356C120.654 310.157 121.907 308.581 122.721 306.773C123.535 304.965 123.882 302.982 123.732 301.004C123.582 299.027 122.939 297.119 121.862 295.454C120.785 293.789 119.308 292.421 117.567 291.474C115.825 290.526 113.873 290.03 111.89 290.031H111.89Z" fill="#9F616A"/>
<path id="Vector_9" d="M112.419 188.723C120.198 174.492 114.968 156.649 100.737 148.87C86.506 141.091 68.663 146.321 60.8837 160.552C53.1043 174.783 58.3344 192.626 72.5654 200.405C86.7965 208.185 104.639 202.954 112.419 188.723Z" fill="#9F616A"/>
<path id="Vector_10" d="M59.0314 151.161L57.6078 148.295L64.7713 144.736C64.7713 144.736 72.6737 131.878 86.9736 135.491C101.273 139.105 107.707 141.267 107.707 141.267L114.853 144.863L111.266 148.431L117.7 150.594L113.402 152.729L118.403 155.604L115.711 170.339C115.711 170.339 111.239 159.163 102.643 163.434C94.0469 167.705 78.3233 161.226 78.3233 161.226L64.6629 187.663C64.6629 187.663 61.8447 178.395 56.8202 180.867C56.8201 180.867 43.9836 160.424 59.0314 151.161Z" fill="#2F2E41"/>
<path id="Vector_11" d="M24.0014 332.145L17.0332 311.418L15.3477 242.324L18.3167 232.521C19.3853 228.992 21.1553 225.716 23.5205 222.888C25.8857 220.06 28.7975 217.739 32.0814 216.064C35.3652 214.388 38.9535 213.393 42.6313 213.137C46.3091 212.882 50.0005 213.371 53.4845 214.577C56.9685 215.782 60.1733 217.678 62.9069 220.152C65.6404 222.626 67.8465 225.626 69.3927 228.972C70.939 232.319 71.7938 235.943 71.9057 239.628C72.0177 243.313 71.3846 246.983 70.0444 250.417L54.1308 291.196L54.9397 292.766L89.4165 292.487L101.663 314.531L24.0014 332.145Z" fill="#3F3D56"/>
<path id="Vector_12" d="M368.948 323.628C370.235 322.762 371.316 321.623 372.115 320.294C372.914 318.964 373.412 317.476 373.574 315.933C373.735 314.39 373.557 312.83 373.051 311.364C372.544 309.898 371.723 308.56 370.643 307.446L387.638 273.783L368.173 276.041L355.019 307.661C353.267 309.598 352.286 312.111 352.263 314.722C352.239 317.334 353.175 319.864 354.892 321.832C356.609 323.8 358.988 325.07 361.578 325.401C364.169 325.732 366.791 325.101 368.948 323.628V323.628Z" fill="#FFB7B7"/>
<path id="Vector_13" d="M505.24 562.075L489.924 562.074L482.638 502.999L505.242 503.001L505.24 562.075Z" fill="#FFB7B7"/>
<path id="Vector_14" d="M509.146 576.921L459.762 576.919V576.294C459.762 571.197 461.787 566.308 465.392 562.703C468.997 559.099 473.886 557.074 478.983 557.073H478.984L509.146 557.074L509.146 576.921Z" fill="#2F2E41"/>
<path id="Vector_15" d="M421.54 562.075L406.224 562.074L398.938 502.999L421.543 503.001L421.54 562.075Z" fill="#FFB7B7"/>
<path id="Vector_16" d="M421.698 576.921L372.314 576.919V576.294C372.315 571.197 374.34 566.308 377.945 562.703C381.549 559.099 386.438 557.074 391.536 557.073H391.537L421.699 557.074L421.698 576.921Z" fill="#2F2E41"/>
<path id="Vector_17" d="M420.285 312.572L405.294 347.108L392.928 545.614L424.159 544.365L432.689 449.736L459.002 365.454L474.129 459.415L480.376 541.866L506.218 542.985L516.516 312.572H420.285Z" fill="#2F2E41"/>
<path id="Vector_18" d="M495.22 142.154L451.771 143.241L426.263 156.336L424.863 252.95L408.953 319.654C408.953 319.654 508.357 326.496 522.099 316.502L505.859 240.297L527.64 157.942L495.22 142.154Z" fill="#F9A826"/>
<path id="Vector_19" d="M432.972 157.938L428.927 155.207C428.927 155.207 412.17 160.229 407.217 182.573C407.217 182.573 403.427 193.783 401.764 201.49C399.857 210.331 357.738 291.532 357.738 291.532L382.955 298.766L429.187 224L432.972 157.938Z" fill="#F9A826"/>
<path id="Vector_20" d="M526.96 336.017C525.962 334.829 525.237 333.437 524.835 331.938C524.434 330.44 524.366 328.872 524.636 327.344C524.906 325.817 525.508 324.367 526.399 323.097C527.29 321.827 528.448 320.768 529.793 319.994L522.74 282.951L540.828 290.489L544.752 324.51C545.902 326.855 546.152 329.54 545.454 332.057C544.757 334.574 543.16 336.748 540.967 338.166C538.774 339.584 536.137 340.149 533.555 339.753C530.973 339.357 528.627 338.027 526.96 336.017V336.017Z" fill="#FFB7B7"/>
<path id="Vector_21" d="M521.103 159.096L525.744 157.586C525.744 157.586 540.466 167.034 539.065 189.878C539.065 189.878 539.617 201.699 539.09 209.566C538.486 218.589 546.586 308.256 546.586 308.256H520.352L509.108 227.055L521.103 159.096Z" fill="#F9A826"/>
<path id="Vector_22" d="M505.886 101.621C505.886 107.578 504.12 113.401 500.81 118.354C497.501 123.308 492.797 127.168 487.293 129.448C481.79 131.727 475.733 132.324 469.891 131.162C464.048 129.999 458.682 127.131 454.469 122.919C450.257 118.706 447.388 113.34 446.226 107.497C445.064 101.654 445.66 95.5984 447.94 90.0948C450.22 84.5912 454.08 79.8872 459.033 76.5776C463.987 73.268 469.81 71.5016 475.767 71.5016V71.5016C483.735 71.4817 491.385 74.6279 497.033 80.2483C502.682 85.8686 505.866 93.5026 505.886 101.471C505.886 101.521 505.886 101.571 505.886 101.621Z" fill="#FFB7B7"/>
<path id="Vector_23" d="M445.748 61.165C449.276 53.5779 456.104 55.078 462.075 57.6498C469.638 55.9724 476.83 50.9505 484.977 53.9204C493.003 65.5936 519.95 62.1591 514.217 81.1631C514.209 85.7168 522.785 83.0662 521.288 90.5242C525.831 104.877 504.889 132.059 492.867 126.335C495.84 120.886 502.633 108.509 492.331 107.281C470.17 127.901 490.044 68.0168 462.2 85.432C452.981 93.8693 440.359 69.6044 445.748 61.165Z" fill="#2F2E41"/>
<path id="Vector_24" d="M532.232 339.02C533.667 339.309 535.147 339.279 536.569 338.934C537.991 338.588 539.32 337.935 540.462 337.02C541.604 336.105 542.532 334.951 543.18 333.639C543.828 332.327 544.18 330.889 544.212 329.426L619.839 258.244L602.823 244.67L533.706 319.088C531.245 319.197 528.909 320.205 527.142 321.922C525.374 323.638 524.297 325.943 524.116 328.4C523.934 330.856 524.66 333.295 526.156 335.252C527.652 337.21 529.814 338.55 532.232 339.02V339.02Z" fill="#9F616A"/>
<path id="Vector_25" d="M609.123 269.75L594.41 252.507C593.991 252.017 593.683 251.442 593.507 250.821C593.331 250.201 593.29 249.55 593.388 248.912C593.486 248.275 593.72 247.666 594.075 247.127C594.429 246.589 594.896 246.133 595.442 245.79L614.597 233.799C617.119 231.671 620.382 230.63 623.671 230.905C626.96 231.179 630.005 232.746 632.14 235.263C634.274 237.779 635.324 241.04 635.058 244.329C634.793 247.619 633.233 250.668 630.722 252.809L615.919 269.787C615.495 270.273 614.971 270.662 614.383 270.928C613.795 271.193 613.157 271.328 612.512 271.325C611.867 271.321 611.231 271.179 610.646 270.907C610.061 270.635 609.542 270.241 609.123 269.75V269.75Z" fill="#CBCBCB"/>
<path id="Vector_26" d="M569.558 620.997L551.067 620.996L542.27 549.675L569.561 549.676L569.558 620.997Z" fill="#9F616A"/>
<path id="Vector_27" d="M574.273 638.921L514.651 638.919V638.165C514.652 632.01 517.097 626.108 521.449 621.756C525.801 617.404 531.703 614.959 537.858 614.958H537.859L574.274 614.96L574.273 638.921Z" fill="#2F2E41"/>
<path id="Vector_28" d="M717.365 620.997L698.875 620.996L690.078 549.675L717.369 549.676L717.365 620.997Z" fill="#9F616A"/>
<path id="Vector_29" d="M722.081 638.921L662.459 638.919V638.165C662.459 632.01 664.905 626.108 669.257 621.756C673.609 617.404 679.511 614.959 685.666 614.958H685.667L722.082 614.96L722.081 638.921Z" fill="#2F2E41"/>
<path id="Vector_30" d="M667.628 307.556L686.267 238.693L662.087 225.102H628.336L615.209 239.146C615.209 239.146 593.277 254.406 598.585 271.313L607.149 309.822L594.051 370.983L528.061 462.498L512.439 552.391L573.931 568.511L640.426 437.581L672.665 582.555L732.643 579.539L711.976 403.757C711.976 403.757 706.084 350.208 675.202 316.772L667.628 307.556Z" fill="#2F2E41"/>
<path id="Vector_31" d="M706.12 368.486C707.16 367.456 707.961 366.211 708.467 364.838C708.973 363.465 709.172 361.998 709.05 360.539C708.927 359.081 708.487 357.668 707.759 356.398C707.031 355.129 706.034 354.034 704.838 353.192L690.376 255.627L669.619 262.182L690.397 356.146C689.115 358.25 688.65 360.751 689.088 363.175C689.527 365.6 690.84 367.779 692.778 369.3C694.716 370.821 697.145 371.578 699.604 371.428C702.063 371.278 704.381 370.231 706.12 368.486V368.486Z" fill="#9F616A"/>
<path id="Vector_32" d="M693.95 270.939L671.432 273.536C670.792 273.61 670.142 273.545 669.529 273.345C668.916 273.145 668.353 272.816 667.878 272.379C667.404 271.942 667.029 271.408 666.78 270.814C666.53 270.219 666.412 269.577 666.433 268.933L667.162 246.346C666.803 243.066 667.759 239.778 669.821 237.201C671.882 234.625 674.882 232.972 678.161 232.603C681.44 232.235 684.731 233.182 687.313 235.236C689.895 237.291 691.557 240.285 691.934 243.563L697.771 265.319C697.938 265.942 697.969 266.594 697.861 267.23C697.753 267.866 697.51 268.471 697.147 269.004C696.785 269.538 696.311 269.987 695.76 270.321C695.208 270.654 694.591 270.866 693.95 270.939V270.939Z" fill="#CBCBCB"/>
<path id="Vector_33" d="M607.468 205.519V176.504C607.468 166.192 611.564 156.303 618.855 149.012C626.147 141.72 636.036 137.624 646.348 137.624C656.659 137.624 666.548 141.72 673.84 149.012C681.131 156.303 685.228 166.192 685.228 176.504V205.519C685.226 206.903 684.675 208.231 683.696 209.21C682.717 210.189 681.39 210.74 680.005 210.741H612.69C611.306 210.74 609.978 210.189 608.999 209.21C608.02 208.231 607.469 206.903 607.468 205.519V205.519Z" fill="#2F2E41"/>
<path id="Vector_34" d="M652.031 206.573C665.845 199.022 670.921 181.702 663.37 167.888C655.819 154.074 638.499 148.997 624.685 156.549C610.871 164.1 605.794 181.42 613.346 195.234C620.897 209.048 638.217 214.124 652.031 206.573Z" fill="#9F616A"/>
<path id="Vector_35" d="M598.27 178.825C598.279 170.671 601.522 162.853 607.288 157.088C613.054 151.322 620.871 148.079 629.025 148.069H634.828C642.983 148.079 650.8 151.322 656.566 157.088C662.332 162.854 665.575 170.671 665.584 178.825V179.405H653.32L649.138 167.693L648.301 179.405H641.963L639.853 173.496L639.431 179.405H598.27V178.825Z" fill="#2F2E41"/>
<path id="Vector_36" d="M635.553 214.004C634.977 213.225 634.633 212.298 634.561 211.332C634.488 210.365 634.69 209.398 635.144 208.541C641.293 196.845 649.903 175.232 638.475 161.904L637.653 160.946H670.832V210.758L640.692 216.076C640.387 216.13 640.077 216.158 639.767 216.158C638.945 216.158 638.134 215.963 637.401 215.588C636.668 215.214 636.035 214.671 635.553 214.004V214.004Z" fill="#2F2E41"/>
<path id="Vector_37" d="M330.599 240.529C330.179 240.962 329.793 241.427 329.445 241.92L275.386 240.597L269.079 229.073L250.443 236.318L259.625 257.804C260.367 259.54 261.652 260.988 263.287 261.932C264.922 262.875 266.819 263.263 268.693 263.036L329.77 255.658C331.21 257.482 333.172 258.824 335.394 259.506C337.617 260.188 339.994 260.177 342.209 259.474C344.425 258.772 346.374 257.412 347.798 255.575C349.222 253.738 350.053 251.511 350.18 249.19C350.307 246.869 349.725 244.565 348.511 242.583C347.296 240.601 345.507 239.036 343.381 238.096C341.256 237.156 338.894 236.885 336.611 237.319C334.328 237.754 332.231 238.874 330.599 240.529H330.599Z" fill="#FFB7B7"/>
<path id="Vector_38" d="M154.374 568.836H172.149L180.605 500.275L154.371 500.276L154.374 568.836Z" fill="#FFB7B7"/>
<path id="Vector_39" d="M149.84 563.033L184.845 563.032H184.847C190.763 563.032 196.437 565.382 200.621 569.566C204.804 573.749 207.155 579.423 207.155 585.34V586.065L149.841 586.067L149.84 563.033Z" fill="#2F2E41"/>
<path id="Vector_40" d="M315.778 568.441L332.124 561.458L312.967 495.086L288.843 505.393L315.778 568.441Z" fill="#FFB7B7"/>
<path id="Vector_41" d="M309.329 564.885L341.52 551.133L341.521 551.132C346.962 548.808 353.103 548.741 358.594 550.945C364.084 553.149 368.475 557.443 370.799 562.884L371.084 563.55L318.378 586.067L309.329 564.885Z" fill="#2F2E41"/>
<path id="Vector_42" d="M240.773 255.381L242.058 276.21L204.487 280.231L165.173 284.438L176.744 252.81L240.773 255.381Z" fill="#FFB7B7"/>
<path id="Vector_43" d="M242.093 262.855C241.667 262.688 199.23 246.18 173.163 259.678L172.522 260.01L167.322 234.415L164.359 179.385L183.64 170.274L188.949 158.383L225.108 156.243L232.539 166.434L257.837 174.725L242.717 263.102L242.093 262.855Z" fill="#E4E4E4"/>
<path id="Vector_44" d="M243.422 213.184L247.894 178.041L258.078 174.941L258.25 175.005C258.485 175.091 264.02 177.209 265.535 184.872C266.989 192.227 277.941 237.995 278.052 238.457L278.161 238.914L252.428 249.21L243.422 213.184Z" fill="#E4E4E4"/>
<path id="Vector_45" d="M302.539 556.392L336.794 549.365L282.045 398.293L263.307 346.764C263.307 346.764 251.423 305.449 246.053 289.461L242.813 268.008L166.106 276.498C166.106 276.498 144.682 307.962 151.19 359.245L148.247 552L182.501 553.757L211.193 359.354L261.551 465.924C261.551 465.924 277.423 511.401 288.779 521.258L302.539 556.392Z" fill="#2F2E41"/>
<path id="Vector_46" d="M196.867 283.653C196.264 283.638 195.66 283.672 195.062 283.752L159.277 243.211L163.44 230.751L145.457 222.011L135.944 243.353C135.175 245.077 134.987 247.004 135.406 248.844C135.826 250.685 136.832 252.339 138.272 253.56L185.209 293.331C184.851 295.627 185.201 297.978 186.212 300.071C187.223 302.164 188.847 303.9 190.868 305.047C192.89 306.195 195.212 306.699 197.528 306.494C199.843 306.289 202.041 305.384 203.829 303.9C205.618 302.415 206.912 300.421 207.539 298.183C208.167 295.945 208.098 293.569 207.342 291.371C206.586 289.173 205.179 287.257 203.308 285.879C201.437 284.5 199.19 283.723 196.867 283.653V283.653Z" fill="#FFB7B7"/>
<path id="Vector_47" d="M142.217 228.018L156.207 188.169C157.779 183.471 159.749 180.618 162.063 179.686C162.518 179.481 163.012 179.373 163.512 179.368C164.011 179.364 164.507 179.463 164.966 179.659L171.239 187.585L177.061 212.043L162.134 247.157L142.217 228.018Z" fill="#E4E4E4"/>
<path id="Vector_48" d="M234.817 147.997H173.401C172.138 147.995 170.927 147.493 170.033 146.599C169.14 145.706 168.638 144.495 168.636 143.232V116.759C168.636 107.351 172.374 98.3284 179.026 91.6759C185.679 85.0235 194.701 81.2861 204.109 81.2861C213.517 81.2861 222.54 85.0235 229.192 91.6759C235.845 98.3284 239.582 107.351 239.582 116.759V143.232C239.581 144.495 239.078 145.706 238.185 146.599C237.292 147.493 236.081 147.995 234.817 147.997V147.997Z" fill="#2F2E41"/>
<path id="Vector_49" d="M211.399 147.38C225.762 147.38 237.406 135.736 237.406 121.373C237.406 107.009 225.762 95.3652 211.399 95.3652C197.035 95.3652 185.391 107.009 185.391 121.373C185.391 135.736 197.035 147.38 211.399 147.38Z" fill="#FFB7B7"/>
<path id="Vector_50" d="M247.974 119.407H210.42L210.035 114.015L208.109 119.407H202.327L201.563 108.72L197.747 119.407H186.558V118.877C186.566 111.438 189.525 104.305 194.786 99.0445C200.047 93.7839 207.179 90.8248 214.619 90.8164H219.913C227.353 90.8248 234.485 93.7839 239.746 99.0445C245.007 104.305 247.966 111.438 247.974 118.877L247.974 119.407Z" fill="#2F2E41"/>
<path id="Vector_51" d="M210.113 152.938C209.83 152.938 209.548 152.913 209.27 152.864L181.771 148.012V102.564H212.042L211.292 103.438C200.865 115.599 208.721 135.317 214.331 145.989C214.745 146.771 214.929 147.653 214.863 148.535C214.797 149.417 214.484 150.262 213.958 150.973C213.518 151.582 212.94 152.077 212.272 152.418C211.603 152.76 210.863 152.938 210.113 152.938V152.938Z" fill="#2F2E41"/>
<path id="Vector_52" d="M539.518 262.181C537.804 262.353 536.08 262.394 534.359 262.301C534.066 262.269 533.772 262.353 533.54 262.536C533.309 262.719 533.158 262.985 533.121 263.278L529.83 287.963C529.577 289.755 528.843 291.445 527.707 292.853C526.77 293.974 526.074 295.276 525.661 296.677C525.248 298.078 525.128 299.549 525.307 300.999V342.931C525.307 342.931 525.095 348.522 529.391 348.522C534.532 349.168 539.735 349.168 544.876 348.522C544.876 348.522 548.315 347.871 548.315 342.712V301.424C548.578 299.983 548.524 298.503 548.157 297.085C547.791 295.668 547.12 294.347 546.192 293.214C545.094 291.801 544.384 290.125 544.133 288.352L540.715 263.15C540.676 262.867 540.53 262.609 540.308 262.429C540.086 262.249 539.804 262.16 539.518 262.181V262.181Z" fill="white"/>
<path id="Vector_53" d="M537.118 349.713C534.52 349.713 531.924 349.552 529.345 349.23C528.769 349.243 528.197 349.138 527.663 348.919C527.13 348.701 526.647 348.375 526.246 347.961C524.498 346.145 524.595 343.036 524.6 342.904L524.6 301.042C524.417 299.503 524.551 297.942 524.991 296.456C525.432 294.971 526.171 293.59 527.164 292.399C528.215 291.092 528.895 289.525 529.129 287.864L532.419 263.184C532.483 262.709 532.73 262.278 533.106 261.982C533.483 261.686 533.96 261.548 534.436 261.597C536.107 261.685 537.783 261.645 539.448 261.476L539.467 261.475C539.932 261.441 540.392 261.585 540.754 261.879C541.116 262.172 541.353 262.592 541.416 263.054L544.834 288.257C545.069 289.905 545.73 291.464 546.751 292.779C547.735 293.981 548.447 295.382 548.839 296.884C549.231 298.387 549.294 299.957 549.023 301.486V342.712C549.023 348.391 545.048 349.21 545.008 349.218C542.391 349.547 539.756 349.713 537.118 349.713V349.713ZM534.263 263.004C534.158 262.999 534.054 263.034 533.973 263.101C533.892 263.167 533.838 263.262 533.823 263.367L530.531 288.056C530.261 289.977 529.475 291.788 528.257 293.297C527.382 294.346 526.732 295.562 526.345 296.872C525.958 298.181 525.844 299.556 526.01 300.912L526.015 300.999V342.931C526.014 342.983 525.939 345.605 527.269 346.983C527.544 347.263 527.876 347.482 528.241 347.625C528.607 347.768 528.999 347.833 529.391 347.815L529.479 347.82C534.562 348.458 539.705 348.458 544.788 347.82C544.855 347.804 547.608 347.176 547.608 342.712L547.619 301.297C547.864 299.957 547.815 298.58 547.474 297.262C547.133 295.943 546.508 294.715 545.645 293.662C544.466 292.148 543.703 290.351 543.432 288.451L540.013 263.245C539.998 263.141 539.945 263.047 539.865 262.981C539.784 262.915 539.681 262.881 539.577 262.886C537.831 263.061 536.074 263.101 534.321 263.007C534.302 263.005 534.282 263.004 534.263 263.004V263.004Z" fill="#3F3D56"/>
<path id="Vector_54" d="M534.324 301.749H539.54C541.614 301.749 543.603 302.573 545.069 304.04C546.536 305.506 547.36 307.495 547.36 309.569V329.194C547.36 331.268 546.536 333.258 545.069 334.724C543.603 336.191 541.614 337.015 539.54 337.015H534.324C532.25 337.015 530.261 336.191 528.794 334.724C527.327 333.258 526.503 331.268 526.503 329.194V309.569C526.503 307.495 527.327 305.506 528.794 304.04C530.261 302.573 532.25 301.749 534.324 301.749V301.749Z" fill="#F9A826"/>
<path id="Vector_55" d="M362.518 228.181C360.804 228.353 359.08 228.394 357.359 228.301C357.066 228.269 356.772 228.353 356.54 228.536C356.309 228.719 356.158 228.985 356.121 229.278L352.83 253.963C352.577 255.755 351.843 257.445 350.707 258.853C349.77 259.974 349.074 261.276 348.661 262.677C348.248 264.078 348.128 265.549 348.307 266.999V308.931C348.307 308.931 348.095 314.522 352.391 314.522C357.532 315.168 362.735 315.168 367.876 314.522C367.876 314.522 371.315 313.871 371.315 308.712V267.424C371.578 265.983 371.524 264.503 371.157 263.085C370.791 261.668 370.12 260.347 369.192 259.214C368.094 257.801 367.384 256.125 367.133 254.352L363.715 229.15C363.676 228.867 363.53 228.609 363.308 228.429C363.086 228.249 362.804 228.16 362.518 228.181V228.181Z" fill="white"/>
<path id="Vector_56" d="M360.118 315.714C357.52 315.714 354.924 315.552 352.345 315.23C351.769 315.244 351.197 315.138 350.663 314.92C350.13 314.701 349.647 314.375 349.246 313.962C347.498 312.146 347.595 309.036 347.6 308.905L347.6 267.042C347.417 265.503 347.551 263.943 347.991 262.457C348.432 260.971 349.171 259.59 350.164 258.4C351.215 257.093 351.895 255.526 352.129 253.864L355.419 229.184C355.483 228.709 355.73 228.278 356.106 227.982C356.483 227.686 356.96 227.548 357.436 227.598C359.107 227.686 360.783 227.645 362.448 227.477L362.467 227.475C362.932 227.441 363.392 227.586 363.754 227.879C364.116 228.173 364.353 228.593 364.416 229.054L367.834 254.257C368.069 255.906 368.73 257.465 369.751 258.78C370.735 259.982 371.447 261.382 371.839 262.885C372.231 264.388 372.294 265.957 372.023 267.487V308.712C372.023 314.392 368.048 315.21 368.008 315.218C365.391 315.548 362.756 315.713 360.118 315.714V315.714ZM357.263 229.005C357.158 229 357.054 229.034 356.973 229.101C356.892 229.168 356.838 229.263 356.823 229.367L353.531 254.057C353.261 255.977 352.475 257.788 351.257 259.298C350.382 260.346 349.732 261.563 349.345 262.872C348.958 264.182 348.844 265.557 349.01 266.912L349.015 266.999V308.932C349.014 308.984 348.939 311.606 350.269 312.983C350.544 313.263 350.876 313.482 351.241 313.626C351.607 313.769 351.999 313.834 352.391 313.815L352.479 313.821C357.562 314.458 362.705 314.458 367.788 313.821C367.855 313.804 370.608 313.176 370.608 308.712L370.619 267.297C370.864 265.957 370.815 264.581 370.474 263.262C370.133 261.944 369.508 260.716 368.645 259.663C367.466 258.148 366.703 256.352 366.432 254.452L363.013 229.245C362.998 229.142 362.945 229.048 362.865 228.981C362.784 228.915 362.681 228.881 362.577 228.886C360.831 229.061 359.074 229.102 357.321 229.008C357.302 229.006 357.282 229.005 357.263 229.005V229.005Z" fill="#3F3D56"/>
<path id="Vector_57" d="M357.324 267.749H362.54C364.614 267.749 366.603 268.573 368.069 270.04C369.536 271.506 370.36 273.495 370.36 275.569V295.194C370.36 297.268 369.536 299.258 368.069 300.724C366.603 302.191 364.614 303.015 362.54 303.015H357.324C355.25 303.015 353.261 302.191 351.794 300.724C350.327 299.258 349.503 297.268 349.503 295.194V275.569C349.503 273.495 350.327 271.506 351.794 270.04C353.261 268.573 355.25 267.749 357.324 267.749V267.749Z" fill="#F9A826"/>
<path id="Vector_58" d="M332.518 192.181C330.804 192.353 329.08 192.394 327.359 192.301C327.066 192.269 326.772 192.353 326.54 192.536C326.309 192.719 326.158 192.985 326.121 193.278L322.83 217.963C322.577 219.755 321.843 221.445 320.707 222.853C319.77 223.974 319.074 225.276 318.661 226.677C318.248 228.078 318.128 229.549 318.307 230.999V272.931C318.307 272.931 318.095 278.522 322.391 278.522C327.532 279.168 332.735 279.168 337.876 278.522C337.876 278.522 341.315 277.871 341.315 272.712V231.424C341.578 229.983 341.524 228.503 341.157 227.085C340.791 225.668 340.12 224.347 339.192 223.214C338.094 221.801 337.384 220.125 337.133 218.352L333.715 193.15C333.676 192.867 333.53 192.609 333.308 192.429C333.086 192.249 332.804 192.16 332.518 192.181V192.181Z" fill="white"/>
<path id="Vector_59" d="M330.118 279.714C327.52 279.714 324.924 279.552 322.345 279.23C321.769 279.244 321.197 279.138 320.663 278.92C320.13 278.701 319.647 278.375 319.246 277.962C317.498 276.146 317.595 273.036 317.6 272.905L317.6 231.042C317.417 229.503 317.551 227.943 317.991 226.457C318.432 224.971 319.171 223.59 320.164 222.4C321.215 221.093 321.895 219.526 322.129 217.864L325.419 193.184C325.483 192.709 325.73 192.278 326.106 191.982C326.483 191.686 326.96 191.548 327.436 191.598C329.107 191.686 330.783 191.645 332.448 191.477L332.467 191.475C332.932 191.441 333.392 191.586 333.754 191.879C334.116 192.173 334.353 192.593 334.416 193.054L337.834 218.257C338.069 219.906 338.73 221.465 339.751 222.78C340.735 223.982 341.447 225.382 341.839 226.885C342.231 228.388 342.294 229.957 342.023 231.487V272.712C342.023 278.392 338.048 279.21 338.008 279.218C335.391 279.548 332.756 279.713 330.118 279.714V279.714ZM327.263 193.005C327.158 193 327.054 193.034 326.973 193.101C326.892 193.168 326.838 193.263 326.823 193.367L323.531 218.057C323.261 219.977 322.475 221.788 321.257 223.298C320.382 224.346 319.732 225.563 319.345 226.872C318.958 228.182 318.844 229.557 319.01 230.912L319.015 230.999V272.932C319.014 272.984 318.939 275.606 320.269 276.983C320.544 277.263 320.876 277.482 321.241 277.626C321.607 277.769 321.999 277.834 322.391 277.815L322.479 277.821C327.562 278.458 332.705 278.458 337.788 277.821C337.855 277.804 340.608 277.176 340.608 272.712L340.619 231.297C340.864 229.957 340.815 228.581 340.474 227.262C340.133 225.944 339.508 224.716 338.645 223.663C337.466 222.148 336.703 220.352 336.432 218.452L333.013 193.245C332.998 193.142 332.945 193.048 332.865 192.981C332.784 192.915 332.681 192.881 332.577 192.886C330.831 193.061 329.074 193.102 327.321 193.008C327.302 193.006 327.282 193.005 327.263 193.005V193.005Z" fill="#3F3D56"/>
<path id="Vector_60" d="M327.324 231.749H332.54C334.614 231.749 336.603 232.573 338.069 234.04C339.536 235.506 340.36 237.495 340.36 239.569V259.194C340.36 261.268 339.536 263.258 338.069 264.724C336.603 266.191 334.614 267.015 332.54 267.015H327.324C325.25 267.015 323.261 266.191 321.794 264.724C320.327 263.258 319.503 261.268 319.503 259.194V239.569C319.503 237.495 320.327 235.506 321.794 234.04C323.261 232.573 325.25 231.749 327.324 231.749Z" fill="#F9A826"/>
<path id="Vector_61" d="M56.1875 71C69.9946 71 81.1875 59.8071 81.1875 46C81.1875 32.1929 69.9946 21 56.1875 21C42.3804 21 31.1875 32.1929 31.1875 46C31.1875 59.8071 42.3804 71 56.1875 71Z" fill="#F9A826"/>
<path id="Vector_62" d="M632.188 50C645.995 50 657.188 38.8071 657.188 25C657.188 11.1929 645.995 0 632.188 0C618.38 0 607.188 11.1929 607.188 25C607.188 38.8071 618.38 50 632.188 50Z" fill="#F9A826"/>
<path id="Vector_63" d="M346.188 113C356.129 113 364.188 104.941 364.188 95C364.188 85.0589 356.129 77 346.188 77C336.246 77 328.188 85.0589 328.188 95C328.188 104.941 336.246 113 346.188 113Z" fill="#F9A826"/>
</g>
<defs>
<clipPath id="clip0_2_304">
<rect width="732.643" height="638.921" fill="white"/>
</clipPath>
</defs>
</svg>
