<svg width="831" height="470" viewBox="0 0 831 470" fill="none" xmlns="http://www.w3.org/2000/svg">
<g id="roommates-svg" clip-path="url(#clip0_2_158)">
<path id="Vector" d="M505.681 469.302C668.053 469.302 799.681 446.02 799.681 417.302C799.681 388.583 668.053 365.302 505.681 365.302C343.309 365.302 211.681 388.583 211.681 417.302C211.681 446.02 343.309 469.302 505.681 469.302Z" fill="#F0F0F0"/>
<path id="Vector_2" d="M779.039 317.801H228.04V224.258H236.54V154.632C236.558 138.228 243.083 122.501 254.683 110.901C266.282 99.3013 282.009 92.7765 298.414 92.7581H709.665C726.07 92.7766 741.797 99.3014 753.396 110.901C764.996 122.501 771.521 138.228 771.539 154.632V224.258H779.039V317.801Z" fill="#E4E4E4"/>
<path id="Vector_3" d="M793.969 420.758H766.54V420.258C766.512 395.999 756.863 372.742 739.71 355.588C722.556 338.434 699.299 328.786 675.04 328.758H332.04C307.781 328.786 284.523 338.434 267.37 355.588C250.216 372.742 240.567 395.999 240.54 420.258V420.758H213.111C206.861 420.751 200.87 418.265 196.451 413.847C192.032 409.428 189.547 403.436 189.54 397.187V244.276C181.575 239.776 175.097 215.336 179.304 195.817C181.945 183.568 189.569 168.775 210.89 167.859C231.646 166.967 247.052 186.452 248.428 205.21C249.174 215.08 246.275 224.881 240.28 232.758H240.54V254.572C285.548 240.149 330.621 232.809 374.514 232.758C419.43 232.802 464.034 240.225 506.543 254.731C594.928 226.144 682.396 225.588 766.54 253.084V232.758H766.8C760.805 224.881 757.906 215.08 758.652 205.21C760.161 184.636 776.99 167.881 796.167 167.859H796.231C818.845 167.859 826.843 181.472 829.571 192.899C834.399 213.121 825.535 239.739 817.54 244.276V397.187C817.533 403.436 815.047 409.428 810.628 413.847C806.209 418.265 800.218 420.751 793.969 420.758V420.758Z" fill="#CACACA"/>
<path id="Vector_4" d="M170.681 274.301H2.68103V288.801H5.68103V420.301H22.681V288.801H151.681V420.301H168.681V288.801H170.681V274.301Z" fill="#F0F0F0"/>
<path id="Path 164" d="M600.791 263.07C600.791 263.07 609.038 249.54 619.626 257.54C630.214 265.54 649.822 279.038 649.822 279.038C649.822 279.038 653.839 287.672 643.444 284.429C633.049 281.186 599.116 275.967 599.116 275.967L600.791 263.07Z" fill="#9E616A"/>
<path id="Path 161" d="M560.277 279.887C551.403 279.887 543.28 279.037 536.825 277.027C529.153 274.638 524.336 270.775 522.506 265.537C521.646 263.312 521.389 260.9 521.762 258.545C522.134 256.189 523.123 253.974 524.627 252.124C535.976 237.335 575.361 233.164 580.645 232.671L591.366 212.37C592.052 207.527 588.806 203.86 594.414 203.768L660.744 202.868C666.25 202.752 664.688 206.162 665.63 210.885L675.736 228.925L632.243 247.281L638.818 263.305L638.389 263.554C625.66 270.938 589.053 279.886 560.277 279.887Z" fill="#2F2E41"/>
<path id="Path 162" d="M669.715 229.695C669.715 229.695 730.457 222.744 726.495 250.549C722.534 278.354 676.317 298.049 606.332 250.549L614.255 236.646C614.255 236.646 640.335 235.349 656.18 228.398L669.715 229.695Z" fill="#2F2E41"/>
<path id="Vector_5" d="M664.102 88.9809L642.265 80.8135L599.938 80.2673L581.719 88.9809L586.836 118.39C586.836 118.39 576.504 135.884 587.88 153.381L590.432 215.724C590.432 215.724 631.24 239.388 665.686 210.971L657.901 153.007C657.901 153.007 670.922 126.113 660.829 116.122L664.102 88.9809Z" fill="#3F3D56"/>
<path id="Path 163" d="M653.199 256.315C653.199 256.315 646.398 242.003 635.038 248.864C623.679 255.725 602.778 267.12 602.778 267.12C602.778 267.12 597.889 275.291 608.564 273.142C619.239 270.993 653.53 269.316 653.53 269.316L653.199 256.315Z" fill="#9E616A"/>
<path id="Vector_6" d="M642.545 209.03H599.942C598.87 209.03 597.841 208.604 597.083 207.846C596.325 207.087 595.899 206.059 595.899 204.987L594.021 149.242C594.021 148.17 594.447 147.142 595.206 146.383C595.964 145.625 596.992 145.199 598.065 145.199H644.422C645.495 145.199 646.523 145.625 647.281 146.383C648.039 147.142 648.465 148.17 648.465 149.242L646.588 204.987C646.588 206.059 646.162 207.087 645.404 207.846C644.645 208.604 643.617 209.03 642.545 209.03V209.03Z" fill="white"/>
<path id="Vector_7" d="M621.243 165.85C623.317 165.85 624.998 164.169 624.998 162.096C624.998 160.022 623.317 158.341 621.243 158.341C619.17 158.341 617.489 160.022 617.489 162.096C617.489 164.169 619.17 165.85 621.243 165.85Z" fill="#F9A826"/>
<path id="Vector_8" d="M622.415 186.841C621.76 185.505 620.819 184.329 619.66 183.396C618.501 182.463 617.151 181.795 615.706 181.44C614.261 181.085 612.755 181.052 611.296 181.341C609.836 181.631 608.458 182.237 607.258 183.117L587.364 171.062L577.09 181.365L605.423 197.994C607.035 199.912 609.294 201.172 611.773 201.535C614.252 201.899 616.778 201.34 618.873 199.965C620.967 198.591 622.485 196.495 623.138 194.076C623.791 191.657 623.534 189.083 622.415 186.841H622.415Z" fill="#9E616A"/>
<path id="Vector_9" d="M621.459 182.302C622.35 181.11 623.492 180.129 624.804 179.426C626.116 178.724 627.566 178.317 629.052 178.236C630.537 178.154 632.023 178.399 633.404 178.954C634.785 179.509 636.027 180.36 637.044 181.447L658.824 173.281L667.015 185.306L636.095 196.406C634.156 197.993 631.702 198.813 629.199 198.711C626.695 198.61 624.316 197.593 622.512 195.855C620.708 194.116 619.604 191.776 619.41 189.278C619.216 186.781 619.945 184.298 621.459 182.302H621.459Z" fill="#9E616A"/>
<path id="Vector_10" d="M661.749 88.7371C661.749 88.7371 675.89 85.9089 679.661 98.1646C683.432 110.42 702.287 155.672 696.63 162.271C690.974 168.871 670.233 186.783 663.634 190.554C657.035 194.325 654.207 194.325 654.207 194.325L645.722 198.096L642.894 176.413L652.57 170.681L667.405 158.5L658.921 133.046L661.749 88.7371Z" fill="#3F3D56"/>
<path id="Vector_11" d="M583.36 89.138C583.36 89.138 569.218 86.3098 565.447 98.5655C561.676 110.821 542.821 156.073 548.478 162.672C554.134 169.272 574.875 187.184 581.474 190.955C588.073 194.726 590.902 194.726 590.902 194.726L599.386 198.497L602.215 176.814L592.538 171.082L577.703 158.901L591.373 125.434L583.36 89.138Z" fill="#3F3D56"/>
<path id="Vector_12" d="M622.769 72.0938C640.767 72.0938 655.357 57.5038 655.357 39.5061C655.357 21.5084 640.767 6.91846 622.769 6.91846C604.772 6.91846 590.182 21.5084 590.182 39.5061C590.182 57.5038 604.772 72.0938 622.769 72.0938Z" fill="#9E616A"/>
<path id="Vector_13" d="M655.186 15.6697C653.007 10.9244 649.123 7.1723 644.306 5.15904C639.531 3.23303 634.194 3.23769 629.422 5.17204C625.114 2.45014 620.327 0.292295 615.286 0.0250355C610.245 -0.242224 604.915 1.62804 601.808 5.74488C601.115 6.83161 600.327 7.85525 599.454 8.80398C596.956 11.1165 593.161 10.783 589.842 10.3101C591.331 11.5861 592.82 12.862 594.31 14.1379C592.508 14.6087 590.705 15.0795 588.903 15.5503C591.006 16.8258 593.109 18.1013 595.212 19.3769C589.106 23.0413 586.332 31.0396 587.065 38.3037C587.758 45.1811 591.078 51.47 595.047 57.0597C596.631 53.7184 596.29 49.7202 596.264 45.957C596.236 41.9807 596.94 37.4655 600.126 35.2432C602.275 33.7442 605.039 33.6772 607.631 33.6914C620.705 33.7632 633.764 34.5784 646.745 36.1333C648.506 36.2095 650.223 36.7076 651.752 37.5857C654.623 39.5441 655.182 43.5856 655.471 47.1313C656.987 41.2769 657.729 35.2488 657.678 29.2014C657.638 24.5727 657.106 19.8501 655.186 15.6697Z" fill="#2F2E41"/>
<path id="Path 163_2" d="M398.037 326.139C398.037 326.139 403.779 339.724 414.622 333.806C425.464 327.889 445.363 318.143 445.363 318.143C445.363 318.143 450.242 310.744 440.228 312.308C430.214 313.872 398.258 314.036 398.258 314.036L398.037 326.139Z" fill="#FEB8B8"/>
<path id="Vector_14" d="M316.964 40.2329C319.043 42.2956 320.233 45.0893 320.281 48.0175C320.329 50.9457 319.23 53.7766 317.219 55.9058C316.803 56.3314 316.353 56.7217 315.873 57.0728L327.148 94.6605L307.96 88.6589L300.194 53.8851C298.883 51.7854 298.306 49.3101 298.553 46.8471C298.801 44.3842 299.858 42.0729 301.56 40.2756C302.559 39.2453 303.755 38.4255 305.076 37.8643C306.397 37.3032 307.818 37.0121 309.253 37.0081C310.688 37.0041 312.11 37.2874 313.434 37.8412C314.759 38.3951 315.959 39.2082 316.964 40.2329V40.2329Z" fill="#FFB6B6"/>
<path id="Vector_15" d="M398.438 318.288L410.493 314.039L399.476 264.48L381.683 270.752L398.438 318.288Z" fill="#FEB8B8"/>
<path id="Path 163_3" d="M442.803 305.433C442.803 305.433 453.339 315.754 461.062 306.113C468.785 296.473 483.388 279.809 483.388 279.809C483.388 279.809 485.036 271.1 476.399 276.404C467.763 281.708 438.341 294.18 438.341 294.18L442.803 305.433Z" fill="#FEB8B8"/>
<path id="Vector_16" d="M440.146 298.034L449.631 289.466L420.358 247.987L406.359 260.634L440.146 298.034Z" fill="#FEB8B8"/>
<path id="Vector_17" d="M323.316 78.7378L325.517 85.4308L335.414 115.492C336.092 117.473 336.372 119.568 336.239 121.657C336.107 123.747 335.563 125.789 334.641 127.669C333.718 129.548 332.434 131.227 330.862 132.61C329.29 133.993 327.461 135.052 325.479 135.728C321.814 136.926 317.836 136.723 314.311 135.158L258.618 109.812C256.425 108.844 254.468 107.414 252.878 105.62C251.289 103.826 250.106 101.71 249.41 99.4162C248.714 97.1226 248.522 94.7059 248.846 92.3311C249.17 89.9563 250.003 87.6795 251.288 85.6563C253.455 82.2571 256.835 79.811 260.741 78.8157C264.647 77.8205 268.786 78.3508 272.315 80.2987L310.921 102.215L306.562 81.4292L323.316 78.7378Z" fill="#F9A826"/>
<path id="Vector_18" d="M410.958 294.839L391.938 303.596L353.195 227.879C319.981 246.42 287.312 260.124 255.868 262.935C250.691 263.354 245.557 261.718 241.576 258.382C237.594 255.046 235.086 250.277 234.592 245.107C234.539 244.6 234.507 244.093 234.493 243.584C234.233 231.832 236.338 218.398 239.376 204.301L292.868 204.968L297.232 211.648L345.458 187.301C347.796 186.149 350.34 185.471 352.941 185.306C355.543 185.141 358.151 185.493 360.616 186.341C363.082 187.189 365.354 188.517 367.304 190.248C369.254 191.978 370.841 194.077 371.976 196.424C372.237 196.949 372.476 197.484 372.691 198.03L410.958 294.839Z" fill="#2F2E41"/>
<path id="Vector_19" d="M434.955 267.562L415.934 276.319L354.581 215.964C321.367 234.505 288.697 248.208 257.253 251.02C252.076 251.439 246.942 249.803 242.961 246.467C238.98 243.131 236.471 238.362 235.977 233.192C235.925 232.685 235.892 232.178 235.878 231.669C235.619 219.917 237.723 206.483 240.761 192.386L297.363 177.639L298.617 199.733L346.843 175.386C349.182 174.234 351.725 173.556 354.327 173.391C356.928 173.226 359.537 173.578 362.002 174.426C364.467 175.274 366.74 176.602 368.689 178.332C370.639 180.063 372.227 182.162 373.361 184.509C373.623 185.034 373.861 185.569 374.077 186.115L434.955 267.562Z" fill="#2F2E41"/>
<path id="Vector_20" d="M259.846 66.2502C273.175 61.5529 280.087 46.6991 275.285 33.0733C270.483 19.4475 255.785 12.2096 242.456 16.9069C229.128 21.6042 222.215 36.458 227.017 50.0838C231.819 63.7096 246.517 70.9475 259.846 66.2502Z" fill="#FFB6B6"/>
<path id="Vector_21" d="M293.017 72.4625C292.932 72.9871 293.054 73.5242 293.356 73.9609C293.659 74.3976 294.12 74.6998 294.641 74.804C295.315 74.6564 313.927 79.093 313.965 77.8205C314.18 77.6656 314.361 77.4692 314.499 77.243C314.637 77.0168 314.727 76.7654 314.766 76.5034L323.072 22.2158C323.118 21.9181 323.098 21.614 323.013 21.325C322.928 21.0359 322.781 20.7691 322.581 20.5432C322.841 19.1283 303.751 20.7805 303.03 20.6378C302.577 20.6569 302.145 20.8331 301.808 21.136C301.471 21.4389 301.251 21.8497 301.184 22.2978L293.017 72.4625Z" fill="#3F3D56"/>
<path id="Vector_22" d="M319.227 22.4876C319.227 22.4876 303.128 23.5262 303.313 23.2637C302.91 23.3875 301.909 23.0967 301.862 23.7765L294.243 71.5047C293.617 72.7078 311.497 74.427 311.776 74.8049C313.259 75.1412 319.217 23.5872 319.799 23.128C319.821 22.9838 319.785 22.8369 319.7 22.7185C319.615 22.6001 319.487 22.5196 319.344 22.4941C319.305 22.4877 319.266 22.4855 319.227 22.4876Z" fill="#F9A826"/>
<path id="Vector_23" d="M278.15 75.1018C278.172 74.4749 278.112 73.8478 277.969 73.2368C277.566 71.4501 276.472 69.8955 274.926 68.9121C273.381 67.9287 271.509 67.5963 269.72 67.9874L258.056 70.6818C257.177 70.8941 256.348 71.2782 255.618 71.812C254.888 72.3458 254.27 73.0188 253.801 73.7921C253.332 74.5655 253.021 75.4239 252.885 76.3181C252.749 77.2123 252.791 78.1246 253.009 79.0024C253.375 80.5662 254.263 81.9587 255.526 82.9504C249.997 85.6097 245.367 89.83 242.208 95.0904C239.05 100.351 237.5 106.421 237.752 112.552C233.927 137.061 234.346 163.703 240.539 193.253L298.687 199.353L303.358 152.089L305.064 144.753C305.529 143.7 305.962 142.66 306.352 141.619C308.715 135.79 310.079 129.604 310.385 123.321C310.562 118.834 310.013 114.347 308.762 110.034C304.755 96.2385 293.632 84.9169 278.15 75.1018Z" fill="#F9A826"/>
<path id="Vector_24" opacity="0.2" d="M310.386 123.321C310.079 129.604 308.715 135.79 306.352 141.619C305.962 142.66 305.529 143.7 305.064 144.753L303.358 152.089C285.567 146.5 259.527 108.984 259.527 108.984L274.317 100.299L310.386 123.321Z" fill="black"/>
<path id="Vector_25" d="M297.337 55.629C296.788 58.5074 297.384 61.4863 298.998 63.9319C300.612 66.3775 303.117 68.0968 305.979 68.7239C306.563 68.8422 307.155 68.912 307.751 68.9325L319.665 106.324L332.131 90.5928L318.906 57.4969C318.8 55.0217 317.878 52.6512 316.283 50.7554C314.688 48.8596 312.511 47.5451 310.09 47.017C308.686 46.7247 307.237 46.7168 305.829 46.9939C304.422 47.271 303.084 47.8273 301.895 48.6302C300.706 49.433 299.69 50.466 298.907 51.6681C298.124 52.8702 297.59 54.217 297.337 55.629V55.629Z" fill="#FFB6B6"/>
<path id="Vector_26" d="M313.335 92.8555L331.836 89.1518L343.936 125.903C344.81 128.521 344.999 131.32 344.486 134.032C343.974 136.744 342.776 139.279 341.007 141.398C338.841 143.97 335.897 145.768 332.619 146.52C329.342 147.273 325.908 146.94 322.836 145.572L267.142 120.222C263.237 118.477 260.149 115.303 258.513 111.351C256.878 107.399 256.818 102.97 258.348 98.9759C259.101 96.99 260.246 95.1756 261.714 93.6406C263.183 92.1055 264.944 90.8811 266.894 90.0398C268.845 89.1986 270.944 88.7578 273.069 88.7435C275.193 88.7293 277.298 89.1419 279.259 89.9568C279.8 90.1795 280.328 90.4311 280.842 90.7106L319.442 112.627L313.335 92.8555Z" fill="#F9A826"/>
<path id="Vector_27" d="M262.287 6.22371C256.061 5.00718 249.782 7.21235 243.859 9.38471C239.568 10.9586 235.277 12.5326 230.986 14.1065C225.778 16.017 220.307 18.1118 216.838 22.4846C213.368 26.8574 212.944 34.2668 217.445 37.6526C205.954 32.963 192.414 36.3542 182.795 44.0553C177.955 47.758 174.222 52.7153 172.001 58.3895C169.741 64.6125 169.87 71.5547 171.241 78.0903C172.612 84.6258 175.169 90.8478 177.712 97.0251C179.31 100.909 181.331 105.213 185.24 106.59C188.846 107.861 192.843 106.069 195.579 103.425C200.351 98.8141 202.36 91.9676 203.32 85.3115C204.28 78.6552 204.392 71.8222 206.235 65.3734C208.078 58.9244 212.08 52.6633 218.289 50.392C216.216 58.0346 218.592 67.244 225.139 71.6886C229.847 74.8845 235.954 75.2532 241.417 73.9683C246.879 72.6836 251.856 69.912 256.756 67.1711C260.073 65.3152 263.832 62.729 263.781 58.8546C263.732 55.0556 260.065 52.4933 257.805 49.4372C253.445 43.5389 254.823 34.1659 260.671 29.9616L259.955 29.6248C265.624 28.4921 271.838 25.4996 273.043 19.7526C274.359 13.479 268.512 7.44029 262.287 6.22371Z" fill="#2F2E41"/>
<path id="Vector_28" d="M271.415 270.302C265.837 270.298 260.309 269.243 255.122 267.191C249.921 265.187 245.169 262.171 241.14 258.319C237.112 254.467 233.886 249.855 231.65 244.749L199.577 171.042C190.356 149.85 200.691 125.357 222.616 116.443L223.16 116.221L288.681 266.796L288.136 267.018C282.827 269.183 277.149 270.298 271.415 270.302V270.302Z" fill="#3F3D56"/>
<path id="Vector_29" d="M739.47 263.086C734.626 263.085 729.831 262.114 725.368 260.231L724.907 260.037L780.348 128.221L780.809 128.415C789.725 132.177 796.785 139.322 800.439 148.283C804.094 157.243 804.045 167.287 800.303 176.212L773.165 240.737C770.369 247.363 765.682 253.018 759.688 256.993C753.695 260.968 746.662 263.088 739.47 263.086V263.086Z" fill="#3F3D56"/>
<path id="Vector_30" d="M0.0167724 222.078C0.0479745 221.87 0.122512 221.671 0.235568 221.494C0.348624 221.317 0.497672 221.165 0.673022 221.05L53.446 186.211C52.6507 185.879 51.9856 185.296 51.552 184.552H51.5515C51.0243 183.632 50.8825 182.541 51.1568 181.518C51.4312 180.494 52.0995 179.62 53.0158 179.087L57.3459 176.587C58.2653 176.06 59.3561 175.918 60.3798 176.193C61.4036 176.467 62.2772 177.135 62.8098 178.052C63.0976 178.555 63.2707 179.116 63.3166 179.694L101.41 154.546C102.69 151.448 104.629 148.665 107.094 146.393C109.559 144.121 112.489 142.414 115.681 141.39V130.302H129.681V141.39C134.326 142.875 138.379 145.798 141.254 149.736C144.13 153.675 145.68 158.425 145.681 163.302V166.302H131.681C131.681 168.688 130.733 170.978 129.045 172.665C127.357 174.353 125.068 175.302 122.681 175.302C120.294 175.302 118.005 174.353 116.317 172.665C114.629 170.978 113.681 168.688 113.681 166.302H99.6809V163.302C99.6822 161.863 99.8177 160.429 100.086 159.016L3.71651 222.635L43.7478 271.306C44.0588 271.304 44.3679 271.302 44.6809 271.302C47.8747 271.302 50.9694 271.377 53.9182 271.507C53.7403 271.013 53.6626 270.488 53.6897 269.963C53.7479 268.905 54.2226 267.913 55.01 267.203C55.7975 266.494 56.8337 266.125 57.8923 266.177L62.8855 266.437C63.9438 266.495 64.9361 266.97 65.6456 267.757C66.3551 268.545 66.7241 269.581 66.6721 270.64C66.6351 271.265 66.4493 271.873 66.1301 272.412C74.9592 273.35 80.6808 274.643 80.6808 275.302C80.6808 276.38 65.3176 275.353 46.0886 275.304C46.0004 275.554 45.8473 275.776 45.6449 275.947C45.4426 276.119 45.1984 276.233 44.9372 276.279C44.6761 276.325 44.4074 276.3 44.1588 276.208C43.9103 276.116 43.6907 275.959 43.5226 275.754L43.1521 275.304C23.9797 275.357 8.68087 276.378 8.68087 275.302C8.68087 274.287 22.2829 271.763 39.9069 271.358L0.341006 223.254C0.207608 223.092 0.109813 222.903 0.0539581 222.7C-0.00189707 222.498 -0.0145607 222.286 0.0167724 222.078V222.078Z" fill="#F0F0F0"/>
<path id="Vector_31" d="M135.848 271.652V203.266C135.848 201.236 138.988 199.584 142.848 199.584C146.708 199.584 149.848 201.236 149.848 203.266V271.652C149.848 273.682 146.708 275.334 142.848 275.334C138.988 275.334 135.848 273.682 135.848 271.652Z" fill="#F0F0F0"/>
<path id="Vector_32" d="M119.098 271.652V203.266C119.098 201.236 122.238 199.584 126.098 199.584C129.958 199.584 133.098 201.236 133.098 203.266V271.652C133.098 273.682 129.958 275.334 126.098 275.334C122.238 275.334 119.098 273.682 119.098 271.652Z" fill="#F0F0F0"/>
<path id="Vector_33" d="M102.348 271.652V203.266C102.348 201.236 105.488 199.584 109.348 199.584C113.208 199.584 116.348 201.236 116.348 203.266V271.652C116.348 273.682 113.208 275.334 109.348 275.334C105.488 275.334 102.348 273.682 102.348 271.652Z" fill="#F0F0F0"/>
</g>
<defs>
<clipPath id="clip0_2_158">
<rect width="830.942" height="469.301" fill="white"/>
</clipPath>
</defs>
</svg>
