<svg width="274" height="274" viewBox="0 0 274 274" fill="none" xmlns="http://www.w3.org/2000/svg">
<path fill-rule="evenodd" clip-rule="evenodd" d="M54.4108 26.8355C57.8934 24.2243 61.4966 21.7802 65.2064 19.5115L19.515 65.2065C21.7839 61.4965 24.2242 57.8925 26.8328 54.4145L54.4108 26.8355ZM114.876 1.10231C116.229 0.880444 117.588 0.681319 118.947 0.502269L0.506836 118.943C0.685 117.584 0.885011 116.228 1.10599 114.873L114.876 1.10231ZM150.711 0C151.752 0.103134 152.794 0.2173 153.835 0.345176L0.349861 153.832C0.220862 152.791 0.106814 151.748 0 150.706L150.711 0ZM179.423 6.01148C180.294 6.29277 181.161 6.5851 182.028 6.88556L6.88556 182.024C6.58967 181.161 6.29645 180.29 6.01527 179.42L179.423 6.01148ZM203.649 16.5176C204.394 16.9286 205.133 17.3495 205.867 17.7734L17.778 205.863C17.3532 205.128 16.9323 204.39 16.5222 203.644L203.649 16.5176ZM224.337 30.5573C224.972 31.0817 225.604 31.6059 226.228 32.141L32.1446 226.228C31.6094 225.6 31.0852 224.969 30.561 224.334L224.337 30.5573ZM241.858 47.7673C242.39 48.3956 242.918 49.0268 243.439 49.6625L49.6661 243.439C49.0278 242.914 48.3956 242.389 47.7718 241.854L241.858 47.7673ZM256.226 68.1319C256.65 68.8671 257.068 69.6087 257.478 70.3512L70.3549 257.478C69.6097 257.067 68.8707 256.649 68.1355 256.226L256.226 68.1319ZM267.114 91.9717C267.414 92.8348 267.702 93.7015 267.985 94.5719L94.5765 267.985C93.7062 267.703 92.8385 267.41 91.9753 267.111L267.114 91.9717ZM273.654 120.164C273.783 121.206 273.897 122.247 274 123.289L123.293 274C122.251 273.892 121.209 273.778 120.167 273.65L273.654 120.164ZM273.497 155.048C273.319 156.411 273.115 157.771 272.898 159.123L159.126 272.894C157.775 273.115 156.416 273.315 155.053 273.493L273.497 155.048ZM254.485 208.793C252.219 212.5 249.782 216.099 247.174 219.574L219.582 247.167C216.103 249.775 212.503 252.215 208.792 254.484L254.485 208.793Z" fill="grey"/>
</svg>
